<svg width="194" height="364" viewBox="0 0 194 364" fill="none" xmlns="http://www.w3.org/2000/svg">
<path d="M177 0.300049H16.6C7.59999 0.300049 0.399994 7.70005 0.399994 16.8V347C0.399994 356.1 7.69999 363.5 16.6 363.5H177C186 363.5 193.2 356.1 193.2 347V16.8C193.2 7.70005 186 0.300049 177 0.300049ZM183.1 336.8C183.1 345.5 176.6 352.5 168.6 352.5H25.1C17.1 352.5 10.5 345.5 10.5 336.8V29.4001C10.5 11.7001 17 10.8 25.1 10.8H53.8C55.5 10.8 56.8 12.7 56.8 15.1V16.1C56.8 21.6 59.8 21.6 63.5 21.6H130C133.7 21.6 136.7 21.6 136.7 16.1V15.1C136.7 12.7 138 10.8 139.7 10.8H168.4C176.4 10.8 182.9 13.1001 182.9 29.4001V336.8H183.1Z" fill="#263238"/>
<path d="M183.1 32.4001V336.8C183.1 345.5 176.6 352.5 168.6 352.5H25.1C17.1 352.5 10.5 345.5 10.5 336.8V32.4001C10.5 14.7001 17 10.8 25.1 10.8H53.8C55.5 10.8 56.8 12.7 56.8 15.1V16.1C56.8 21.6 59.8 21.6 63.5 21.6H130C133.7 21.6 136.7 21.6 136.7 16.1V15.1C136.7 12.7 138 10.8 139.7 10.8H168.4C176.6 10.8 183.1 16.2001 183.1 32.4001Z" fill="white"/>
<path d="M105.9 14.7H87.8C87.2 14.7 86.7 14.2 86.7 13.6C86.7 13 87.2 12.5 87.8 12.5H105.9C106.5 12.5 107 13 107 13.6C107 14.2 106.5 14.7 105.9 14.7Z" fill="white"/>
<path d="M106 181.6H85.1V184.3H106V181.6Z" fill="#C7C7C7"/>
<path d="M57.4 53H29.4C24.9817 53 21.4 56.5817 21.4 61V89C21.4 93.4183 24.9817 97 29.4 97H57.4C61.8183 97 65.4 93.4183 65.4 89V61C65.4 56.5817 61.8183 53 57.4 53Z" fill="#FFD8D0"/>
<path d="M48.1 80.7L42.3 78.8C42.3 78.8 39.3 81.1 37.3 77.2C37.3 77.2 32.8 78.5 31.3 73.8C31.3 73.8 25.8 72.1 27.4 68.9C29 65.8 33.4 69.1 33.4 69.1C33.4 69.1 37.8 68.7 39.3 73.2C39.3 73.2 43.5 73.2 43.5 77.1L48.1 80.7Z" fill="#263238"/>
<path d="M30 70.1001C31.6 70.9001 33.1 71.7001 34.6 72.6001C36.1 73.4001 37.7 74.3001 39.2 75.2001C40.7 76.1001 42.2 77.0001 43.7 77.9001C45.2 78.8001 46.7 79.7001 48.1 80.8001L47 80.0001L45.9 79.3001L43.6 78.0001L39.1 75.4001L34.6 72.8001C33 71.9001 31.5 71.0001 30 70.1001Z" fill="white"/>
<path d="M48.4 80.5L48.5 74.4C48.5 74.4 51.6 72.3 48.6 69.2C48.6 69.2 51.3 65.4 47.3 62.5C47.3 62.5 47.5 56.7 44 57.2C40.5 57.7 42.2 62.9 42.2 62.9C42.2 62.9 40.4 66.9 44.2 69.9C44.2 69.9 42.8 73.9 46.5 75.1L48.4 80.5Z" fill="#263238"/>
<path d="M44.3 59.9C44.7 61.6 45 63.3 45.3 65L46.3 70.2L47.3 75.4L47.8 78L48.1 79.3L48.4 80.6C47.9 78.9 47.5 77.2 47.1 75.5C46.7 73.8 46.4 72.1 46 70.4C45.7 68.7 45.3 67 45 65.2C44.8 63.4 44.6 61.6 44.3 59.9Z" fill="white"/>
<path d="M48.8 81.4L43.1 75.5C43.1 75.5 38.3 76.7 37.9 71C37.9 71 31.7 70.2 32.5 63.7C32.5 63.7 26.7 58.7 30.3 55.7C33.9 52.8 37.5 59.1 37.5 59.1C37.5 59.1 43 61 42.5 67.2C42.5 67.2 47.6 69.4 45.6 74.1L48.8 81.4Z" fill="#455A64"/>
<path d="M34 58.9C35.4 60.6 36.8 62.4 38.1 64.3C38.4 64.8 38.8 65.2 39.1 65.7L40.1 67.1C40.4 67.6 40.7 68 41 68.5C41.3 69 41.6 69.4 41.9 69.9C42.5 70.8 43.1 71.8 43.7 72.7L44.6 74.1L45 74.8L45.4 75.5C46.6 77.4 47.6 79.4 48.7 81.4L48.3 80.7L47.9 80L47.5 79.3L47.1 78.6L46.2 77.2L45.3 75.8C44.1 73.9 42.9 72 41.7 70.1C41.1 69.2 40.5 68.2 39.8 67.3L38.9 65.9L37.9 64.5C37.3 63.6 36.6 62.7 36 61.7C35.3 60.7 34.6 59.8 34 58.9Z" fill="white"/>
<path d="M57.9 81.3C58 81.4 58.1 81.6 58.2 81.7C61 86.1 57.3 89.5 57.2 91.1C57.1 92.7 58.3 93.7 57.6 94.3C56.9 94.8 56.3 93.3 54.7 92.9C53.5 92.6 50.3 94 47.5 92.5C47.3 92.4 47 92.2 46.8 92.1C46.3 91.8 45.9 91.4 45.5 90.8C45.4 90.7 45.3 90.5 45.2 90.4C45.1 90.3 45.1 90.3 45 90.2C43.8 88.4 43.3 86.7 43.4 85.2C43.4 84.9 43.5 84.5 43.5 84.2C43.9 82.2 45.1 80.6 46.8 79.4C49.5 77.5 53.1 77 56 79.5C56.2 79.7 56.4 79.8 56.6 80C57 80.4 57.3 80.8 57.7 81.2C57.8 81.2 57.9 81.2 57.9 81.3Z" fill="white"/>
<path d="M50.8 89.2001L51.2 89.8001L47.5 92.5001C47.3 92.4001 47 92.2001 46.8 92.1001L50.8 89.2001Z" fill="#DBDBDB"/>
<path d="M47.7 88.3L48.1 88.9L45.5 90.7C45.4 90.6 45.3 90.4 45.2 90.3C45.1 90.2 45.1 90.2 45 90.1L47.7 88.3Z" fill="#DBDBDB"/>
<path d="M57.9 81.3C58 81.4 58.1 81.6 58.2 81.7L55.6 83.5L55.2 82.9L57.8 81.1C57.8 81.2 57.9 81.2 57.9 81.3Z" fill="#DBDBDB"/>
<path d="M56.7 79.9L54.9 81.2L54.5 80.6L56.2 79.4C56.3 79.5 56.5 79.7 56.7 79.9Z" fill="#DBDBDB"/>
<path d="M45.6 82.6L46 83.2L43.4 85C43.4 84.7 43.5 84.3 43.5 84L45.6 82.6Z" fill="#DBDBDB"/>
<path d="M35.3 100.6C35.4 100.6 35.5 100.7 35.5 100.8V101.1C36.1 101.1 36.5 101.3 36.9 101.7C37 101.8 37 101.8 37 101.9C37 102 36.9 102.1 36.8 102.1C36.8 102.1 36.7 102.1 36.7 102C36.3 101.7 35.9 101.5 35.5 101.5V103.7C36.7 104 37.2 104.4 37.2 105.2C37.2 106 36.5 106.6 35.5 106.7V107.3C35.5 107.4 35.4 107.5 35.3 107.5C35.2 107.5 35.1 107.4 35.1 107.3V106.7C34.4 106.6 33.8 106.4 33.3 105.9C33.2 105.9 33.2 105.8 33.2 105.7C33.2 105.6 33.3 105.5 33.4 105.5C33.5 105.5 33.5 105.5 33.5 105.6C33.9 106 34.4 106.3 35.1 106.3V104C33.9 103.7 33.4 103.3 33.4 102.5C33.4 101.7 34.1 101.1 35.1 101.1V100.8C35.2 100.6 35.2 100.6 35.3 100.6ZM35.2 103.6V101.4C34.4 101.4 33.9 101.9 33.9 102.5C33.9 103 34.1 103.3 35.2 103.6ZM35.5 104.1V106.3C36.3 106.3 36.8 105.8 36.8 105.2C36.8 104.6 36.6 104.3 35.5 104.1Z" fill="#A6A6A6"/>
<path d="M38.3 106.3L40.9 103.9C41.2 103.6 41.4 103.2 41.4 102.8C41.4 102.5 41.3 102.1 41 101.8C40.7 101.5 40.3 101.3 39.9 101.3C39.5 101.3 39.2 101.4 38.9 101.7L38.6 101.9C38.5 102 38.4 102 38.3 101.9C38.2 101.8 38.2 101.7 38.3 101.6L38.6 101.3C39 101 39.4 100.8 39.8 100.8C40.3 100.8 40.8 101 41.1 101.4C41.4 101.8 41.6 102.2 41.6 102.6C41.6 103.1 41.4 103.6 41 104L38.8 106H41.4C41.5 106 41.6 106.1 41.6 106.2C41.6 106.3 41.5 106.4 41.4 106.4H38.3C38.2 106.4 38.2 106.4 38.2 106.3C38.2 106.5 38.2 106.4 38.3 106.3Z" fill="#A6A6A6"/>
<path d="M43.6 105.8C43.8 105.8 44 106 44 106.2C44 106.4 43.8 106.6 43.6 106.6C43.4 106.6 43.2 106.4 43.2 106.2C43.2 106 43.4 105.8 43.6 105.8Z" fill="#A6A6A6"/>
<path d="M45 106.1C44.9 106 44.9 105.9 45 105.8C45.1 105.7 45.2 105.7 45.3 105.8C45.6 106.1 46 106.2 46.4 106.2C46.8 106.2 47.2 106.1 47.5 105.8C47.8 105.5 47.9 105.1 47.9 104.7C47.9 104.3 47.8 103.9 47.5 103.6C47.2 103.3 46.8 103.2 46.4 103.2C46 103.2 45.6 103.3 45.3 103.6C45.2 103.7 45.1 103.7 45 103.6C45 103.6 45 103.6 45 103.5C45 103.5 45 103.5 45 103.4L45.3 101.1C45.3 101 45.3 101 45.4 101H45.5H48.1C48.2 101 48.3 101.1 48.3 101.2C48.3 101.3 48.2 101.4 48.1 101.4H45.7L45.5 103.1C45.8 102.9 46.1 102.8 46.5 102.8C47 102.8 47.5 103 47.8 103.4C48.2 103.8 48.4 104.2 48.4 104.7C48.4 105.2 48.2 105.7 47.8 106C47.4 106.4 46.9 106.6 46.5 106.6C45.8 106.6 45.3 106.5 45 106.1Z" fill="#A6A6A6"/>
<path d="M49.8 103.8C49.8 103 50 102.4 50.3 101.8C50.6 101.3 51.1 101 51.7 101C52.3 101 52.8 101.3 53.1 101.8C53.4 102.3 53.6 103 53.6 103.8C53.6 104.6 53.4 105.2 53.1 105.8C52.8 106.3 52.3 106.6 51.7 106.6C51.1 106.6 50.6 106.3 50.3 105.8C49.9 105.3 49.8 104.6 49.8 103.8ZM50.1 103.8C50.1 104.5 50.3 105.1 50.6 105.5C50.9 105.9 51.3 106.2 51.7 106.2C52.1 106.2 52.5 106 52.8 105.5C53.1 105.1 53.3 104.5 53.3 103.8C53.3 103.1 53.1 102.5 52.8 102.1C52.5 101.7 52.1 101.4 51.7 101.4C51.3 101.4 50.9 101.6 50.6 102.1C50.3 102.5 50.1 103.2 50.1 103.8Z" fill="#A6A6A6"/>
<path d="M109.4 53H81.4C76.9817 53 73.4 56.5817 73.4 61V89C73.4 93.4183 76.9817 97 81.4 97H109.4C113.818 97 117.4 93.4183 117.4 89V61C117.4 56.5817 113.818 53 109.4 53Z" fill="#FFD8D0"/>
<path d="M103.1 80.9C108.7 86.6 114.3 92.5 114.3 92.5C114 94 112.3 94.4 112.3 94.4C112.3 94.4 106.5 88.5 101 83C100.8 82.8 100.6 82.6 100.4 82.4C100.3 82.3 100.1 82.1 100 82C99.6 81.6 99.2 81.2 98.8 80.8C98.7 80.7 98.5 80.5 98.4 80.4C97.6 79.6 96.8 78.8 96.1 78C96 77.9 95.8 77.7 95.7 77.6C93.4 75.3 91.7 73.6 91.2 73C88.7 70.4 76.4 65.1 76.4 65.1C76.4 65.1 75.4 64.4 76.7 62.7C76.7 62.7 81.5 65 85.9 67.2L75.5 60.6C75.5 60.6 75.4 59.6 76.4 58.8L82.3 62.7L77 57.6C77 57.6 77.1 56.8 78.6 56.1L87.8 65.6L81.3 57C81.3 57 82 56.1 82.9 55.8C82.9 55.8 86.9 61.9 92.6 69.4L86.7 59.3C86.7 59.3 87.2 58.6 88.3 58.5C88.3 58.5 93 69.6 97.9 75.3C98 75.4 98.1 75.6 98.3 75.7C98.5 75.9 98.7 76.1 98.8 76.3C99.4 76.9 100 77.5 100.6 78.1C100.7 78.2 100.9 78.4 101 78.5C101.4 78.9 101.8 79.3 102.2 79.7C102.3 79.8 102.5 80 102.6 80.1C102.7 80.5 102.9 80.7 103.1 80.9Z" fill="white"/>
<path d="M88.2 58.8C88.2 58.8 92.9 69.9 97.8 75.6L95.7 77.6C93.4 75.3 91.7 73.6 91.2 73C88.7 70.4 76.4 65.1 76.4 65.1C76.4 65.1 75.4 64.4 76.7 62.7C76.7 62.7 81.5 65 85.9 67.2L75.5 60.6C75.5 60.6 75.4 59.6 76.4 58.8L82.3 62.7L77 57.6C77 57.6 77.1 56.8 78.6 56.1L87.8 65.6L81.3 57C81.3 57 82 56.1 82.9 55.8C82.9 55.8 86.9 61.9 92.6 69.4L86.7 59.3C86.6 59.6 87 58.9 88.2 58.8Z" fill="#455A64"/>
<path d="M100.5 78.4L98.4 80.4C97.6 79.6 96.8 78.8 96.1 78L98.2 76C98.4 76.2 98.6 76.4 98.7 76.6C99.3 77.2 99.9 77.8 100.5 78.4Z" fill="#455A64"/>
<path d="M102.1 79.9001L100 81.9001C99.6 81.5001 99.2 81.1001 98.8 80.7001L100.9 78.7001C101.3 79.2001 101.7 79.5001 102.1 79.9001Z" fill="#455A64"/>
<path d="M103.1 80.9L101 82.9C100.8 82.7 100.6 82.5 100.4 82.3L102.5 80.3C102.7 80.5 102.9 80.7 103.1 80.9Z" fill="#455A64"/>
<path d="M87.8 100.6C87.9 100.6 88 100.7 88 100.8V101.1C88.6 101.1 89 101.3 89.4 101.7C89.5 101.8 89.5 101.8 89.5 101.9C89.5 102 89.4 102.1 89.3 102.1C89.3 102.1 89.2 102.1 89.2 102C88.8 101.7 88.4 101.5 88 101.5V103.7C89.2 104 89.7 104.4 89.7 105.2C89.7 106 89 106.6 88 106.7V107.3C88 107.4 87.9 107.5 87.8 107.5C87.7 107.5 87.6 107.4 87.6 107.3V106.7C86.9 106.6 86.3 106.4 85.8 105.9C85.7 105.9 85.7 105.8 85.7 105.7C85.7 105.6 85.8 105.5 85.9 105.5C86 105.5 86 105.5 86 105.6C86.4 106 86.9 106.3 87.6 106.3V104C86.4 103.7 85.9 103.3 85.9 102.5C85.9 101.7 86.6 101.1 87.6 101.1V100.8C87.6 100.6 87.6 100.6 87.8 100.6ZM87.6 103.6V101.4C86.8 101.4 86.3 101.9 86.3 102.5C86.3 103 86.5 103.3 87.6 103.6ZM87.9 104.1V106.3C88.7 106.3 89.2 105.8 89.2 105.2C89.2 104.6 89 104.3 87.9 104.1Z" fill="#A6A6A6"/>
<path d="M91.6 101.6L90.8 102.1H90.7C90.6 102.1 90.6 102.1 90.5 102C90.4 101.9 90.5 101.8 90.6 101.7L91.7 101C91.8 101 91.9 101 92 101.1V101.2V106.3C92 106.4 91.9 106.5 91.8 106.5C91.7 106.5 91.6 106.4 91.6 106.3V101.6V101.6Z" fill="#A6A6A6"/>
<path d="M94 105.8C94.2 105.8 94.4 106 94.4 106.2C94.4 106.4 94.2 106.6 94 106.6C93.8 106.6 93.6 106.4 93.6 106.2C93.6 106 93.8 105.8 94 105.8Z" fill="#A6A6A6"/>
<path d="M95.1 103.8C95.1 103 95.3 102.4 95.6 101.8C95.9 101.3 96.4 101 97 101C97.6 101 98.1 101.3 98.4 101.8C98.7 102.3 98.9 103 98.9 103.8C98.9 104.6 98.7 105.2 98.4 105.8C98.1 106.3 97.6 106.6 97 106.6C96.4 106.6 95.9 106.3 95.6 105.8C95.3 105.3 95.1 104.6 95.1 103.8ZM95.5 103.8C95.5 104.5 95.7 105.1 96 105.5C96.3 105.9 96.7 106.2 97.1 106.2C97.5 106.2 97.9 106 98.2 105.5C98.5 105.1 98.7 104.5 98.7 103.8C98.7 103.1 98.5 102.5 98.2 102.1C97.9 101.7 97.5 101.4 97.1 101.4C96.7 101.4 96.3 101.6 96 102.1C95.7 102.5 95.5 103.2 95.5 103.8Z" fill="#A6A6A6"/>
<path d="M100.8 103.8C100.8 103 101 102.4 101.3 101.8C101.6 101.3 102.1 101 102.7 101C103.3 101 103.8 101.3 104.1 101.8C104.4 102.3 104.6 103 104.6 103.8C104.6 104.6 104.4 105.2 104.1 105.8C103.8 106.3 103.3 106.6 102.7 106.6C102.1 106.6 101.6 106.3 101.3 105.8C101 105.3 100.8 104.6 100.8 103.8ZM101.2 103.8C101.2 104.5 101.4 105.1 101.7 105.5C102 105.9 102.4 106.2 102.8 106.2C103.2 106.2 103.6 106 103.9 105.5C104.2 105.1 104.4 104.5 104.4 103.8C104.4 103.1 104.2 102.5 103.9 102.1C103.6 101.7 103.2 101.4 102.8 101.4C102.4 101.4 102 101.6 101.7 102.1C101.4 102.5 101.2 103.2 101.2 103.8Z" fill="#A6A6A6"/>
<path d="M161.3 53H133.3C128.882 53 125.3 56.5817 125.3 61V89C125.3 93.4183 128.882 97 133.3 97H161.3C165.718 97 169.3 93.4183 169.3 89V61C169.3 56.5817 165.718 53 161.3 53Z" fill="#FFD8D0"/>
<path d="M134.2 80.3C137.6 91.5 148.2 90.1 151.2 89.2C154.2 88.3 163.7 83.6 160.3 72.3C156.9 61.1 145.6 63.7 143.6 64.3C141.3 65 130.8 69.1 134.2 80.3Z" fill="white"/>
<path d="M144.6 65.9C144.6 65.9 145.1 70.1 152.5 67.6C152.4 67.6 147.4 62.2 144.6 65.9Z" fill="#455A64"/>
<path d="M145.3 67.6C145.3 67.6 148.8 67.8 147.8 61.5C147.8 61.5 142.8 64.8 145.3 67.6Z" fill="#455A64"/>
<path d="M145 66.4999C145 66.4999 143.8 69.7999 138.4 66.2999C138.4 66.2999 143.5 62.9999 145 66.4999Z" fill="#455A64"/>
<path d="M144.8 65.7C144.8 65.7 141.6 68.4 147.8 73.2C147.8 73.1 149.4 66 144.8 65.7Z" fill="#455A64"/>
<path d="M144.4 66.2999C144.4 66.2999 139.7 64.9999 140.3 72.9999C140.4 72.9999 147.5 70.4999 144.4 66.2999Z" fill="#455A64"/>
<path d="M145.2 67.3C145.2 67.3 145.8 63.1 142.3 60.2C142.3 60.2 140.3 60.2 139.8 62.3C139.8 62.3 143.8 64.5 144.1 68.2L145 67.6" fill="#263238"/>
<path d="M139.8 100.6C139.9 100.6 140 100.7 140 100.8V101.1C140.6 101.1 141 101.3 141.4 101.7C141.5 101.8 141.5 101.8 141.5 101.9C141.5 102 141.4 102.1 141.3 102.1C141.3 102.1 141.2 102.1 141.2 102C140.8 101.7 140.4 101.5 140 101.5V103.7C141.2 104 141.7 104.4 141.7 105.2C141.7 106 141 106.6 140 106.7V107.3C140 107.4 139.9 107.5 139.8 107.5C139.7 107.5 139.6 107.4 139.6 107.3V106.7C138.9 106.6 138.3 106.4 137.8 105.9C137.7 105.9 137.7 105.8 137.7 105.7C137.7 105.6 137.8 105.5 137.9 105.5C138 105.5 138 105.5 138 105.6C138.4 106 138.9 106.3 139.6 106.3V104C138.4 103.7 137.9 103.3 137.9 102.5C137.9 101.7 138.6 101.1 139.6 101.1V100.8C139.6 100.6 139.7 100.6 139.8 100.6ZM139.6 103.6V101.4C138.8 101.4 138.3 101.9 138.3 102.5C138.4 103 138.6 103.3 139.6 103.6ZM140 104.1V106.3C140.8 106.3 141.3 105.8 141.3 105.2C141.3 104.6 141 104.3 140 104.1Z" fill="#A6A6A6"/>
<path d="M143.7 101.6L142.9 102.1H142.8C142.7 102.1 142.7 102.1 142.6 102C142.5 101.9 142.6 101.8 142.7 101.7L143.8 101C143.9 101 144 101 144.1 101.1V101.2V106.3C144.1 106.4 144 106.5 143.9 106.5C143.8 106.5 143.7 106.4 143.7 106.3V101.6V101.6Z" fill="#A6A6A6"/>
<path d="M146 105.8C146.2 105.8 146.4 106 146.4 106.2C146.4 106.4 146.2 106.6 146 106.6C145.8 106.6 145.6 106.4 145.6 106.2C145.6 106 145.8 105.8 146 105.8Z" fill="#A6A6A6"/>
<path d="M147.4 106.1C147.3 106 147.3 105.9 147.4 105.8C147.5 105.7 147.6 105.7 147.7 105.8C148 106.1 148.4 106.2 148.8 106.2C149.2 106.2 149.6 106.1 149.9 105.8C150.2 105.5 150.3 105.1 150.3 104.7C150.3 104.3 150.2 103.9 149.9 103.6C149.6 103.3 149.2 103.2 148.8 103.2C148.4 103.2 148 103.3 147.7 103.6C147.6 103.7 147.5 103.7 147.4 103.6C147.4 103.6 147.4 103.6 147.4 103.5C147.4 103.5 147.4 103.5 147.4 103.4L147.7 101.1C147.7 101 147.7 101 147.8 101H147.9H150.5C150.6 101 150.7 101.1 150.7 101.2C150.7 101.3 150.6 101.4 150.5 101.4H148L147.8 103.1C148.1 102.9 148.4 102.8 148.8 102.8C149.3 102.8 149.8 103 150.1 103.4C150.5 103.8 150.7 104.2 150.7 104.7C150.7 105.2 150.5 105.7 150.1 106C149.7 106.4 149.2 106.6 148.8 106.6C148.2 106.6 147.8 106.5 147.4 106.1Z" fill="#A6A6A6"/>
<path d="M152.2 103.8C152.2 103 152.4 102.4 152.7 101.8C153 101.3 153.5 101 154.1 101C154.7 101 155.2 101.3 155.5 101.8C155.8 102.3 156 103 156 103.8C156 104.6 155.8 105.2 155.5 105.8C155.2 106.3 154.7 106.6 154.1 106.6C153.5 106.6 153 106.3 152.7 105.8C152.4 105.3 152.2 104.6 152.2 103.8ZM152.6 103.8C152.6 104.5 152.8 105.1 153.1 105.5C153.4 105.9 153.8 106.2 154.2 106.2C154.6 106.2 155 106 155.3 105.5C155.6 105.1 155.8 104.5 155.8 103.8C155.8 103.1 155.6 102.5 155.3 102.1C155 101.7 154.6 101.4 154.2 101.4C153.8 101.4 153.4 101.6 153.1 102.1C152.8 102.5 152.6 103.2 152.6 103.8Z" fill="#A6A6A6"/>
<path d="M57.4 117.2H29.4C24.9817 117.2 21.4 120.782 21.4 125.2V153.2C21.4 157.618 24.9817 161.2 29.4 161.2H57.4C61.8183 161.2 65.4 157.618 65.4 153.2V125.2C65.4 120.782 61.8183 117.2 57.4 117.2Z" fill="#FFD8D0"/>
<path d="M55.6 135.4V157.1C55.6 158.4 52.9 159.2 43.8 159.2C34.7 159.2 32.1 158.4 32.1 157.1V135.4C32.1 129.6 38.5 125.9 38.5 124.7C38.5 123.5 38.5 120.3 38.5 120.3H49.2C49.2 120.3 49.2 123.5 49.2 124.7C49.2 125.9 55.6 129.6 55.6 135.4Z" fill="white"/>
<path d="M49.9 118.4H37.9V122.1H49.9V118.4Z" fill="#37474F"/>
<path d="M55.6 141.2H32.1V152.9H55.6V141.2Z" fill="#37474F"/>
<path d="M34.9 165.1C35 165.1 35.1 165.2 35.1 165.3V165.6C35.7 165.6 36.1 165.8 36.5 166.2C36.6 166.3 36.6 166.3 36.6 166.4C36.6 166.5 36.5 166.6 36.4 166.6C36.4 166.6 36.3 166.6 36.3 166.5C35.9 166.2 35.5 166 35.1 166V168.2C36.3 168.5 36.8 168.9 36.8 169.7C36.8 170.5 36.1 171.1 35.1 171.2V171.8C35.1 171.9 35 172 34.9 172C34.8 172 34.7 171.9 34.7 171.8V171.2C34 171.1 33.4 170.9 32.9 170.4C32.8 170.4 32.8 170.3 32.8 170.2C32.8 170.1 32.9 170 33 170C33.1 170 33.1 170 33.1 170.1C33.5 170.5 34 170.8 34.7 170.8V168.5C33.5 168.2 33 167.8 33 167C33 166.2 33.7 165.6 34.7 165.6V165.3C34.7 165.2 34.8 165.1 34.9 165.1ZM34.8 168.1V165.9C34 165.9 33.5 166.4 33.5 167C33.5 167.5 33.7 167.9 34.8 168.1ZM35.1 168.6V170.8C35.9 170.8 36.4 170.3 36.4 169.7C36.4 169.2 36.1 168.8 35.1 168.6Z" fill="#A6A6A6"/>
<path d="M41.2 165.9L39.8 167.4C40.2 167.5 40.5 167.6 40.8 167.9C41.2 168.3 41.4 168.8 41.4 169.2C41.4 169.7 41.2 170.2 40.8 170.5C40.4 170.9 39.9 171.1 39.5 171.1C39 171.1 38.5 170.9 38.2 170.5C38.1 170.4 38.1 170.3 38.2 170.2C38.3 170.1 38.4 170.1 38.5 170.2C38.8 170.5 39.2 170.6 39.6 170.6C40 170.6 40.4 170.5 40.7 170.2C41 169.9 41.1 169.5 41.1 169.1C41.1 168.7 41 168.3 40.7 168C40.4 167.7 40 167.6 39.6 167.6C39.5 167.6 39.5 167.6 39.4 167.5C39.3 167.4 39.3 167.3 39.4 167.2L40.8 165.8H38.7C38.6 165.8 38.5 165.7 38.5 165.6C38.5 165.5 38.6 165.4 38.7 165.4H41.3C41.4 165.4 41.5 165.5 41.5 165.6C41.3 165.8 41.3 165.8 41.2 165.9C41.3 165.9 41.3 165.9 41.2 165.9Z" fill="#A6A6A6"/>
<path d="M43.4 170.4C43.6 170.4 43.8 170.6 43.8 170.8C43.8 171 43.6 171.2 43.4 171.2C43.2 171.2 43 171 43 170.8C43 170.5 43.1 170.4 43.4 170.4Z" fill="#A6A6A6"/>
<path d="M44.5 168.4C44.5 167.6 44.7 167 45 166.4C45.3 165.9 45.8 165.6 46.4 165.6C47 165.6 47.5 165.9 47.8 166.4C48.1 166.9 48.3 167.6 48.3 168.4C48.3 169.2 48.1 169.8 47.8 170.4C47.5 170.9 47 171.2 46.4 171.2C45.8 171.2 45.3 170.9 45 170.4C44.7 169.8 44.5 169.1 44.5 168.4ZM44.9 168.4C44.9 169.1 45.1 169.7 45.4 170.1C45.7 170.5 46.1 170.8 46.5 170.8C46.9 170.8 47.3 170.6 47.6 170.1C47.9 169.7 48.1 169.1 48.1 168.4C48.1 167.7 47.9 167.1 47.6 166.7C47.3 166.3 46.9 166 46.5 166C46.1 166 45.7 166.2 45.4 166.7C45.1 167.1 44.9 167.7 44.9 168.4Z" fill="#A6A6A6"/>
<path d="M50.2 168.4C50.2 167.6 50.4 167 50.7 166.4C51 165.9 51.5 165.6 52.1 165.6C52.7 165.6 53.2 165.9 53.5 166.4C53.8 166.9 54 167.6 54 168.4C54 169.2 53.8 169.8 53.5 170.4C53.2 170.9 52.7 171.2 52.1 171.2C51.5 171.2 51 170.9 50.7 170.4C50.4 169.8 50.2 169.1 50.2 168.4ZM50.6 168.4C50.6 169.1 50.8 169.7 51.1 170.1C51.4 170.5 51.8 170.8 52.2 170.8C52.6 170.8 53 170.6 53.3 170.1C53.6 169.7 53.8 169.1 53.8 168.4C53.8 167.7 53.6 167.1 53.3 166.7C53 166.3 52.6 166 52.2 166C51.8 166 51.4 166.2 51.1 166.7C50.8 167.1 50.6 167.7 50.6 168.4Z" fill="#A6A6A6"/>
<path d="M109.4 117.2H81.4C76.9817 117.2 73.4 120.782 73.4 125.2V153.2C73.4 157.618 76.9817 161.2 81.4 161.2H109.4C113.818 161.2 117.4 157.618 117.4 153.2V125.2C117.4 120.782 113.818 117.2 109.4 117.2Z" fill="#FFD8D0"/>
<path d="M104.7 126.7H86.4V159.2H104.7V126.7Z" fill="white"/>
<path d="M104.7 126.7H86.4V159.2H104.7V126.7Z" fill="white"/>
<path d="M104.7 138.7H86.4V152.4H104.7V138.7Z" fill="#455A64"/>
<path d="M104.7 126.7H86.4L88.7 122.2H102.5L104.7 126.7Z" fill="white"/>
<path d="M104.7 126.7H86.4L88.7 122.2H102.5L104.7 126.7Z" fill="#DBDBDB"/>
<path d="M102.4 118.4H88.6V122.2H102.4V118.4Z" fill="white"/>
<path d="M87.1 165.1C87.2 165.1 87.3 165.2 87.3 165.3V165.6C87.9 165.6 88.3 165.8 88.7 166.2C88.8 166.3 88.8 166.3 88.8 166.4C88.8 166.5 88.7 166.6 88.6 166.6C88.6 166.6 88.5 166.6 88.5 166.5C88.1 166.2 87.7 166 87.3 166V168.2C88.5 168.5 89 168.9 89 169.7C89 170.5 88.3 171.1 87.3 171.2V171.8C87.3 171.9 87.2 172 87.1 172C87 172 86.9 171.9 86.9 171.8V171.2C86.2 171.1 85.6 170.9 85.1 170.4C85 170.4 85 170.3 85 170.2C85 170.1 85.1 170 85.2 170C85.3 170 85.3 170 85.3 170.1C85.7 170.5 86.2 170.8 86.9 170.8V168.5C85.7 168.2 85.2 167.8 85.2 167C85.2 166.2 85.9 165.6 86.9 165.6V165.3C86.9 165.2 87 165.1 87.1 165.1ZM86.9 168.1V165.9C86.1 165.9 85.6 166.4 85.6 167C85.6 167.5 85.9 167.9 86.9 168.1ZM87.2 168.6V170.8C88 170.8 88.5 170.3 88.5 169.7C88.6 169.2 88.3 168.8 87.2 168.6Z" fill="#A6A6A6"/>
<path d="M90 170.8L92.6 168.4C92.9 168.1 93.1 167.7 93.1 167.3C93.1 167 93 166.6 92.7 166.3C92.4 166 92 165.8 91.6 165.8C91.2 165.8 90.9 165.9 90.6 166.2L90.3 166.4C90.2 166.5 90.1 166.5 90 166.4C89.9 166.3 89.9 166.2 90 166.1L90.3 165.8C90.7 165.5 91.1 165.3 91.5 165.3C92 165.3 92.5 165.5 92.8 165.9C93.1 166.3 93.3 166.7 93.3 167.1C93.3 167.6 93.1 168.1 92.7 168.5L90.5 170.5H93.1C93.2 170.5 93.3 170.6 93.3 170.7C93.3 170.8 93.2 170.9 93.1 170.9H90C89.9 170.9 89.9 170.9 89.9 170.8C89.9 171 89.9 170.9 90 170.8Z" fill="#A6A6A6"/>
<path d="M95.3 170.4C95.5 170.4 95.7 170.6 95.7 170.8C95.7 171 95.5 171.2 95.3 171.2C95.1 171.2 94.9 171 94.9 170.8C94.9 170.5 95.1 170.4 95.3 170.4Z" fill="#A6A6A6"/>
<path d="M96.7 170.6C96.6 170.5 96.6 170.4 96.7 170.3C96.8 170.2 96.9 170.2 97 170.3C97.3 170.6 97.7 170.7 98.1 170.7C98.5 170.7 98.9 170.6 99.2 170.3C99.5 170 99.6 169.6 99.6 169.2C99.6 168.8 99.5 168.4 99.2 168.1C98.9 167.8 98.5 167.7 98.1 167.7C97.7 167.7 97.3 167.8 97 168.1C96.9 168.2 96.8 168.2 96.7 168.1C96.7 168.1 96.7 168.1 96.7 168C96.7 168 96.7 168 96.7 167.9L97 165.6C97 165.5 97 165.5 97.1 165.5H97.2H99.8C99.9 165.5 100 165.6 100 165.7C100 165.8 99.9 165.9 99.8 165.9H97.4L97.2 167.6C97.5 167.4 97.8 167.3 98.2 167.3C98.7 167.3 99.2 167.5 99.5 167.9C99.9 168.3 100.1 168.7 100.1 169.2C100.1 169.7 99.9 170.2 99.5 170.5C99.1 170.9 98.6 171.1 98.2 171.1C97.5 171.2 97 171 96.7 170.6Z" fill="#A6A6A6"/>
<path d="M101.5 168.4C101.5 167.6 101.7 167 102 166.4C102.3 165.9 102.8 165.6 103.4 165.6C104 165.6 104.5 165.9 104.8 166.4C105.1 166.9 105.3 167.6 105.3 168.4C105.3 169.2 105.1 169.8 104.8 170.4C104.5 170.9 104 171.2 103.4 171.2C102.8 171.2 102.3 170.9 102 170.4C101.7 169.8 101.5 169.1 101.5 168.4ZM101.9 168.4C101.9 169.1 102.1 169.7 102.4 170.1C102.7 170.5 103.1 170.8 103.5 170.8C103.9 170.8 104.3 170.6 104.6 170.1C104.9 169.7 105.1 169.1 105.1 168.4C105.1 167.7 104.9 167.1 104.6 166.7C104.3 166.3 103.9 166 103.5 166C103.1 166 102.7 166.2 102.4 166.7C102.1 167.1 101.9 167.7 101.9 168.4Z" fill="#A6A6A6"/>
<path d="M161.3 117.2H133.3C128.882 117.2 125.3 120.782 125.3 125.2V153.2C125.3 157.618 128.882 161.2 133.3 161.2H161.3C165.718 161.2 169.3 157.618 169.3 153.2V125.2C169.3 120.782 165.718 117.2 161.3 117.2Z" fill="#FFD8D0"/>
<path d="M155.8 135.4V157.1C155.8 158.4 153.9 159.2 147.3 159.2C140.8 159.2 138.8 158.4 138.8 157.1V135.4C138.8 129.6 143.4 125.9 143.4 124.7C143.4 123.6 143.4 120.3 143.4 120.3H151.1C151.1 120.3 151.1 123.5 151.1 124.7C151.2 125.9 155.8 129.6 155.8 135.4Z" fill="white"/>
<path d="M151.6 118.4H143V122.1H151.6V118.4Z" fill="#455A64"/>
<path d="M153.3 142.8H141.2V151.2H153.3V142.8Z" fill="#DBDBDB"/>
<path d="M138.5 165.1C138.6 165.1 138.7 165.2 138.7 165.3V165.6C139.3 165.6 139.7 165.8 140.1 166.2C140.2 166.3 140.2 166.3 140.2 166.4C140.2 166.5 140.1 166.6 140 166.6C140 166.6 139.9 166.6 139.9 166.5C139.5 166.2 139.1 166 138.7 166V168.2C139.9 168.5 140.4 168.9 140.4 169.7C140.4 170.5 139.7 171.1 138.7 171.2V171.8C138.7 171.9 138.6 172 138.5 172C138.4 172 138.3 171.9 138.3 171.8V171.2C137.6 171.1 137 170.9 136.5 170.4C136.4 170.4 136.4 170.3 136.4 170.2C136.4 170.1 136.5 170 136.6 170C136.7 170 136.7 170 136.7 170.1C137.1 170.5 137.6 170.8 138.3 170.8V168.5C137.1 168.2 136.6 167.8 136.6 167C136.6 166.2 137.3 165.6 138.3 165.6V165.3C138.3 165.2 138.4 165.1 138.5 165.1ZM138.3 168.1V165.9C137.5 165.9 137 166.4 137 167C137 167.5 137.3 167.9 138.3 168.1ZM138.6 168.6V170.8C139.4 170.8 139.9 170.3 139.9 169.7C140 169.2 139.7 168.8 138.6 168.6Z" fill="#A6A6A6"/>
<path d="M141.4 170.8L144 168.4C144.3 168.1 144.5 167.7 144.5 167.3C144.5 167 144.4 166.6 144.1 166.3C143.8 166 143.4 165.8 143 165.8C142.6 165.8 142.3 165.9 142 166.2L141.7 166.4C141.6 166.5 141.5 166.5 141.4 166.4C141.3 166.3 141.3 166.2 141.4 166.1L141.7 165.8C142.1 165.5 142.5 165.3 142.9 165.3C143.4 165.3 143.9 165.5 144.2 165.9C144.5 166.3 144.7 166.7 144.7 167.1C144.7 167.6 144.5 168.1 144.1 168.5L141.9 170.5H144.5C144.6 170.5 144.7 170.6 144.7 170.7C144.7 170.8 144.6 170.9 144.5 170.9H141.4C141.3 170.9 141.3 170.9 141.3 170.8C141.3 171 141.3 170.9 141.4 170.8Z" fill="#A6A6A6"/>
<path d="M146.7 170.4C146.9 170.4 147.1 170.6 147.1 170.8C147.1 171 146.9 171.2 146.7 171.2C146.5 171.2 146.3 171 146.3 170.8C146.3 170.5 146.5 170.4 146.7 170.4Z" fill="#A6A6A6"/>
<path d="M147.9 168.4C147.9 167.6 148.1 167 148.4 166.4C148.7 165.9 149.2 165.6 149.8 165.6C150.4 165.6 150.9 165.9 151.2 166.4C151.5 166.9 151.7 167.6 151.7 168.4C151.7 169.2 151.5 169.8 151.2 170.4C150.9 170.9 150.4 171.2 149.8 171.2C149.2 171.2 148.7 170.9 148.4 170.4C148.1 169.8 147.9 169.1 147.9 168.4ZM148.3 168.4C148.3 169.1 148.5 169.7 148.8 170.1C149.1 170.5 149.5 170.8 149.9 170.8C150.3 170.8 150.7 170.6 151 170.1C151.3 169.7 151.5 169.1 151.5 168.4C151.5 167.7 151.3 167.1 151 166.7C150.7 166.3 150.3 166 149.9 166C149.5 166 149.1 166.2 148.8 166.7C148.4 167.1 148.3 167.7 148.3 168.4Z" fill="#A6A6A6"/>
<path d="M153.5 168.4C153.5 167.6 153.7 167 154 166.4C154.3 165.9 154.8 165.6 155.4 165.6C156 165.6 156.5 165.9 156.8 166.4C157.1 166.9 157.3 167.6 157.3 168.4C157.3 169.2 157.1 169.8 156.8 170.4C156.5 170.9 156 171.2 155.4 171.2C154.8 171.2 154.3 170.9 154 170.4C153.7 169.8 153.5 169.1 153.5 168.4ZM153.9 168.4C153.9 169.1 154.1 169.7 154.4 170.1C154.7 170.5 155.1 170.8 155.5 170.8C155.9 170.8 156.3 170.6 156.6 170.1C156.9 169.7 157.1 169.1 157.1 168.4C157.1 167.7 156.9 167.1 156.6 166.7C156.3 166.3 155.9 166 155.5 166C155.1 166 154.7 166.2 154.4 166.7C154.1 167.1 153.9 167.7 153.9 168.4Z" fill="#A6A6A6"/>
<path d="M57.4 199.5H29.4C24.9817 199.5 21.4 203.082 21.4 207.5V235.5C21.4 239.918 24.9817 243.5 29.4 243.5H57.4C61.8183 243.5 65.4 239.918 65.4 235.5V207.5C65.4 203.082 61.8183 199.5 57.4 199.5Z" fill="#FFD8D0"/>
<path d="M33.2 222.2C33.2 229.9 36.3 242 36.7 242H49.6C50 242 54.4 231.7 54.4 221.3C54.4 210.5 46.9 208.6 46.9 207.9V206C46.9 204.9 46.9 203.6 46.9 203.6H39.3C39.3 203.6 39.3 204.8 39.3 206V207.8C39.3 208.6 33.2 212.6 33.2 222.2ZM47.7 211.4C51.4 211.4 54.4 221.5 51.7 222.5C47.9 223.9 44.3 211.4 47.7 211.4Z" fill="white"/>
<path d="M44.1 211.4C44.3 208.8 38.6 209.4 36.2 217.9C34.4 224.3 36.4 237.6 42.8 237.6C50.4 237.6 50.9 226.4 50.4 225.9C50 225.4 43.2 223 44.1 211.4Z" fill="#EBEBEB"/>
<path d="M37.8 206H48.5L47.8 201.3H38.5L37.8 206Z" fill="#455A64"/>
<path d="M34.9 249C35 249 35.1 249.1 35.1 249.2V249.5C35.7 249.5 36.1 249.7 36.5 250.1C36.6 250.2 36.6 250.2 36.6 250.3C36.6 250.4 36.5 250.5 36.4 250.5C36.4 250.5 36.3 250.5 36.3 250.4C35.9 250.1 35.5 249.9 35.1 249.9V252.1C36.3 252.4 36.8 252.8 36.8 253.6C36.8 254.4 36.1 255 35.1 255.1V255.7C35.1 255.8 35 255.9 34.9 255.9C34.8 255.9 34.7 255.8 34.7 255.7V255.1C34 255 33.4 254.8 32.9 254.3C32.8 254.3 32.8 254.2 32.8 254.1C32.8 254 32.9 253.9 33 253.9C33.1 253.9 33.1 253.9 33.1 254C33.5 254.4 34 254.7 34.7 254.7V252.4C33.5 252.1 33 251.7 33 250.9C33 250.1 33.7 249.5 34.7 249.5V249.2C34.8 249.1 34.8 249 34.9 249ZM34.8 252.1V249.9C34 249.9 33.5 250.4 33.5 251C33.5 251.5 33.7 251.8 34.8 252.1ZM35.1 252.6V254.8C35.9 254.8 36.4 254.3 36.4 253.7C36.4 253.1 36.2 252.8 35.1 252.6Z" fill="#A6A6A6"/>
<path d="M38 254.6C37.9 254.5 37.9 254.4 38 254.3C38.1 254.2 38.2 254.2 38.3 254.3C38.6 254.6 39 254.7 39.4 254.7C39.8 254.7 40.2 254.6 40.5 254.3C40.8 254 40.9 253.6 40.9 253.2C40.9 252.8 40.8 252.4 40.5 252.1C40.2 251.8 39.8 251.7 39.4 251.7C39 251.7 38.6 251.8 38.3 252.1C38.2 252.2 38.1 252.2 38 252.1C38 252.1 38 252.1 38 252C38 252 38 252 38 251.9L38.3 249.6C38.3 249.5 38.3 249.5 38.4 249.5H38.5H41.1C41.2 249.5 41.3 249.6 41.3 249.7C41.3 249.8 41.2 249.9 41.1 249.9H38.7L38.5 251.6C38.8 251.4 39.1 251.3 39.5 251.3C40 251.3 40.5 251.5 40.8 251.9C41.2 252.3 41.4 252.7 41.4 253.2C41.4 253.7 41.2 254.2 40.8 254.5C40.4 254.9 39.9 255.1 39.5 255.1C38.9 255.1 38.4 255 38 254.6Z" fill="#A6A6A6"/>
<path d="M43.3 254.3C43.5 254.3 43.7 254.5 43.7 254.7C43.7 254.9 43.5 255.1 43.3 255.1C43.1 255.1 42.9 254.9 42.9 254.7C42.9 254.5 43.1 254.3 43.3 254.3Z" fill="#A6A6A6"/>
<path d="M44.5 252.3C44.5 251.5 44.7 250.9 45 250.3C45.3 249.8 45.8 249.5 46.4 249.5C47 249.5 47.5 249.8 47.8 250.3C48.1 250.8 48.3 251.5 48.3 252.3C48.3 253.1 48.1 253.7 47.8 254.3C47.5 254.8 47 255.1 46.4 255.1C45.8 255.1 45.3 254.8 45 254.3C44.7 253.8 44.5 253.1 44.5 252.3ZM44.9 252.3C44.9 253 45.1 253.6 45.4 254C45.7 254.4 46.1 254.7 46.5 254.7C46.9 254.7 47.3 254.5 47.6 254C47.9 253.6 48.1 253 48.1 252.3C48.1 251.6 47.9 251 47.6 250.6C47.3 250.2 46.9 249.9 46.5 249.9C46.1 249.9 45.7 250.1 45.4 250.6C45.1 251 44.9 251.7 44.9 252.3Z" fill="#A6A6A6"/>
<path d="M50.2 252.3C50.2 251.5 50.4 250.9 50.7 250.3C51 249.8 51.5 249.5 52.1 249.5C52.7 249.5 53.2 249.8 53.5 250.3C53.8 250.8 54 251.5 54 252.3C54 253.1 53.8 253.7 53.5 254.3C53.2 254.8 52.7 255.1 52.1 255.1C51.5 255.1 51 254.8 50.7 254.3C50.3 253.8 50.2 253.1 50.2 252.3ZM50.5 252.3C50.5 253 50.7 253.6 51 254C51.3 254.4 51.7 254.7 52.1 254.7C52.5 254.7 52.9 254.5 53.2 254C53.5 253.6 53.7 253 53.7 252.3C53.7 251.6 53.5 251 53.2 250.6C52.9 250.2 52.5 249.9 52.1 249.9C51.7 249.9 51.3 250.1 51 250.6C50.7 251 50.5 251.7 50.5 252.3Z" fill="#A6A6A6"/>
<path d="M109.4 199.5H81.4C76.9817 199.5 73.4 203.082 73.4 207.5V235.5C73.4 239.918 76.9817 243.5 81.4 243.5H109.4C113.818 243.5 117.4 239.918 117.4 235.5V207.5C117.4 203.082 113.818 199.5 109.4 199.5Z" fill="#FFD8D0"/>
<path d="M108.1 235.4H82.8C80.3 235.4 78.2 233.4 78.2 230.8V215.5C78.2 213 80.2 210.9 82.8 210.9H108.1C110.6 210.9 112.7 212.9 112.7 215.5V230.8C112.7 233.3 110.6 235.4 108.1 235.4Z" fill="white"/>
<path d="M108.8 207.9H82.2V211H108.8V207.9Z" fill="#455A64"/>
<path d="M112.8 216.9H78.2V229.5H112.8V216.9Z" fill="#455A64"/>
<path d="M106 223.1C106 226 101.3 228.4 95.5 228.4C89.7 228.4 85 226 85 223.1C85 220.2 89.7 217.8 95.5 217.8C101.3 217.8 106 220.2 106 223.1Z" fill="white"/>
<path d="M86.8 249C86.9 249 87 249.1 87 249.2V249.5C87.6 249.5 88 249.7 88.4 250.1C88.5 250.2 88.5 250.2 88.5 250.3C88.5 250.4 88.4 250.5 88.3 250.5C88.3 250.5 88.2 250.5 88.2 250.4C87.8 250.1 87.4 249.9 87 249.9V252.1C88.2 252.4 88.7 252.8 88.7 253.6C88.7 254.4 88 255 87 255.1V255.7C87 255.8 86.9 255.9 86.8 255.9C86.7 255.9 86.6 255.8 86.6 255.7V255.1C85.9 255 85.3 254.8 84.8 254.3C84.7 254.3 84.7 254.2 84.7 254.1C84.7 254 84.8 253.9 84.9 253.9C85 253.9 85 253.9 85 254C85.4 254.4 85.9 254.7 86.6 254.7V252.4C85.4 252.1 84.9 251.7 84.9 250.9C84.9 250.1 85.6 249.5 86.6 249.5V249.2C86.6 249.1 86.7 249 86.8 249ZM86.6 252.1V249.9C85.8 249.9 85.3 250.4 85.3 251C85.3 251.5 85.6 251.8 86.6 252.1ZM87 252.6V254.8C87.8 254.8 88.3 254.3 88.3 253.7C88.3 253.1 88 252.8 87 252.6Z" fill="#A6A6A6"/>
<path d="M92.9 254H89.9H89.8C89.7 253.9 89.7 253.8 89.8 253.7L93 249.7C93.1 249.6 93.2 249.6 93.3 249.7C93.3 249.7 93.3 249.8 93.4 249.8V253.6H93.8C93.9 253.6 94 253.7 94 253.8C94 253.9 93.9 254 93.8 254H93.4V255C93.4 255.1 93.3 255.2 93.2 255.2C93.1 255.2 93 255.1 93 255V254H92.9ZM92.9 253.6V250.3L90.3 253.6H92.9Z" fill="#A6A6A6"/>
<path d="M95.6 254.3C95.8 254.3 96 254.5 96 254.7C96 254.9 95.8 255.1 95.6 255.1C95.4 255.1 95.2 254.9 95.2 254.7C95.2 254.5 95.4 254.3 95.6 254.3Z" fill="#A6A6A6"/>
<path d="M97 254.6C96.9 254.5 96.9 254.4 97 254.3C97.1 254.2 97.2 254.2 97.3 254.3C97.6 254.6 98 254.7 98.4 254.7C98.8 254.7 99.2 254.6 99.5 254.3C99.8 254 99.9 253.6 99.9 253.2C99.9 252.8 99.8 252.4 99.5 252.1C99.2 251.8 98.8 251.7 98.4 251.7C98 251.7 97.6 251.8 97.3 252.1C97.2 252.2 97.1 252.2 97 252.1C97 252.1 97 252.1 97 252C97 252 97 252 97 251.9L97.3 249.6C97.3 249.5 97.3 249.5 97.4 249.5H97.5H100.1C100.2 249.5 100.3 249.6 100.3 249.7C100.3 249.8 100.2 249.9 100.1 249.9H97.7L97.5 251.6C97.8 251.4 98.1 251.3 98.5 251.3C99 251.3 99.5 251.5 99.8 251.9C100.2 252.3 100.4 252.7 100.4 253.2C100.4 253.7 100.2 254.2 99.8 254.5C99.4 254.9 98.9 255.1 98.5 255.1C97.8 255.1 97.3 255 97 254.6Z" fill="#A6A6A6"/>
<path d="M101.8 252.3C101.8 251.5 102 250.9 102.3 250.3C102.6 249.8 103.1 249.5 103.7 249.5C104.3 249.5 104.8 249.8 105.1 250.3C105.4 250.8 105.6 251.5 105.6 252.3C105.6 253.1 105.4 253.7 105.1 254.3C104.8 254.8 104.3 255.1 103.7 255.1C103.1 255.1 102.6 254.8 102.3 254.3C102 253.8 101.8 253.1 101.8 252.3ZM102.2 252.3C102.2 253 102.4 253.6 102.7 254C103 254.4 103.4 254.7 103.8 254.7C104.2 254.7 104.6 254.5 104.9 254C105.2 253.6 105.4 253 105.4 252.3C105.4 251.6 105.2 251 104.9 250.6C104.6 250.2 104.2 249.9 103.8 249.9C103.4 249.9 103 250.1 102.7 250.6C102.4 251 102.2 251.7 102.2 252.3Z" fill="#A6A6A6"/>
<path d="M161.3 199.5H133.3C128.882 199.5 125.3 203.082 125.3 207.5V235.5C125.3 239.918 128.882 243.5 133.3 243.5H161.3C165.718 243.5 169.3 239.918 169.3 235.5V207.5C169.3 203.082 165.718 199.5 161.3 199.5Z" fill="#FFD8D0"/>
<path d="M157.7 227.3C157.7 231.4 157.7 239 157.7 239H136.8C136.8 239 136.8 231.4 136.8 227.3C136.8 223.2 137.7 212.5 147.2 212.5C156.8 212.5 157.7 223.2 157.7 227.3Z" fill="white"/>
<path d="M158.3 240.6H136.2C135.6 240.6 135.1 240.1 135.1 239.5C135.1 238.9 135.6 238.4 136.2 238.4H158.3C158.9 238.4 159.4 238.9 159.4 239.5C159.4 240.1 158.9 240.6 158.3 240.6Z" fill="white"/>
<path d="M150.6 210.1H144V215.1H150.6V210.1Z" fill="white"/>
<path d="M151.3 207.7H143.2V211H151.3V207.7Z" fill="#455A64"/>
<path d="M148.8 204.5H145.8V208.3H148.8V204.5Z" fill="#455A64"/>
<path d="M144.2 203.1C143.4 203.7 143.1 204.9 144.3 205.6C145.3 206.2 150.6 204.9 151.2 204.9C151.8 205 153.1 205.6 153.3 205.6C153.5 205.6 154.1 205.3 154 205C154 204.7 152.2 203.4 150.8 203.1C149.4 202.8 145.3 202.3 144.2 203.1Z" fill="#455A64"/>
<path d="M138.7 249C138.8 249 138.9 249.1 138.9 249.2V249.5C139.5 249.5 139.9 249.7 140.3 250.1C140.4 250.2 140.4 250.2 140.4 250.3C140.4 250.4 140.3 250.5 140.2 250.5C140.2 250.5 140.1 250.5 140.1 250.4C139.7 250.1 139.3 249.9 138.9 249.9V252.1C140.1 252.4 140.6 252.8 140.6 253.6C140.6 254.4 139.9 255 138.9 255.1V255.7C138.9 255.8 138.8 255.9 138.7 255.9C138.6 255.9 138.5 255.8 138.5 255.7V255.1C137.8 255 137.2 254.8 136.7 254.3C136.6 254.3 136.6 254.2 136.6 254.1C136.6 254 136.7 253.9 136.8 253.9C136.9 253.9 136.9 253.9 136.9 254C137.3 254.4 137.8 254.7 138.5 254.7V252.4C137.3 252.1 136.8 251.7 136.8 250.9C136.8 250.1 137.5 249.5 138.5 249.5V249.2C138.5 249.1 138.6 249 138.7 249ZM138.5 252.1V249.9C137.7 249.9 137.2 250.4 137.2 251C137.3 251.5 137.5 251.8 138.5 252.1ZM138.9 252.6V254.8C139.7 254.8 140.2 254.3 140.2 253.7C140.2 253.1 139.9 252.8 138.9 252.6Z" fill="#A6A6A6"/>
<path d="M145 249.9L143.6 251.4C144 251.5 144.3 251.6 144.6 251.9C145 252.3 145.2 252.8 145.2 253.2C145.2 253.7 145 254.2 144.6 254.5C144.2 254.9 143.7 255.1 143.3 255.1C142.8 255.1 142.3 254.9 142 254.5C141.9 254.4 141.9 254.3 142 254.2C142.1 254.1 142.2 254.1 142.3 254.2C142.6 254.5 143 254.6 143.4 254.6C143.8 254.6 144.2 254.5 144.5 254.2C144.8 253.9 144.9 253.5 144.9 253.1C144.9 252.7 144.8 252.3 144.5 252C144.2 251.7 143.8 251.6 143.4 251.6C143.3 251.6 143.3 251.6 143.2 251.5C143.1 251.4 143.1 251.3 143.2 251.2L144.6 249.8H142.5C142.4 249.8 142.3 249.7 142.3 249.6C142.3 249.5 142.4 249.4 142.5 249.4H145.1C145.2 249.4 145.3 249.5 145.3 249.6C145.1 249.8 145.1 249.8 145 249.9C145 249.9 145.1 249.9 145 249.9Z" fill="#A6A6A6"/>
<path d="M147.1 254.3C147.3 254.3 147.5 254.5 147.5 254.7C147.5 254.9 147.3 255.1 147.1 255.1C146.9 255.1 146.7 254.9 146.7 254.7C146.7 254.5 146.9 254.3 147.1 254.3Z" fill="#A6A6A6"/>
<path d="M148.5 254.6C148.4 254.5 148.4 254.4 148.5 254.3C148.6 254.2 148.7 254.2 148.8 254.3C149.1 254.6 149.5 254.7 149.9 254.7C150.3 254.7 150.7 254.6 151 254.3C151.3 254 151.4 253.6 151.4 253.2C151.4 252.8 151.3 252.4 151 252.1C150.7 251.8 150.3 251.7 149.9 251.7C149.5 251.7 149.1 251.8 148.8 252.1C148.7 252.2 148.6 252.2 148.5 252.1C148.5 252.1 148.5 252.1 148.5 252C148.5 252 148.5 252 148.5 251.9L148.8 249.6C148.8 249.5 148.8 249.5 148.9 249.5H149H151.6C151.7 249.5 151.8 249.6 151.8 249.7C151.8 249.8 151.7 249.9 151.6 249.9H149.2L149 251.6C149.3 251.4 149.6 251.3 150 251.3C150.5 251.3 151 251.5 151.3 251.9C151.7 252.3 151.9 252.7 151.9 253.2C151.9 253.7 151.7 254.2 151.3 254.5C150.9 254.9 150.4 255.1 150 255.1C149.3 255.1 148.9 255 148.5 254.6Z" fill="#A6A6A6"/>
<path d="M153.3 252.3C153.3 251.5 153.5 250.9 153.8 250.3C154.1 249.8 154.6 249.5 155.2 249.5C155.8 249.5 156.3 249.8 156.6 250.3C156.9 250.8 157.1 251.5 157.1 252.3C157.1 253.1 156.9 253.7 156.6 254.3C156.3 254.8 155.8 255.1 155.2 255.1C154.6 255.1 154.1 254.8 153.8 254.3C153.5 253.8 153.3 253.1 153.3 252.3ZM153.7 252.3C153.7 253 153.9 253.6 154.2 254C154.5 254.4 154.9 254.7 155.3 254.7C155.7 254.7 156.1 254.5 156.4 254C156.7 253.6 156.9 253 156.9 252.3C156.9 251.6 156.7 251 156.4 250.6C156.1 250.2 155.7 249.9 155.3 249.9C154.9 249.9 154.5 250.1 154.2 250.6C153.9 251 153.7 251.7 153.7 252.3Z" fill="#A6A6A6"/>
<path d="M133.5 294.9H57.6C52.0772 294.9 47.6 299.377 47.6 304.9V310.8C47.6 316.323 52.0772 320.8 57.6 320.8H133.5C139.023 320.8 143.5 316.323 143.5 310.8V304.9C143.5 299.377 139.023 294.9 133.5 294.9Z" fill="#263238"/>
<path d="M62.4 309.6H59.6L59 311.1C58.9 311.4 58.7 311.5 58.4 311.5C58.3 311.5 58.3 311.5 58.2 311.5C57.9 311.4 57.7 311 57.8 310.7L60.3 304C60.4 303.7 60.7 303.6 60.9 303.6C61.2 303.6 61.4 303.7 61.5 304L64 310.7C64.1 311 64 311.4 63.6 311.5C63.5 311.5 63.5 311.5 63.4 311.5C63.1 311.5 62.9 311.4 62.8 311.1L62.4 309.6ZM61.9 308.4L61 306L60.1 308.4H61.9Z" fill="white"/>
<path d="M65.7 310.9V304.2C65.7 303.8 66 303.6 66.3 303.6H67.6C69.8 303.6 71.6 305.4 71.6 307.6C71.6 309.8 69.8 311.6 67.6 311.6H66.3C65.9 311.5 65.7 311.2 65.7 310.9ZM66.9 310.2H67.6C69.1 310.2 70.3 309 70.3 307.5C70.3 306 69.1 304.8 67.6 304.8H66.9V310.2Z" fill="white"/>
<path d="M73.5 310.9V304.2C73.5 303.8 73.8 303.6 74.1 303.6H75.4C77.6 303.6 79.4 305.4 79.4 307.6C79.4 309.8 77.6 311.6 75.4 311.6H74.1C73.8 311.5 73.5 311.2 73.5 310.9ZM74.8 310.2H75.5C77 310.2 78.2 309 78.2 307.5C78.2 306 77 304.8 75.5 304.8H74.8V310.2Z" fill="white"/>
<path d="M90 304.8H88.2V310.9C88.2 311.3 87.9 311.5 87.6 311.5C87.3 311.5 87 311.2 87 310.9V304.8H85.2C84.8 304.8 84.6 304.5 84.6 304.2C84.6 303.8 84.9 303.6 85.2 303.6H90.1C90.4 303.6 90.7 303.9 90.7 304.2C90.6 304.5 90.3 304.8 90 304.8Z" fill="white"/>
<path d="M98.2 304.5C98.9 305.3 99.3 306.3 99.3 307.4C99.3 308.5 98.9 309.5 98.2 310.3C97.5 311 96.5 311.5 95.5 311.5C94.4 311.5 93.4 311 92.7 310.3C92 309.6 91.6 308.5 91.6 307.4C91.6 306.3 92 305.3 92.7 304.5C93.4 303.7 94.4 303.3 95.5 303.3C96.5 303.3 97.5 303.8 98.2 304.5ZM98 307.4C98 306.6 97.7 305.9 97.2 305.4C96.7 304.9 96.1 304.6 95.4 304.6C94.7 304.6 94 304.9 93.6 305.4C93.1 305.9 92.8 306.6 92.8 307.4C92.8 308.2 93.1 308.9 93.6 309.4C94.1 309.9 94.7 310.2 95.4 310.2C96.1 310.2 96.7 309.9 97.2 309.4C97.7 308.9 98 308.2 98 307.4Z" fill="white"/>
<path d="M104.6 307.4C104.6 305.1 106.5 303.3 108.8 303.3C109.8 303.3 110.7 303.6 111.4 304.2C111.7 304.4 111.7 304.8 111.5 305.1C111.3 305.4 110.9 305.4 110.6 305.2C110.1 304.8 109.5 304.6 108.8 304.6C108 304.6 107.3 304.9 106.8 305.4C106.3 305.9 106 306.6 106 307.4C106 308.2 106.3 308.9 106.8 309.4C107.3 309.9 108.1 310.2 108.8 310.2C109.5 310.2 110.1 310 110.6 309.6C110.9 309.4 111.3 309.5 111.5 309.7C111.7 310 111.7 310.4 111.4 310.6C110.7 311.2 109.8 311.5 108.8 311.5C106.5 311.5 104.6 309.7 104.6 307.4Z" fill="white"/>
<path d="M117.6 309.6H114.8L114.2 311.1C114.1 311.4 113.9 311.5 113.6 311.5C113.5 311.5 113.5 311.5 113.4 311.5C113.1 311.4 112.9 311 113 310.7L115.5 304C115.6 303.7 115.9 303.6 116.1 303.6C116.4 303.6 116.6 303.7 116.7 304L119.2 310.7C119.3 311 119.2 311.4 118.8 311.5C118.7 311.5 118.7 311.5 118.6 311.5C118.3 311.5 118.1 311.4 118 311.1L117.6 309.6ZM117.2 308.4L116.3 306L115.4 308.4H117.2Z" fill="white"/>
<path d="M126.2 310.5C126.3 310.8 126.1 311.2 125.8 311.3C125.8 311.3 125.7 311.3 125.5 311.3C125.4 311.3 125.2 311.3 125.1 311.2C125 311.1 124.8 311 124.7 310.8C124.5 310.5 124.5 310.1 124.5 309.4C124.5 309.2 124.4 309 124.4 308.9C124.3 308.8 124.2 308.7 124.1 308.6C123.9 308.4 123.6 308.3 123.5 308.3H122V310.8C122 311.1 121.7 311.4 121.4 311.4C121 311.4 120.8 311.1 120.8 310.8V304.1C120.8 303.7 121.1 303.5 121.4 303.5H123.4C124.8 303.5 125.8 304.6 125.8 305.9C125.8 306.7 125.5 307.3 124.9 307.8C125 307.9 125.2 308.1 125.3 308.2C125.5 308.5 125.7 309 125.7 309.4C125.7 309.7 125.7 310 125.7 310.1C126 310.2 126.1 310.4 126.2 310.5ZM124.6 306C124.6 305.3 124.1 304.8 123.4 304.8H122V307.1H123.4C124.1 307.1 124.6 306.6 124.6 306Z" fill="white"/>
<path d="M132.7 304.8H130.9V310.9C130.9 311.3 130.6 311.5 130.3 311.5C130 311.5 129.7 311.2 129.7 310.9V304.8H127.9C127.5 304.8 127.3 304.5 127.3 304.2C127.3 303.8 127.6 303.6 127.9 303.6H132.8C133.1 303.6 133.4 303.9 133.4 304.2C133.3 304.5 133 304.8 132.7 304.8Z" fill="white"/>
</svg>
