<svg width="145" height="97" viewBox="0 0 145 97" fill="none" xmlns="http://www.w3.org/2000/svg">
<path d="M144.4 7.6L144.6 88.1C144.6 92.6 141 96.3 136.5 96.3L8.79999 96.6C4.29999 96.6 0.600006 93 0.600006 88.5L0.399994 8C0.399994 3.8 3.8 0.4 8 0.4L136.8 0C141 0 144.4 3.4 144.4 7.6Z" fill="#4A56E2"/>
<path d="M123.8 76.8C123.8 80.9 120.5 84.3 116.3 84.3C112.2 84.3 108.8 81 108.8 76.8C108.8 72.7 112.1 69.3 116.3 69.3C120.5 69.3 123.8 72.6 123.8 76.8Z" fill="#A6A6A6"/>
<path d="M133.1 76.8C133.1 80.9 129.8 84.3 125.6 84.3C121.5 84.3 118.1 81 118.1 76.8C118.1 72.7 121.4 69.3 125.6 69.3C129.7 69.3 133.1 72.6 133.1 76.8Z" fill="#FFC727"/>
<path d="M35.4 32.8001H16.8C14.5 32.8001 12.6 30.9001 12.6 28.6001V18.3001C12.6 16.0001 14.5 14.1001 16.8 14.1001H35.4C37.7 14.1001 39.6 16.0001 39.6 18.3001V28.6001C39.6 30.9001 37.7 32.8001 35.4 32.8001Z" fill="#FFC727"/>
<path d="M127.8 24.1H115.6C112.8 24.1 110.5 21.8 110.5 19C110.5 16.2 112.8 13.9 115.6 13.9H127.8C130.6 13.9 132.9 16.2 132.9 19C132.9 21.8 130.6 24.1 127.8 24.1Z" fill="white"/>
<path d="M11.7 49.9001L10.6 50.6001H10.5C10.4 50.6001 10.3 50.5001 10.3 50.5001C10.2 50.4001 10.3 50.2001 10.4 50.1001L11.9 49.2001C12 49.1001 12.2 49.2001 12.3 49.3001C12.3 49.4001 12.3 49.4001 12.3 49.5001V56.7001C12.3 56.8001 12.2 57.0001 12 57.0001C11.9 57.0001 11.7 56.9001 11.7 56.7001V49.9001Z" fill="#F8F8F8"/>
<path d="M14.1 56.4001L17.8 53.1001C18.2 52.7001 18.5 52.2001 18.5 51.6001C18.5 51.1001 18.3 50.6001 18 50.3001C17.6 49.9001 17.1 49.6001 16.5 49.6001C16 49.6001 15.5 49.8001 15.1 50.1001L14.7 50.4001C14.6 50.5001 14.4 50.5001 14.3 50.4001C14.2 50.3001 14.2 50.1001 14.3 50.0001L14.7 49.6001C15.2 49.2001 15.8 48.9001 16.4 48.9001C17.1 48.9001 17.8 49.2001 18.3 49.7001C18.8 50.2001 19 50.8001 19 51.4001C19 52.1001 18.7 52.8001 18.2 53.3001L15.1 56.1001H18.8C18.9 56.1001 19.1 56.2001 19.1 56.4001C19.1 56.5001 19 56.7001 18.8 56.7001H14.4C14.3 56.7001 14.2 56.7001 14.2 56.6001C14 56.7001 14 56.5001 14.1 56.4001Z" fill="#F8F8F8"/>
<path d="M25.5 49.5001L23.5 51.6001C24 51.7001 24.5 51.9001 24.8 52.3001C25.3 52.8001 25.6 53.5001 25.6 54.2001C25.6 54.9001 25.3 55.6001 24.8 56.1001C24.3 56.6001 23.6 56.9001 22.9 56.9001C22.2 56.9001 21.5 56.6001 21 56.1001C20.9 56.0001 20.9 55.8001 21 55.7001C21.1 55.6001 21.3 55.6001 21.4 55.7001C21.8 56.1001 22.3 56.3001 22.9 56.3001C23.4 56.3001 24 56.1001 24.4 55.7001C24.8 55.3001 25 54.7001 25 54.2001C25 53.7001 24.8 53.1001 24.4 52.7001C24 52.3001 23.5 52.1001 22.9 52.1001C22.8 52.1001 22.7 52.1001 22.7 52.0001C22.6 51.9001 22.6 51.7001 22.7 51.6001L24.6 49.6001H21.6C21.4 49.6001 21.3 49.5001 21.3 49.3001C21.3 49.1001 21.4 49.0001 21.6 49.0001H25.3C25.5 49.0001 25.6 49.1001 25.6 49.3001C25.6 49.3001 25.5 49.4001 25.5 49.5001Z" fill="#F8F8F8"/>
<path d="M32.1 55.2H27.9C27.8 55.2 27.8 55.2 27.7 55.1C27.6 55 27.6 54.8 27.7 54.7L32.2 49C32.3 48.9 32.5 48.9 32.6 49L32.7 49.1V54.5H33.2C33.4 54.5 33.5 54.6 33.5 54.8C33.5 54.9 33.4 55.1 33.2 55.1H32.7V56.4001C32.7 56.5001 32.6 56.7 32.4 56.7C32.3 56.7 32.1 56.6001 32.1 56.4001V55.2ZM32.1 54.7V50.1L28.4 54.7H32.1Z" fill="#F8F8F8"/>
<path d="M41.9 56C41.8 55.9 41.8 55.7 41.9 55.6C42 55.5 42.2 55.5 42.3 55.6C42.7 56 43.2 56.2001 43.8 56.2001C44.3 56.2001 44.9 56 45.3 55.6C45.7 55.2 45.9 54.7 45.9 54.1C45.9 53.6 45.7 53 45.3 52.6C44.9 52.2 44.4 52 43.8 52C43.3 52 42.7 52.2 42.3 52.6C42.2 52.7 42 52.7 41.9 52.6L41.8 52.5V52.4001C41.8 52.4001 41.8 52.4 41.8 52.3L42.2 49.1C42.2 49 42.2 48.9001 42.3 48.9001C42.3 48.9001 42.4 48.8 42.5 48.8H46.2C46.4 48.8 46.5 48.9 46.5 49.1C46.5 49.3 46.4 49.4001 46.2 49.4001H42.8L42.5 51.7001C42.9 51.5001 43.4 51.3 43.8 51.3C44.5 51.3 45.2 51.5 45.7 52.1C46.2 52.6 46.5 53.3 46.5 54C46.5 54.7 46.3 55.4001 45.7 55.9001C45.2 56.4001 44.5 56.7001 43.8 56.7001C43.1 56.8001 42.4 56.6 41.9 56Z" fill="#F8F8F8"/>
<path d="M49.3 50.7001C49.8 49.7001 50.7 49.0001 52 49.0001C52.1 49.0001 52.3 49.1001 52.3 49.3001C52.3 49.5001 52.2 49.6001 52 49.6001C50.9 49.6001 50.2 50.2001 49.7 51.0001C49.4 51.5001 49.3 52.0001 49.1 52.6001C49.6 52.1001 50.3 51.7001 51 51.7001C52.4 51.7001 53.6 52.9001 53.6 54.3001C53.6 55.7001 52.5 56.9001 51 56.9001C49.6 56.9001 48.5 55.8001 48.4 54.4001C48.4 54.2001 48.4 54.1001 48.4 53.9001C48.6 52.7001 48.8 51.6001 49.3 50.7001ZM49.2 54.3001C49.2 54.4001 49.2 54.4001 49.2 54.4001V54.5001C49.3 55.5001 50.2 56.3001 51.2 56.3001C52.3 56.3001 53.3 55.4001 53.3 54.3001C53.3 53.2001 52.4 52.3001 51.2 52.3001C50.1 52.2001 49.2 53.1001 49.2 54.3001Z" fill="#F8F8F8"/>
<path d="M56.7 56.4001L59.6 49.5001H55.8C55.7 49.5001 55.5 49.4001 55.5 49.2001C55.5 49.1001 55.6 48.9001 55.8 48.9001H59.9C60 48.9001 60 48.9001 60.1 48.9001C60.2 48.9001 60.2 49.0001 60.2 49.1001V49.2001C60.2 49.3001 60.2 49.3001 60.2 49.3001L57.2 56.5001C57.2 56.6001 57.1 56.7001 57 56.7001H56.9C56.7 56.7001 56.6 56.5001 56.7 56.4001Z" fill="#F8F8F8"/>
<path d="M64.4 48.9001C65.3 48.9001 66 49.6001 66 50.5001C66 51.0001 65.7 51.5001 65.3 51.8001C66.2 52.2001 66.9 53.1001 66.9 54.1001C66.9 55.5001 65.8 56.6001 64.4 56.6001C63 56.6001 61.9 55.5001 61.9 54.1001C61.9 53.0001 62.5 52.1001 63.5 51.7001C63.1 51.4001 62.8 50.9001 62.8 50.4001C62.8 49.7001 63.5 48.9001 64.4 48.9001ZM64.4 56.2001C65.5 56.2001 66.4 55.3001 66.4 54.2001C66.4 53.1001 65.5 52.2001 64.4 52.2001C63.3 52.2001 62.4 53.1001 62.4 54.2001C62.4 55.3001 63.3 56.2001 64.4 56.2001ZM64.4 51.7001C65 51.7001 65.5 51.2001 65.5 50.6001C65.5 50.0001 65 49.5001 64.4 49.5001C63.8 49.5001 63.3 50.0001 63.3 50.6001C63.3 51.2001 63.8 51.6001 64.4 51.7001Z" fill="#F8F8F8"/>
<path d="M78.3 48.9001C79.6 48.9001 80.7 49.9001 80.9 51.2001C80.9 51.2001 80.9 51.2001 80.9 51.3001C80.9 51.5001 80.9 51.7001 80.9 52.0001C80.9 53.0001 80.7 54.2001 80.2 55.1001C79.7 56.0001 78.7 56.8001 77.5 56.8001C77.3 56.8001 77.2 56.7001 77.2 56.5001C77.2 56.3001 77.3 56.2001 77.5 56.2001C78.6 56.2001 79.3 55.6001 79.8 54.8001C80.1 54.3001 80.3 53.8001 80.4 53.2001C79.9 53.7001 79.2 54.1001 78.5 54.1001C77.1 54.1001 75.9 53.0001 75.9 51.5001C75.7 50.0001 76.9 48.9001 78.3 48.9001ZM80.4 51.5001C80.4 50.4001 79.5 49.5001 78.3 49.5001C77.2 49.5001 76.3 50.4001 76.3 51.5001C76.3 52.6001 77.2 53.5001 78.3 53.5001C79.5 53.5001 80.4 52.6001 80.4 51.5001Z" fill="#F8F8F8"/>
<path d="M82.9 52.8001C82.9 51.7001 83.2 50.8001 83.6 50.1001C84.1 49.4001 84.8 48.9001 85.6 48.9001C86.4 48.9001 87.1 49.4001 87.6 50.1001C88.1 50.8001 88.4 51.8001 88.4 52.8001C88.4 53.9001 88.1 54.8001 87.6 55.5001C87.1 56.2001 86.4 56.7001 85.6 56.7001C84.8 56.7001 84.1 56.2001 83.6 55.5001C83.2 54.8001 82.9 53.8001 82.9 52.8001ZM83.5 52.8001C83.5 53.8001 83.8 54.6001 84.2 55.2001C84.6 55.8001 85.1 56.1001 85.7 56.1001C86.3 56.1001 86.8 55.8001 87.2 55.2001C87.6 54.6001 87.9 53.7001 87.9 52.8001C87.9 51.8001 87.6 51.0001 87.2 50.4001C86.8 49.8001 86.3 49.5001 85.7 49.5001C85.1 49.5001 84.6 49.8001 84.2 50.4001C83.7 51.0001 83.5 51.8001 83.5 52.8001Z" fill="#F8F8F8"/>
<path d="M92 49.6001L90.9 50.3001H90.8C90.7 50.3001 90.6 50.2001 90.6 50.2001C90.5 50.1001 90.6 49.9001 90.7 49.8001L92.2 48.9001C92.3 48.8001 92.5 48.9001 92.6 49.0001C92.6 49.1001 92.6 49.1001 92.6 49.2001V56.4001C92.6 56.5001 92.5 56.7001 92.3 56.7001C92.2 56.7001 92 56.6001 92 56.4001V49.6001Z" fill="#F8F8F8"/>
<path d="M94.4 56.2001L98.1 52.9001C98.5 52.5001 98.8 52.0001 98.8 51.4001C98.8 50.9001 98.6 50.4001 98.3 50.1001C97.9 49.7001 97.4 49.4001 96.8 49.4001C96.3 49.4001 95.8 49.6001 95.4 49.9001L95 50.2001C94.9 50.3001 94.7 50.3001 94.6 50.2001C94.5 50.1001 94.5 49.9001 94.6 49.8001L95 49.4001C95.5 49.0001 96.1 48.7001 96.7 48.7001C97.4 48.7001 98.1 49.0001 98.6 49.5001C99.1 50.0001 99.3 50.6001 99.3 51.2001C99.3 51.9001 99 52.6001 98.5 53.1001L95.4 55.9001H99.1C99.2 55.9001 99.4 56.0001 99.4 56.2001C99.4 56.3001 99.3 56.5001 99.1 56.5001H94.7C94.6 56.5001 94.5 56.5001 94.5 56.4001C94.3 56.5001 94.3 56.3001 94.4 56.2001Z" fill="#F8F8F8"/>
<path d="M112.5 49.3L110.5 51.4001C111 51.5001 111.5 51.7 111.8 52.1C112.3 52.6 112.6 53.3 112.6 54C112.6 54.7 112.3 55.4001 111.8 55.9001C111.3 56.4001 110.6 56.7001 109.9 56.7001C109.2 56.7001 108.5 56.4001 108 55.9001C107.9 55.8001 107.9 55.6 108 55.5C108.1 55.4 108.3 55.4 108.4 55.5C108.8 55.9 109.3 56.1 109.9 56.1C110.4 56.1 111 55.9 111.4 55.5C111.8 55.1 112 54.5 112 54C112 53.5 111.8 52.9 111.4 52.5C111 52.1 110.5 51.9001 109.9 51.9001C109.8 51.9001 109.7 51.9 109.7 51.8C109.6 51.7 109.6 51.5001 109.7 51.4001L111.6 49.4001H108.6C108.4 49.4001 108.3 49.3 108.3 49.1C108.3 48.9 108.4 48.8 108.6 48.8H112.3C112.5 48.8 112.6 48.9 112.6 49.1C112.6 49.1 112.6 49.2 112.5 49.3C112.5 49.3 112.5 49.2 112.5 49.3Z" fill="#F8F8F8"/>
<path d="M119.1 55.0001H114.9C114.8 55.0001 114.8 55.0001 114.7 54.9001C114.6 54.8001 114.6 54.6001 114.7 54.5001L119.2 48.8001C119.3 48.7001 119.5 48.7001 119.6 48.8001L119.7 48.9001V54.3001H120.2C120.4 54.3001 120.5 54.4001 120.5 54.6001C120.5 54.7001 120.4 54.9001 120.2 54.9001H119.7V56.2001C119.7 56.3001 119.6 56.5001 119.4 56.5001C119.3 56.5001 119.1 56.4001 119.1 56.2001V55.0001ZM119.1 54.5001V49.9001L115.4 54.5001H119.1Z" fill="#F8F8F8"/>
<path d="M122.2 55.8001C122.1 55.7001 122.1 55.5001 122.2 55.4001C122.3 55.3001 122.5 55.3001 122.6 55.4001C123 55.8001 123.5 56.0001 124.1 56.0001C124.6 56.0001 125.2 55.8001 125.6 55.4001C126 55.0001 126.2 54.5001 126.2 53.9001C126.2 53.4001 126 52.8001 125.6 52.4001C125.2 52.0001 124.7 51.8001 124.1 51.8001C123.6 51.8001 123 52.0001 122.6 52.4001C122.5 52.5001 122.3 52.5001 122.2 52.4001L122.1 52.3001V52.2001C122.1 52.2001 122.1 52.2001 122.1 52.1001L122.5 48.9001C122.5 48.8001 122.5 48.7001 122.6 48.7001C122.6 48.7001 122.7 48.6001 122.8 48.6001H126.5C126.7 48.6001 126.8 48.7001 126.8 48.9001C126.8 49.1001 126.7 49.2001 126.5 49.2001H123.1L122.8 51.5001C123.2 51.3001 123.7 51.1001 124.1 51.1001C124.8 51.1001 125.5 51.3001 126 51.9001C126.5 52.4001 126.8 53.1001 126.8 53.8001C126.8 54.5001 126.6 55.2001 126 55.7001C125.5 56.2001 124.8 56.5001 124.1 56.5001C123.4 56.6001 122.7 56.4001 122.2 55.8001Z" fill="#F8F8F8"/>
<path d="M129.6 50.5C130.1 49.5 131 48.8 132.3 48.8C132.4 48.8 132.6 48.9 132.6 49.1C132.6 49.3 132.5 49.4001 132.3 49.4001C131.2 49.4001 130.5 50 130 50.8C129.7 51.3 129.6 51.8001 129.4 52.4001C129.9 51.9001 130.6 51.5 131.3 51.5C132.7 51.5 133.9 52.7 133.9 54.1C133.9 55.5 132.8 56.7001 131.3 56.7001C129.9 56.7001 128.8 55.6001 128.7 54.2001C128.7 54.0001 128.7 53.9001 128.7 53.7001C128.9 52.5001 129.1 51.4 129.6 50.5ZM129.5 54.1C129.5 54.2 129.5 54.2001 129.5 54.2001V54.3C129.6 55.3 130.5 56.1 131.5 56.1C132.6 56.1 133.6 55.2 133.6 54.1C133.6 53 132.7 52.1 131.5 52.1C130.4 52 129.5 52.9 129.5 54.1Z" fill="#F8F8F8"/>
<path d="M81.0968 70.2115L12.6968 70.389L12.7057 73.789L81.1057 73.6115L81.0968 70.2115Z" fill="#A6A6A6"/>
<path d="M61.0965 77.6376L12.6965 77.7632L12.7054 81.1632L61.1053 81.0376L61.0965 77.6376Z" fill="#A6A6A6"/>
<path d="M105.697 13.856L71.5967 13.9445L71.6055 17.3445L105.706 17.256L105.697 13.856Z" fill="#A6A6A6"/>
</svg>
