<svg width="75" height="74" viewBox="0 0 75 74" fill="none" xmlns="http://www.w3.org/2000/svg">
<path d="M54.2 0.0999756H20.3C9.25429 0.0999756 0.299988 9.05429 0.299988 20.1V54C0.299988 65.0457 9.25431 74 20.3 74H54.2C65.2457 74 74.2 65.0457 74.2 54V20.1C74.2 9.05428 65.2457 0.0999756 54.2 0.0999756Z" fill="#24CCA7"/>
<path d="M38.5 12C39.9 12 41 13.1 41 14.5V15.8C44.4 16.2 47.4 17.3 50.1 19C51 19.5 51.9 20.4 51.9 21.8C51.9 23.6 50.4 25 48.6 25C48 25 47.4 24.8 46.8 24.5C44.8 23.3 42.8 22.4 40.8 21.9V33.1C49.7 35.3 53.5 38.9 53.5 45.1C53.5 51.5 48.5 55.8 41.1 56.5V60C41.1 61.4 40 62.5 38.6 62.5C37.2 62.5 36 61.4 36 60V56.4C31.6 55.9 27.6 54.4 24 51.8C23 51.2 22.4 50.2 22.4 49C22.4 47.2 23.8 45.8 25.6 45.8C26.3 45.8 27 46 27.5 46.4C30.2 48.4 32.9 49.7 36.1 50.3V38.8C27.6 36.6 23.6 33.4 23.6 26.8C23.6 20.5 28.6 16.2 35.9 15.6V14.4C35.9 13.1 37.1 12 38.5 12ZM36.1 31.9V21.6C32.4 22 30.5 23.9 30.5 26.5C30.5 28.9 31.7 30.4 36.1 31.9ZM40.8 40V50.6C44.5 50.2 46.6 48.3 46.6 45.5C46.5 43 45.3 41.4 40.8 40Z" fill="white"/>
</svg>
