<svg width="96" height="187" viewBox="0 0 96 187" fill="none" xmlns="http://www.w3.org/2000/svg">
<path d="M54.2 121.6C54.6 111.9 54.4 102.2 53.8 92.6C52.5 72.7 49.2 52.9 44.7 33.4C42.2 22.5 39 11.7 35.8 0.900009C35.7 0.600009 35.2 0.700015 35.3 1.00001C45.4 38.9 53.6 78 53.1 117.4C52.9 128.4 51.7 139.3 50.6 150.2C50.6 150.5 51.1 150.6 51.1 150.3C53.1 141 53.8 131.2 54.2 121.6Z" fill="#FFC727"/>
<path d="M35.3 1C35.3 1 20.1 39.7 23.5 48.8C26.9 57.9 34 59.8 34 59.8C34 59.8 24.7 73.1 31.2 85.6C37.7 98.1 52.2 97.5 53.2 111.7C53 111.7 53.8 52.5 35.3 1Z" fill="#FFC727"/>
<path d="M51.4 87.3C51.4 87.2 51.4 87.2 51.4 87.1C49.3 60.8 44.6 34.6 36.6 9.29998C36.6 9.19998 36.5 9.19998 36.5 9.29998C39.5 20.6 42.2 32 44.5 43.4C42.5 41.4 39.9 40.2 37.2 39.3C37.1 39.3 37.1 39.4 37.2 39.4C40 40.6 42.7 42 44.7 44.4C45.1 46.6 45.6 48.9 46 51.1C42.6 47.3 37.9 45.4 33.1 43.6C33 43.6 33 43.7 33.1 43.7C38 45.7 42.9 48.3 46.3 52.5C47.5 58.9 48.5 65.4 49.4 71.8C46.9 69.2 43.8 67.4 40.3 66.6C40.2 66.6 40.1 66.7 40.2 66.8C43.8 67.8 46.9 69.9 49.4 72.7C49.4 72.7 49.4 72.7 49.5 72.7C49.8 75 50.1 77.3 50.4 79.5C48.5 77.9 46.4 76.6 44 75.7C43.9 75.7 43.9 75.8 44 75.8C46.4 76.8 48.5 78.3 50.4 80H50.5C50.8 82.2 51 84.3 51.2 86.5C47.7 82.3 43.4 79.2 38.3 77.3C38.2 77.3 38.1 77.4 38.2 77.5C43.2 79.7 47.6 83.1 50.9 87.3C51 87.4 51.1 87.4 51.2 87.4C51.5 90.7 51.8 94.1 52.1 97.4C52.1 97.4 52.2 97.5 52.2 97.4C51.9 94.1 51.7 90.7 51.4 87.3Z" fill="#263238"/>
<path d="M39.1 35.5C36.5 33.7 33.1 32.9 29.9 32.6C29.8 32.6 29.8 32.7 29.9 32.7C33.2 33.2 35.9 34.4 39 35.7C39.1 35.8 39.2 35.6 39.1 35.5Z" fill="#263238"/>
<path d="M41 76.5C38.9 75.2 36.5 74.5 34.1 74.1C34 74.1 34 74.2 34.1 74.2C36.5 74.6 38.7 75.5 40.9 76.6C41 76.7 41.1 76.5 41 76.5Z" fill="#263238"/>
<path d="M94.3 49.5C87.9 54 81.8 59.1 76.7 64.9C71.2 71.1 67.1 78.1 64.3 85.9C58.5 101.9 55.4 119.1 55.1 136.1C54.9 145.6 55.8 155 57.8 164.3C57.9 164.6 58.4 164.5 58.3 164.2C55.8 147.9 55.9 131.2 58.6 114.9C61.2 98.9 65.3 81.5 75.5 68.5C81 61.4 87.9 55.8 94.8 50.1C95.1 49.7 94.6 49.2 94.3 49.5Z" fill="#FFC727"/>
<path d="M57.3 124.6C57.3 124.6 62.5 115.8 70.2 108.2C77.8 100.6 84.3 95.2 85.2 90.1C86.2 85.1 77.6 81.2999 77.6 81.2999C77.6 81.2999 88.2 83.1999 91 78.7999C93.9 74.3999 95.3 48.7 95.3 48.7C95.3 48.7 76.1 62.4 67.2 81.6C58.2 100.8 57.3 124.6 57.3 124.6Z" fill="#FFC727"/>
<path d="M88.6 55.2C80.5 63.1 72.4 71.6 67.6 82C66 85.6 64.6 89.3 63.4 93.1C63.2 93.9 62.9 94.6 62.7 95.4V95.5C60.3 103.3 58.7 111.3 57.2 119.2C57.2 119.3 57.3 119.3 57.3 119.2C58.1 115.2 59 111.2 60.1 107.1H60.2C61.8 106.4 63.5 106 65.2 105.8C65.3 105.8 65.3 105.6 65.2 105.6C63.5 105.7 61.8 106 60.2 106.5C61.1 102.9 62.1 99.2 63.3 95.7C67 94.8 70.9 94.3 74.7 94.2V94.1C70.9 93.9 67.2 94.3 63.5 95.1C63.7 94.5 63.9 93.9 64.1 93.3C66.6 92.7 69.1 92.3 71.7 92V91.9C69.2 92 66.7 92.2 64.3 92.8C65.3 89.7 66.5 86.7 67.7 83.7C68.7 81.2 70 78.9 71.3 76.7C73.4 76.2 75.3 75.8 77.4 75.6C77.5 75.6 77.5 75.5 77.4 75.5C75.5 75.4 73.5 75.5 71.7 76.1C72.7 74.5 73.8 72.9 74.9 71.3C79.2 70.3 83.6 69.5 88 70.3C88.1 70.3 88.1 70.2 88 70.2C83.8 69.1 79.6 69.7 75.5 70.6C76 70 76.4 69.4 76.9 68.8C79.5 68 82.2 67.6 84.9 67.5C85 67.5 85 67.4 84.9 67.4C82.4 67.2 79.8 67.4 77.4 68.1C81 63.7 84.9 59.5 88.8 55.4C89 55.1 88.8 55 88.6 55.2Z" fill="#263238"/>
<path d="M88.4 72.7C87.1 72.6 85.9 72.4 84.6 72.6C84.4 72.6 84.5 72.9 84.6 72.9C85.9 72.9 87.1 72.8 88.4 72.9C88.5 72.9 88.5 72.7 88.4 72.7Z" fill="#263238"/>
<path d="M74.6 97.6C72.6 97.6 70.6 98.1 68.7 98.8V98.9C70.7 98.4 72.6 98.2 74.6 97.9C74.8 97.9 74.8 97.6 74.6 97.6Z" fill="#263238"/>
<path d="M70.4 89C69.6 89 68.7 89.1 67.9 89.2C67.8 89.2 67.8 89.3 67.9 89.3C68.7 89.3 69.6 89.3 70.4 89.2C70.6 89.2 70.6 89 70.4 89Z" fill="#263238"/>
<path d="M1 76.7C7.2 78.8 13.3 81.6 18.8 85.1C24.7 88.8 29.6 93.6 33.7 99.2C42.1 110.8 48.6 124 52.8 137.7C55.1 145.4 56.6 153.2 57.1 161.2C57.1 161.5 56.7 161.5 56.7 161.2C54.9 147.4 51 133.9 45.1 121.3C39.3 109 31.9 95.8 20.7 87.6C14.6 83.1 7.7 80.2 0.800004 77.2C0.400004 77.1 0.600004 76.6 1 76.7Z" fill="#FFC727"/>
<path d="M48.3 128.9C48.3 128.9 42 123 34.1 118.6C26.2 114.2 19.7 111.3 17.7 107.4C15.7 103.5 21.9 98.5001 21.9 98.5001C21.9 98.5001 13.8 102.5 10.4 99.6001C7.1 96.7001 0 76.3 0 76.3C0 76.3 18.7 83.0001 30.4 96.4001C42.1 109.9 48.3 128.9 48.3 128.9Z" fill="#FFC727"/>
<path d="M47.3 124.7C37.9 107.1 25.5 91.2 8.39999 80.8C12.9 83.7 17.1 87.0001 20.9 90.6001C17.4 90.5001 13.9 91.1001 10.8 92.7001C10.7 92.7001 10.8 92.8 10.9 92.8C14.3 91.6 17.6 90.9001 21.2 91.1001C21.3 91.1001 21.3 91.1001 21.3 91.1001C21.9 91.7001 22.5 92.3001 23.1 92.9001C21.3 93.0001 19.5 93.2001 17.7 93.6001V93.7001C19.6 93.3001 21.5 93.2001 23.4 93.2001C26.5 96.3001 29.5 99.7001 32.2 103.2C31 103 29.6 103.1 28.4 103.5C28.3 103.5 28.3 103.7 28.4 103.6C29.8 103.4 31.1 103.5 32.4 103.5C32.9 104.2 33.4 104.8 33.9 105.5C30.1 105.3 26.3 105.6 22.5 106.6C22.4 106.6 22.5 106.7 22.5 106.7C26.4 105.9 30.2 105.7 34.2 105.9C34.7 106.5 35.1 107.2 35.6 107.8C33.3 107.7 31.1 108 28.8 108.6C28.7 108.6 28.7 108.8 28.8 108.7C31.1 108.2 33.4 108 35.8 108.2C37.8 111 39.7 113.8 41.6 116.7C40.6 116.5 39.6 116.6 38.6 116.9C38.5 116.9 38.6 117 38.6 117C39.7 116.9 40.7 117 41.8 117.2C43.5 119.8 45.1 122.4 46.6 125C47.1 125.1 47.4 124.9 47.3 124.7Z" fill="#263238"/>
<path d="M32.8 110.1C31 109.9 29.1 110.2 27.4 110.8V110.9C29.2 110.6 31 110.4 32.8 110.3C32.9 110.3 32.9 110.1 32.8 110.1Z" fill="#263238"/>
<path d="M16.4 88.7001C15.6 88.6001 14.7 88.7001 13.9 88.8001C13.8 88.8001 13.8 89.0001 13.9 88.9001C14.7 88.8001 15.5 88.8001 16.4 88.8001C16.6 88.9001 16.6 88.7001 16.4 88.7001Z" fill="#263238"/>
<path d="M72.4 187H30.2L36.2 142.9L37.7 131.6H64.9L66.4 142.9L72.4 187Z" fill="#455A64"/>
<path d="M66.4 142.9H36.2L37.7 131.6H64.9L66.4 142.9Z" fill="#263238"/>
<path d="M68.8 127.6H33.9V137.2H68.8V127.6Z" fill="#455A64"/>
</svg>
