<svg width="260" height="361" viewBox="0 0 260 361" fill="none" xmlns="http://www.w3.org/2000/svg">
<path d="M141 350.2C143.2 350.9 205.2 350.1 207.5 348.6C208.4 348 208.8 339 209 328C209 327.9 209 327.8 209 327.7C209 325.4 209.1 323.1 209.1 320.8C209.1 320.5 209.1 320.2 209.1 319.8C209.2 304 208.9 287.6 208.9 287.6L167.4 288L168.6 319.9V321.2L168.9 327.8V328.5C168.9 328.5 145.3 339.4 142.9 341.4C140.6 343.2 138.8 349.5 141 350.2Z" fill="#F7A9A0"/>
<path d="M141 350.2C143.2 350.9 205.2 350.1 207.5 348.6C208.4 348 208.8 339 209 328C209 327.9 209 327.8 209 327.7C209 325.4 209.1 323.1 209.1 320.8C209.1 320.5 209.1 320.2 209.1 319.8L168.7 319.9V321.2L169 327.8V328.5C169 328.5 145.4 339.4 143 341.4C140.6 343.2 138.8 349.5 141 350.2Z" fill="#EBEBEB"/>
<path d="M141 350.2C142.3 350.6 166.4 350.5 185.2 350C196.9 349.7 206.7 349.2 207.6 348.6C208.5 348 208.9 339.2 209.1 328.5C209.1 328.3 209.1 328.2 209.1 328C209.1 327.9 209.1 327.8 209.1 327.6L169.1 327.7V328.4C169.1 328.4 145.5 339.3 143.1 341.3C140.6 343.2 138.8 349.5 141 350.2Z" fill="#FFC727"/>
<path d="M141.6 347.8C152.1 347.4 194.2 346.8 204.6 347.2C204.7 347.2 204.7 347.3 204.6 347.3C194.2 347.9 152.1 348.2 141.6 348C141.4 347.9 141.4 347.8 141.6 347.8Z" fill="#263238"/>
<path d="M164.5 327.9C168.6 327.1 173.6 327.6 176.8 330.5C176.9 330.6 176.8 330.8 176.6 330.7C172.5 329.5 168.7 328.7 164.5 328.3C164.2 328.4 164.2 327.9 164.5 327.9Z" fill="#263238"/>
<path d="M161.6 329.7C165.7 328.9 170.7 329.4 173.9 332.3C174 332.4 173.9 332.6 173.7 332.5C169.6 331.3 165.8 330.5 161.6 330.1C161.3 330.2 161.3 329.8 161.6 329.7Z" fill="#263238"/>
<path d="M158.6 331.5C162.7 330.7 167.7 331.2 170.9 334.1C171 334.2 170.9 334.4 170.7 334.3C166.6 333.1 162.8 332.3 158.6 331.9C158.4 332 158.3 331.6 158.6 331.5Z" fill="#263238"/>
<path d="M161 324.8C163.9 327 167.7 327.9 171.2 329.1C171.6 329.2 171.8 328.9 171.8 328.6C171.9 328.6 171.9 328.5 171.9 328.5C170.7 325.1 168.3 321.5 165.4 319.2C163.7 317.8 160.6 316.8 159.1 319.1C157.6 321.1 159.3 323.5 161 324.8ZM159.9 321.5C159.1 317 164 319.3 165.2 320.4C166 321.1 166.7 321.9 167.4 322.7C168.8 324.4 170 326.3 171.3 328.1C169.7 327.4 168 326.8 166.3 326.2C164.3 325.5 160.3 324 159.9 321.5Z" fill="#263238"/>
<path d="M185.5 322C184.5 319.4 181.3 319.7 179.3 320.7C176 322.3 172.8 325.2 170.9 328.3C170.9 328.4 170.9 328.4 171 328.5C170.9 328.8 171.1 329.2 171.5 329.2C175.1 328.8 179 328.8 182.4 327.3C184.3 326.4 186.5 324.4 185.5 322ZM176.8 327.4C175 327.6 173.3 327.8 171.5 328.1C173.1 326.6 174.7 325.1 176.5 323.8C177.4 323.2 178.3 322.5 179.2 322C180.7 321.2 185.9 320.1 184.1 324.3C183.1 326.6 178.9 327.1 176.8 327.4Z" fill="#263238"/>
<path d="M146.8 339.5C149.3 339.4 151.7 340.5 153.1 342C154.4 343.4 155.6 345.4 155.5 347.6C155.5 347.7 155.4 347.7 155.4 347.6C154.7 343.5 151 340 146.8 339.7C146.7 339.6 146.7 339.5 146.8 339.5Z" fill="#263238"/>
<path d="M202 337.7C206.7 337.6 206.8 345 202.1 345C197.3 345 197.2 337.7 202 337.7Z" fill="#263238"/>
<path d="M185.1 349.9C196.8 349.6 206.6 349.1 207.5 348.5C208.4 347.9 208.8 339.1 209 328.4C204.2 332.7 192.2 343.4 185.1 349.9Z" fill="#263238"/>
<path d="M221.6 108.9C221.6 108.9 212.3 213.7 210.8 221.7C210.4 223.5 210.2 233.4 210.1 246.2C209.8 274 210 324.1 210 324.1H166.3C166.3 324.1 167.6 237.3 169.5 221.3C171.4 205.3 183.8 108.9 183.8 108.9H221.6Z" fill="#455A64"/>
<path d="M168.2 316.4C175 316.3 173.1 316.2 179.9 316.1C183.2 316.1 205.2 315.9 208.3 316.4C208.4 316.4 208.4 316.5 208.3 316.5C205.2 317 183.2 316.8 179.9 316.8C173.1 316.7 175 316.7 168.2 316.5C168.1 316.6 168.1 316.4 168.2 316.4Z" fill="#263238"/>
<path d="M201.7 266.8C201.7 260.5 201.8 254.1 201.8 247.8C201.8 241.7 201.8 235.5 202.1 229.4C202.7 217 205.2 204.8 207 192.5C208.8 180.2 210.3 167.9 211.6 155.5C213.1 141.6 214.5 127.8 215.9 113.9C215.9 113.8 216.1 113.8 216 113.9C213.9 138.6 211.6 163.4 208.2 188C207.3 194.1 206.4 200.2 205.4 206.3C204.4 212.5 203.4 218.6 202.9 224.9C202.4 231 202.3 237.1 202.3 243.3C202.2 249.6 202.2 256 202.1 262.3C202 276.4 201.8 298 201.7 312.1C201.7 312.4 201.3 312.4 201.3 312.1C201.5 299.5 201.6 279.4 201.7 266.8Z" fill="#263238"/>
<path d="M230.9 108.9C230.9 108.9 212.4 213.7 210.9 221.7C210.5 223.5 210.3 233.4 210.2 246.2L189.4 108.9H230.9V108.9Z" fill="#263238"/>
<path d="M191.7 353.9C193.9 354.4 255.7 349.3 258 347.6C258.9 347 258.6 337.9 258 327C258 326.9 258 326.8 258 326.7C257.9 324.4 257.7 322.1 257.6 319.8C257.6 319.5 257.6 319.2 257.5 318.8C256.5 303 255.1 286.7 255.1 286.7L213.7 290.1L217.2 321.8L217.3 323.1L218 329.7L218.1 330.4C218.1 330.4 195.3 343 193.1 345.1C190.9 347 189.5 353.3 191.7 353.9Z" fill="#F7A9A0"/>
<path d="M191.7 353.9C193.9 354.4 255.7 349.3 258 347.6C258.9 347 258.6 337.9 258 327C258 326.9 258 326.8 258 326.7C257.9 324.4 257.7 322.1 257.6 319.8C257.6 319.5 257.6 319.2 257.5 318.8L217.2 321.8L217.3 323.1L218 329.7L218.1 330.4C218.1 330.4 195.3 343 193.1 345.1C190.9 347 189.5 353.3 191.7 353.9Z" fill="#EBEBEB"/>
<path d="M191.7 353.9C193.9 354.4 255.7 349.3 258 347.6C258.9 347 258.6 337.9 258 327C258 326.9 258 326.8 258 326.7L218.1 329.6L218.2 330.3C218.2 330.3 195.4 342.9 193.2 345C190.9 347 189.5 353.3 191.7 353.9Z" fill="#FFC727"/>
<path d="M192.2 351.4C202.6 350.3 244.6 346.7 255 346.4C255.1 346.4 255.1 346.5 255 346.5C244.7 347.8 202.6 351.1 192.2 351.6C192 351.6 192 351.4 192.2 351.4Z" fill="#263238"/>
<path d="M213.7 330C217.7 328.9 222.8 329.1 226.2 331.8C226.3 331.9 226.2 332.1 226 332.1C221.8 331.2 218 330.7 213.7 330.6C213.4 330.5 213.4 330 213.7 330Z" fill="#263238"/>
<path d="M210.8 332C214.8 330.9 219.9 331.1 223.3 333.8C223.4 333.9 223.3 334.1 223.1 334.1C218.9 333.2 215.1 332.7 210.8 332.6C210.6 332.5 210.6 332.1 210.8 332Z" fill="#263238"/>
<path d="M208 334C212 332.9 217.1 333.1 220.5 335.8C220.6 335.9 220.5 336.1 220.3 336.1C216.1 335.2 212.3 334.7 208 334.6C207.8 334.5 207.7 334.1 208 334Z" fill="#263238"/>
<path d="M209.9 327.2C213 329.2 216.8 329.8 220.3 330.8C220.7 330.9 220.9 330.5 220.9 330.2C221 330.2 221 330.1 221 330C219.6 326.7 216.9 323.2 213.9 321.1C212.1 319.8 209 319.1 207.6 321.4C206.2 323.7 208.1 326 209.9 327.2ZM208.6 323.9C207.5 319.5 212.5 321.4 213.8 322.4C214.6 323 215.4 323.8 216.2 324.6C217.8 326.2 219.1 328 220.5 329.7C218.8 329.1 217.1 328.7 215.4 328.2C213.3 327.6 209.2 326.4 208.6 323.9Z" fill="#263238"/>
<path d="M234.2 322.6C233 320.1 229.9 320.6 227.9 321.7C224.8 323.5 221.7 326.7 220 329.9C220 330 220 330 220.1 330.1C220.1 330.4 220.3 330.8 220.6 330.7C224.2 330 228.1 329.8 231.3 328.1C233.2 327.1 235.3 325 234.2 322.6ZM225.8 328.6C224.1 329 222.3 329.2 220.6 329.7C222.1 328.1 223.6 326.5 225.3 325C226.1 324.3 227 323.6 227.9 323.1C229.3 322.2 234.5 320.7 233 325C232.1 327.4 227.9 328.2 225.8 328.6Z" fill="#263238"/>
<path d="M195.8 343.1C198.3 342.7 200.8 343.7 202.3 345C203.7 346.3 205 348.2 205.2 350.3C205.2 350.4 205.1 350.4 205.1 350.3C204.1 346.3 200 343.1 195.9 343.2C195.8 343.3 195.8 343.1 195.8 343.1Z" fill="#263238"/>
<path d="M250.6 336.5C255.3 336 256 343.3 251.3 343.8C246.6 344.3 245.9 337 250.6 336.5Z" fill="#263238"/>
<path d="M216.3 326.4L260 324.5C260 324.5 248.1 228.7 247.9 222.8C247.3 207.5 237.2 108.8 237.2 108.8H183.9C183.9 108.8 187.3 131.6 193 146C193 146 197.4 147.4 204.2 151.1C204.2 151.1 209.2 216.4 209.4 224.5C209.6 240.7 216.3 326.4 216.3 326.4Z" fill="#455A64"/>
<path d="M217.5 318.4C224.3 318 222.3 318 229.2 317.6C232.5 317.4 254.4 316.3 257.6 316.7C257.7 316.7 257.7 316.8 257.6 316.8C254.5 317.4 232.6 318.2 229.2 318.3C222.4 318.5 224.3 318.4 217.5 318.5C217.3 318.6 217.3 318.4 217.5 318.4Z" fill="#263238"/>
<path d="M233.2 114.7C235.2 139.6 237.2 164.4 239.5 189.2C241.8 214.1 244.5 239 247.7 263.8C249.5 277.7 251.5 297.2 253.7 311C253.7 311.1 253.6 311.1 253.6 311C249.2 286.5 246 256 243.2 231.2C240.4 206.4 238.2 181.6 236.2 156.8C235.1 142.8 234 128.7 233 114.6C232.9 114.5 233.2 114.5 233.2 114.7Z" fill="#263238"/>
<path d="M191 145.1C195.5 146.7 199.9 148.9 204.1 151.2C204.3 151.3 204.2 151.5 204 151.5C199.6 149.6 195.1 147.8 190.8 145.7C190.4 145.5 190.6 145 191 145.1Z" fill="#263238"/>
<path d="M189.6 114.9C189.6 114.7 189.9 114.7 189.9 114.9C189.9 120.1 190.2 124.7 190.6 129.6C190.8 131.9 192.6 144.4 196.6 143.5C197.3 143.3 197.6 142.7 197.7 141.7C197.8 140.5 197.4 139 197.2 137.9C196.8 135.3 196.4 132.6 196.2 130C195.8 125.1 195.8 120.1 196.4 115.2C196.4 115 196.7 115.1 196.7 115.2C196.7 122 196.9 128.9 197.9 135.7C198.4 139 200 143.9 196.6 144.4C193.1 144.9 190.9 136.7 190.5 134.4C189.1 128 189.1 121.2 189.6 114.9Z" fill="#263238"/>
<path d="M196.4 143.8C196.8 144.6 197 145.5 197.3 146.4C197.5 147.1 197.7 147.8 197.7 148.5C197.7 148.6 197.5 148.7 197.4 148.6C196.9 148 196.7 147.2 196.5 146.5C196.2 145.7 195.9 144.9 195.6 144.1C195.4 143.6 196.2 143.3 196.4 143.8Z" fill="#263238"/>
<path d="M19.6 328.8L19.4 326.8L124.9 321.4L117.1 274.4L119.1 274.1L127.3 323.3L19.6 328.8Z" fill="#C7C7C7"/>
<path d="M32.2843 342.071C37.0691 338.328 37.9137 331.415 34.1708 326.631C30.428 321.846 23.5149 321.001 18.7301 324.744C13.9454 328.487 13.1008 335.4 16.8436 340.185C20.5865 344.969 27.4996 345.814 32.2843 342.071Z" fill="#37474F"/>
<path d="M20.5 333.4C20.5 336.2 22.7 338.4 25.5 338.4C28.3 338.4 30.5 336.2 30.5 333.4C30.5 330.6 28.3 328.4 25.5 328.4C22.8 328.3 20.5 330.6 20.5 333.4Z" fill="#EBEBEB"/>
<path d="M112.63 344.105C118.541 342.703 122.196 336.775 120.794 330.863C119.392 324.952 113.463 321.297 107.552 322.699C101.641 324.101 97.9857 330.03 99.3878 335.941C100.79 341.852 106.719 345.507 112.63 344.105Z" fill="#37474F"/>
<path d="M105 333.4C105 336.2 107.2 338.4 110 338.4C112.8 338.4 115 336.2 115 333.4C115 330.6 112.8 328.4 110 328.4C107.3 328.3 105 330.6 105 333.4Z" fill="#EBEBEB"/>
<path d="M38.4 341L38.3 339L143.8 333.6L133.5 271.9L135.5 271.6L146.1 335.4L38.4 341Z" fill="#C7C7C7"/>
<path d="M51.4087 353.967C56.0841 350.088 56.7298 343.154 52.8508 338.478C48.9718 333.803 42.0371 333.157 37.3617 337.036C32.6863 340.915 32.0406 347.85 35.9196 352.525C39.7986 357.201 46.7333 357.846 51.4087 353.967Z" fill="#37474F"/>
<path d="M39.4 345.5C39.4 348.3 41.6 350.5 44.4 350.5C47.2 350.5 49.4 348.3 49.4 345.5C49.4 342.7 47.2 340.5 44.4 340.5C41.6 340.5 39.4 342.8 39.4 345.5Z" fill="#EBEBEB"/>
<path d="M139.046 349.796C141.387 344.19 138.74 337.748 133.134 335.407C127.528 333.066 121.086 335.713 118.745 341.319C116.404 346.925 119.051 353.368 124.657 355.708C130.263 358.049 136.706 355.402 139.046 349.796Z" fill="#37474F"/>
<path d="M123.9 345.5C123.9 348.3 126.1 350.5 128.9 350.5C131.7 350.5 133.9 348.3 133.9 345.5C133.9 342.7 131.7 340.5 128.9 340.5C126.2 340.5 123.9 342.8 123.9 345.5Z" fill="#EBEBEB"/>
<path d="M15.8 268.1L0.399994 197.9L105.4 180.9L106.5 254.3L105.6 254.4L15.8 268.1ZM2.8 199.5L17.4 265.9L104.5 252.6L103.5 183.3L2.8 199.5Z" fill="#A6A6A6"/>
<path d="M27.1895 194.561L25.2135 194.87L36.0285 264.03L38.0045 263.721L27.1895 194.561Z" fill="#A6A6A6"/>
<path d="M55.3413 190.112L53.3533 190.331L61.0582 260.209L63.0462 259.99L55.3413 190.112Z" fill="#A6A6A6"/>
<path d="M82.7862 186.097L80.788 186.183L83.83 256.619L85.8282 256.533L82.7862 186.097Z" fill="#A6A6A6"/>
<path d="M105.328 203.161L6.53412 221.053L6.89052 223.021L105.684 205.129L105.328 203.161Z" fill="#A6A6A6"/>
<path d="M105.312 229.736L11.545 243.662L11.8388 245.64L105.606 231.714L105.312 229.736Z" fill="#A6A6A6"/>
<path d="M149.2 271.4L104.5 254.1V180.8L172.8 200.6L149.2 271.4ZM106.4 252.7L147.9 268.7L170.1 201.9L106.3 183.4V252.7H106.4Z" fill="#DBDBDB"/>
<path d="M105.813 203.195L105.098 205.063L162.813 227.163L163.528 225.295L105.813 203.195Z" fill="#DBDBDB"/>
<path d="M105.772 229.814L105.016 231.666L154.459 251.835L155.215 249.983L105.772 229.814Z" fill="#DBDBDB"/>
<path d="M127.207 188.497L117.895 258.483L119.878 258.746L129.19 188.761L127.207 188.497Z" fill="#DBDBDB"/>
<path d="M149.338 194.89L133.674 264.45L135.625 264.89L151.29 195.329L149.338 194.89Z" fill="#DBDBDB"/>
<path d="M121.508 125.109L104.483 181.912L106.399 182.486L123.424 125.683L121.508 125.109Z" fill="#DBDBDB"/>
<path d="M189.019 138.604L170.357 200.867L172.273 201.442L190.934 139.178L189.019 138.604Z" fill="#DBDBDB"/>
<path d="M118.373 122.302L117.567 126.22L194.164 141.985L194.97 138.067L118.373 122.302Z" fill="#263238"/>
<path d="M73.8 205.3L92.7 214L123.8 207.8L105.2 202.5L73.8 205.3Z" fill="#FFC727"/>
<path opacity="0.1" d="M73.8 205.3L92.7 214L123.8 207.8L105.2 202.5L73.8 205.3Z" fill="black"/>
<path d="M106.6 208C106.8 216 108.7 254.3 101.3 255C98.7 255.3 96.3 249.3 94.5 240.4C94.3 239.5 94.1 238.6 94 237.7C93.4 234.4 92.9 230.7 92.4 226.9C92.3 226 92.2 225.1 92.1 224.2C91.7 220.7 91.4 217 91.2 213.3C91.2 212.4 91.1 211.5 91.1 210.6C91.1 209.8 91 209.1 91 208.3C90.9 205.8 90.9 203.3 90.9 200.9C90.9 200 90.9 199.1 90.9 198.2C91 193.2 91.2 188.5 91.5 184.1C91.6 183.2 91.6 182.4 91.7 181.6C92.8 170.4 94.9 162.3 97.8 161.5C104 159.9 106 188.1 106.6 208Z" fill="#E6A36E"/>
<path d="M101.7 235.7C101.6 235.8 101.5 235.8 101.4 235.9L101.3 236C98.7 236.9 96.4 238.4 94.5 240.6C94.3 239.7 94.1 238.8 94 237.9C96.3 236 99.1 234.9 101.5 235.3H101.6H101.7C101.8 235.3 101.9 235.5 101.7 235.7Z" fill="#CC8A58"/>
<path d="M100.8 224.2C100.7 224.2 100.6 224.3 100.5 224.3L100.4 224.4C97.7 224.5 95 225.3 92.7 226.9C92.6 227 92.5 227 92.4 227.1C92.3 226.2 92.2 225.3 92.1 224.4C94.9 222.9 98.2 222.6 100.7 223.7C100.7 223.7 100.7 223.7 100.8 223.8H100.9C100.9 223.8 101 224.1 100.8 224.2Z" fill="#CC8A58"/>
<path d="M100.2 212.5C100.1 212.5 100 212.5 99.9 212.5C99.9 212.5 99.8 212.5 99.7 212.5C97 212 94.3 212.1 91.7 213.2C91.5 213.3 91.3 213.4 91.1 213.5C91.1 212.6 91 211.7 91 210.8C94.1 209.8 97.7 210.2 100.1 211.9C100.1 211.9 100.2 211.9 100.2 212C100.2 212 100.3 212 100.3 212.1C100.4 212.2 100.5 212.5 100.2 212.5Z" fill="#CC8A58"/>
<path d="M99.8 200.2C99.7 200.2 99.6 200.2 99.5 200.2C99.5 200.2 99.4 200.2 99.3 200.2C96.6 199.7 93.9 199.8 91.3 200.9C91.1 201 91 201 90.9 201.1C90.9 200.2 90.9 199.3 90.9 198.4C93.9 197.5 97.4 197.9 99.7 199.6C99.7 199.6 99.8 199.6 99.8 199.7C99.8 199.7 99.9 199.7 99.9 199.8C100 199.9 100 200.2 99.8 200.2Z" fill="#CC8A58"/>
<path d="M99.8 185.7C99.7 185.7 99.6 185.7 99.5 185.6C99.5 185.6 99.4 185.6 99.3 185.6C96.8 184.5 94.1 184 91.5 184.3C91.6 183.4 91.6 182.6 91.7 181.8C94.7 181.8 97.9 183 99.8 185.1V185.2L99.9 185.3C100 185.5 100 185.8 99.8 185.7Z" fill="#CC8A58"/>
<path d="M118.3 212.8C117.2 220.7 112.6 258.5 105.2 257.5C102.6 257.2 101.2 250.8 100.9 241.7C100.9 240.8 100.8 239.9 100.8 239C100.8 235.6 100.8 231.9 101 228.1C101 227.2 101.1 226.3 101.2 225.4C101.4 221.9 101.8 218.2 102.2 214.6C102.3 213.7 102.4 212.8 102.5 212C102.6 211.3 102.7 210.5 102.8 209.8C103.1 207.4 103.5 204.9 103.9 202.5C104.1 201.6 104.2 200.7 104.4 199.9C105.3 195.1 106.3 190.5 107.4 186.3C107.6 185.5 107.8 184.7 108 183.9C110.9 173.2 114.4 165.8 117.4 165.7C123.9 165.3 121.1 193.3 118.3 212.8Z" fill="#EDAA76"/>
<path d="M109 238.7C108.9 238.8 108.8 238.8 108.7 238.8L108.6 238.9C105.9 239.2 103.4 240.1 101.1 241.8C101.1 240.9 101 240 101 239.1C103.6 237.8 106.5 237.4 108.9 238.3C108.9 238.3 109 238.3 109 238.4H109.1C109.1 238.3 109.2 238.6 109 238.7Z" fill="#CC8A58"/>
<path d="M110 227.2C109.9 227.2 109.8 227.2 109.7 227.2C109.7 227.2 109.6 227.2 109.5 227.2C106.8 226.7 104.1 226.8 101.5 227.8C101.4 227.8 101.3 227.9 101.2 227.9C101.2 227 101.3 226.1 101.4 225.2C104.4 224.4 107.7 224.9 110 226.5C110 226.5 110 226.5 110.1 226.6C110.1 226.6 110.2 226.6 110.2 226.7C110.2 226.9 110.2 227.2 110 227.2Z" fill="#CC8A58"/>
<path d="M111.4 215.7C111.3 215.7 111.2 215.7 111.1 215.6C111.1 215.6 111 215.6 110.9 215.6C108.3 214.5 105.6 214 102.9 214.4C102.7 214.4 102.5 214.5 102.3 214.5C102.4 213.6 102.5 212.7 102.6 211.9C105.8 211.7 109.3 212.9 111.4 215.2V215.3L111.5 215.4C111.6 215.4 111.6 215.7 111.4 215.7Z" fill="#CC8A58"/>
<path d="M113 203.6C112.9 203.6 112.8 203.6 112.7 203.5C112.7 203.5 112.6 203.5 112.5 203.5C109.9 202.4 107.2 201.9 104.5 202.3C104.3 202.3 104.2 202.4 104 202.4C104.2 201.5 104.3 200.6 104.5 199.8C107.6 199.6 111 200.9 113 203.1V203.2L113.1 203.3C113.2 203.4 113.2 203.6 113 203.6Z" fill="#CC8A58"/>
<path d="M115.4 189.5C115.3 189.5 115.2 189.4 115.1 189.3C115 189.3 115 189.3 114.9 189.2C112.6 187.5 110.1 186.4 107.4 186.1C107.6 185.3 107.8 184.5 108 183.7C111 184.4 113.9 186.3 115.4 188.8V188.9C115.4 188.9 115.4 189 115.5 189C115.7 189.3 115.7 189.5 115.4 189.5Z" fill="#CC8A58"/>
<path d="M73.8 205.3C73.8 205.3 75 243.5 74.6 245C74.2 246.5 71.9 264.4 72.1 264.9C72.3 265.4 90.3 275.7 90.9 275.1C91.5 274.5 92.6 248.7 92.6 245.5C92.6 242.3 92.8 213.9 92.8 213.9L73.8 205.3Z" fill="#FFC727"/>
<path d="M92.7 214L90.8 275.1C90.8 275.1 120 266.5 120.2 266C120.5 265.5 121.9 248.2 121.5 245.5C121.1 242.8 123.7 207.8 123.7 207.8L92.7 214Z" fill="#FFC727"/>
<path opacity="0.1" d="M92.7 214L90.8 275.1C90.8 275.1 120 266.5 120.2 266C120.5 265.5 121.9 248.2 121.5 245.5C121.1 242.8 123.7 207.8 123.7 207.8L92.7 214Z" fill="black"/>
<path d="M52.2 283.4L15.8 268.2L15.7 267.7L0.300003 197.6L45.5 216.1L52.2 283.4ZM17.5 266.7L49.8 280.2L43.6 217.4L3 200.8L17.5 266.7Z" fill="#DBDBDB"/>
<path d="M15.5008 203.936L13.531 204.282L25.3191 271.354L27.2889 271.007L15.5008 203.936Z" fill="#DBDBDB"/>
<path d="M30.3742 210.295L28.3942 210.577L37.8063 276.709L39.7863 276.427L30.3742 210.295Z" fill="#DBDBDB"/>
<path d="M12.9051 249.351L12.2451 251.239L48.8723 264.043L49.5323 262.155L12.9051 249.351Z" fill="#DBDBDB"/>
<path d="M7.03131 221.473L6.29431 223.333L46.2671 239.178L47.0041 237.319L7.03131 221.473Z" fill="#DBDBDB"/>
<path d="M52.1 283.3L43.4 215.9L172.7 200.5L149.1 271.4L148.5 271.5L52.1 283.3ZM45.7 217.6L53.9 281.1L147.7 269.6L169.9 202.9L45.7 217.6Z" fill="#EBEBEB"/>
<path d="M74.3533 213.232L72.3609 213.406L78.0429 278.557L80.0353 278.383L74.3533 213.232Z" fill="#EBEBEB"/>
<path d="M106.912 209.122L103.086 275.409L105.083 275.524L108.908 209.237L106.912 209.122Z" fill="#EBEBEB"/>
<path d="M139.941 205.116L127.209 272.522L129.174 272.894L141.907 205.487L139.941 205.116Z" fill="#EBEBEB"/>
<path d="M163.527 223.807L46.5681 236.965L46.7917 238.953L163.75 225.794L163.527 223.807Z" fill="#EBEBEB"/>
<path d="M154.903 249.986L49.0774 261.051L49.2854 263.041L155.111 251.975L154.903 249.986Z" fill="#EBEBEB"/>
<path d="M197.1 55.4C191.7 63.8 171.9 94.3999 159.5 94.3999C152 94.3999 126.7 81.6999 121.2 77.3999C114.7 72.3999 132.2 56.6 136.7 58.5C142.3 60.8 157.4 69.7 161 69.7C164.2 69.7 173.3 59.5 190.5 48.3C199.3 42.4 201.8 48.1 197.1 55.4Z" fill="#F7A9A0"/>
<path d="M121.8 77.8C119.5 76.7 109.2 70.6 106.7 68.3C104.2 66 97.6 58.7 99.1 56.6C100.6 54.5 102.8 56.5 102.8 56.5C102.8 56.5 100.5 53 102.3 51C104.1 49 107.3 52.2 107.3 52.2C107.3 52.2 105.2 48.4 107.1 46.6C109 44.8 111.7 48.5 111.7 48.5C111.7 48.5 109.6 45.1 111.8 44.3C114.5 43.3 117.7 49.9 120.6 52.3C121.3 52.8 134.9 62.2 134.9 62.2L121.8 77.8Z" fill="#F7A9A0"/>
<path d="M111.5 48.2999C113.9 53.1999 115.7 54.8999 120.3 57.6999C120.4 57.7999 120.3 57.8999 120.2 57.7999C115.5 55.3999 112.9 53.5999 111.3 48.3999C111.2 48.0999 111.4 47.9999 111.5 48.2999Z" fill="#263238"/>
<path d="M107.1 51.8999C110 56.6999 112 58.5999 116.5 61.8999C116.6 61.8999 116.5 62.0999 116.4 61.9999C111.7 59.0999 109.1 57.2999 106.8 51.9999C106.8 51.7999 107 51.6999 107.1 51.8999Z" fill="#263238"/>
<path d="M103.1 56.6999C106.2 61.1999 108.4 63.2999 113.2 65.9999C113.3 66.0999 113.2 66.1999 113.1 66.1999C107.9 63.9999 105.3 61.2999 103 56.7999C102.8 56.4999 102.9 56.3999 103.1 56.6999Z" fill="#263238"/>
<path d="M101.7 57.8C105.1 69 115.7 67.6 118.7 66.7C121.7 65.8 131.2 61.1 127.8 49.8C124.4 38.6 113.1 41.2 111.1 41.8C108.8 42.5 98.2 46.6 101.7 57.8Z" fill="#FFC727"/>
<path d="M112 43.3C112 43.3 112.5 47.5 119.9 45C119.9 45 114.9 39.7 112 43.3Z" fill="#455A64"/>
<path d="M112.7 45.1C112.7 45.1 116.2 45.3 115.2 39C115.2 39 110.2 42.2 112.7 45.1Z" fill="#455A64"/>
<path d="M112.5 43.9C112.5 43.9 111.3 47.2 105.9 43.7C105.9 43.7 110.9 40.5 112.5 43.9Z" fill="#455A64"/>
<path d="M112.2 43.1C112.2 43.1 109 45.8 115.2 50.6C115.2 50.6 116.8 43.5 112.2 43.1Z" fill="#455A64"/>
<path d="M111.9 43.7C111.9 43.7 107.2 42.4 107.8 50.4C107.8 50.4 115 47.9 111.9 43.7Z" fill="#455A64"/>
<path d="M112.7 44.7C112.7 44.7 113.3 40.5 109.8 37.6C109.8 37.6 107.8 37.6 107.3 39.7C107.3 39.7 111.3 41.9 111.6 45.6L112.5 45" fill="#455A64"/>
<path d="M139.9 61.8C139.9 61.8 138 55.3 136.5 52.6C135 49.9 125.9 42 124.1 43.9C121.7 46.3 126.1 51.9 128.6 54.4C128.6 54.4 123.1 60 125.4 64.7C127.6 69.5 139.9 61.8 139.9 61.8Z" fill="#F7A9A0"/>
<path d="M123.6 44.8C123 48.6 126.5 51.6 128.8 54.2C129 54.4 128.9 54.6 128.7 54.7C126.6 57.2 124.3 61.3 125.2 64.7C125.2 64.8 125.1 64.8 125.1 64.8C123.7 61.3 125.6 57.1 128.1 54.5C125.7 51.8 122.3 48.6 123.6 44.8Z" fill="#263238"/>
<path d="M169 61.2L185.7 76.1C185.7 76.1 195.2 64.7 199.1 53.7C203 42.7 193.6 44.1 187 48.5C180.3 52.9 169 61.2 169 61.2Z" fill="#FFC727"/>
<path d="M187.6 72.5C180.3 66.7 174.8 60.6 173.5 59.4C173.4 59.3 173.5 59.3 173.6 59.3C174.8 60.5 182.2 66.8 187.7 72.4C187.7 72.4 187.6 72.5 187.6 72.5Z" fill="#263238"/>
<path d="M199.1 53.7C195.2 64.6 185.7 76.1 185.7 76.1L178 69.2C183.1 62.1 191.3 50.8 195.4 45.3C199.1 45.1 201.5 47.2 199.1 53.7Z" fill="#263238"/>
<path d="M178 123C179 124 240.5 123.4 240.8 123C241.6 121.9 232.2 82.2 225.1 67.2C216 47.9 211.2 46.3 208.4 45.2C204.7 43.8 195.2 44.4 193.6 45.1C191.8 45.9 187.3 54.9 185.2 62.1C181 76.5 177.1 122.1 178 123Z" fill="#FFC727"/>
<path d="M217.6 63.0999C217.3 81.9999 216.5 104.4 211.2 110.7C203.3 120.3 183.4 130.1 175.3 131.9C171.9 132.7 162.4 107.1 166.1 106.3C173.8 104.7 191.5 97.3999 193.1 95.7999C194.6 94.2999 200.8 75.8999 205.7 61.6999C211.6 44.5999 217.8 52.1999 217.6 63.0999Z" fill="#F7A9A0"/>
<path d="M170.3 105.3C170.3 105.3 160.1 107.9 153.5 109.9C149.8 111 143.7 113.5 141.4 115.6C137.9 118.7 125.3 133.8 128.9 136.9C132.2 139.7 141.3 125.4 141.3 125.4C141.3 125.4 130.8 139.1 135.3 141.8C139.9 144.5 148 126.9 148 126.9C148 126.9 137.5 141.2 142.6 143.2C146.5 144.7 154.8 129.2 154.8 129.2C154.8 129.2 145.9 141.6 149.8 143.3C154.1 145.2 162.7 131.4 162.7 131.4C173.4 134.2 179.7 131.1 183.8 128.4C184.9 127.7 170.3 105.3 170.3 105.3Z" fill="#F7A9A0"/>
<path d="M144.6 120.5C143.3 122.1 142 123.6 140.8 125.3C139.6 127 138.6 128.7 137.6 130.5C135.2 134.8 134.3 137.9 134.4 137.8C136.1 133.4 140.1 127.4 141.3 125.7C142.5 123.9 143.5 122.2 144.6 120.5C144.6 120.4 144.7 120.5 144.6 120.5Z" fill="#263238"/>
<path d="M150.7 124.5C148.5 126.3 143.8 132.8 142 137.2C141.9 137.4 142 137.4 142.1 137.2C143.6 135.1 149.3 126.6 150.7 124.5C150.8 124.5 150.8 124.5 150.7 124.5Z" fill="#263238"/>
<path d="M156.6 127.1C154 129.6 151.9 133.1 150.2 137.1C150.1 137.3 150.3 137.3 150.4 137.1C152.5 133.7 154.1 131.1 156.8 127.2C156.8 127.1 156.7 127 156.6 127.1Z" fill="#263238"/>
<path d="M197.1 79.5L219.2 82.8C219.2 82.8 220.9 68 218.2 56.7C215.5 45.4 208.4 51.7 205.2 59C202 66.4 197.1 79.5 197.1 79.5Z" fill="#FFC727"/>
<path d="M218.6 78.5C209.3 77.9 201.3 75.9 199.6 75.7C199.5 75.7 199.5 75.6 199.6 75.6C201.3 75.9 210.9 76.9 218.6 78.4C218.7 78.4 218.6 78.5 218.6 78.5Z" fill="#263238"/>
<path d="M200.3 71.8999C201.3 69.3999 202.8 65.7999 203.6 63.2999C203.6 63.2999 203.6 63.1999 203.5 63.2999C202.9 64.5999 202.3 65.9999 201.7 67.3999C201.7 67.2999 201.7 67.1999 201.8 67.1999C201.9 66.3999 202.1 65.6999 202.1 64.8999C201.9 65.6999 201.7 66.3999 201.5 67.1999C201.4 67.6999 201.3 68.1999 201.2 68.6999C200.9 69.3999 200.1 71.1999 199.9 71.8999C199.4 73.0999 196.7 79.7999 196.8 79.7999C197 79.7999 199.1 80.0999 199.5 80.0999C199.6 80.0999 199.6 79.8999 199.5 79.8999C199.1 79.8999 197.4 79.5999 197.2 79.5999C197.7 78.2999 198.2 77.0999 198.8 75.7999C199.3 74.4999 199.8 73.1999 200.3 71.8999Z" fill="#263238"/>
<path d="M220.6 68.2C220.4 68.9 220.3 69.5 220.2 70.2C220.2 70.4 220.1 70.7 220.1 70.9C220 69.2 219.9 67.6 219.7 65.9H219.6C219.8 68.7 219.7 71.5 219.6 74.2C219.6 75.6 219.5 76.9 219.4 78.3C219.4 79 219.3 79.7 219.3 80.4C219.3 81.2 219.2 82.7 219.2 82.7C218.8 82.6 217.5 82.5 217.1 82.4C217 82.4 217 82.5 217.1 82.5C217.5 82.6 219.5 82.9 219.5 82.9C219.5 82.2 219.7 81.3 219.8 80.6C219.9 79.9 219.9 79.3 220 78.6C220.1 77.2 220.2 75.7 220.2 74.3C220.2 73.5 220.2 72.7 220.2 71.9C220.3 71.3 220.5 70.7 220.6 70.1C220.7 69.4 220.8 68.7 220.9 68.1C220.8 68.1 220.6 68.1 220.6 68.2Z" fill="#263238"/>
<path d="M195.4 55C198.8 56 205.1 51.1 207.7 46.9C207.9 46.6 207.6 43.5 207.5 39.7C207.4 37.4 207.4 34.8 207.5 32.4C207.5 31.9 192.5 35.1 192.5 35.1C192.5 35.1 193.7 40.1 193.4 44.2C193.4 44.5 193.3 44.9 193.2 45.2C193.2 45.2 193.2 45.3 193.2 45.4C192.8 47.2 192.1 54 195.4 55Z" fill="#F7A9A0"/>
<path d="M206.6 32.3999C205.7 36.2999 202.6 45.7999 194.7 45.4999C194.1 45.4999 193.6 45.3999 193.2 45.2999C193.2 45.1999 193.2 45.1999 193.2 45.0999C193.3 44.7999 193.3 44.4999 193.4 44.0999C193.7 39.9999 192.5 34.9999 192.5 34.9999C192.5 34.9999 203.3 32.7999 206.6 32.3999Z" fill="#263238"/>
<path d="M208.3 13.5C210.3 18.6 208.7 34 205.3 37.6C200.3 42.9 191.5 44.1 186.8 37.9C182.3 31.9 184.7 12 188.6 8.60002C194.4 3.60002 205.4 5.90002 208.3 13.5Z" fill="#F7A9A0"/>
<path d="M194.6 23.9C194.6 23.8 194.7 23.9 194.6 23.9C194.5 25 194.6 26.2 195.5 26.7V26.8C194.3 26.4 194.3 24.8 194.6 23.9Z" fill="#263238"/>
<path d="M195.6 22.9C197.3 22.9 197.1 26.3 195.5 26.3C194 26.2 194.2 22.9 195.6 22.9Z" fill="#263238"/>
<path d="M188.8 23.6C188.8 23.5 188.7 23.6 188.8 23.6C188.7 24.7 188.5 25.9 187.5 26.2V26.3C188.7 26.1 188.9 24.6 188.8 23.6Z" fill="#263238"/>
<path d="M187.9 22.4C186.2 22.2 185.9 25.5 187.5 25.7C189 26 189.3 22.6 187.9 22.4Z" fill="#263238"/>
<path d="M197 21.3999C196.6 21.2999 196.2 21.0999 195.7 20.8999C195.2 20.6999 194.8 20.5999 194.5 20.0999C194.3 19.8999 194.4 19.3999 194.7 19.1999C195.2 18.7999 195.9 18.8999 196.5 19.0999C197.1 19.2999 197.6 19.6999 197.9 20.2999C198.3 20.9999 197.6 21.5999 197 21.3999Z" fill="#263238"/>
<path d="M186.7 20.7C187.2 20.7 187.6 20.5 188.1 20.4C188.6 20.3 189 20.3 189.4 19.9C189.6 19.7 189.6 19.3 189.4 19C189 18.5 188.3 18.5 187.7 18.6C187 18.7 186.5 19 186.1 19.5C185.6 20 186.1 20.7 186.7 20.7Z" fill="#263238"/>
<path d="M195.8 33.6C195.5 33.8 195.3 34.1 194.9 34.2C194.5 34.2 194.1 34 193.8 33.9C193.8 33.9 193.7 33.9 193.8 34C194 34.4 194.6 34.7 195.1 34.6C195.5 34.5 195.7 34.1 195.8 33.6C195.8 33.6 195.9 33.6 195.8 33.6Z" fill="#263238"/>
<path d="M194.9 30.5C194.3 31.4 193.4 31.8 192.5 31.9C192.1 32 191.6 31.9 191.2 31.9C191.1 31.9 191 31.9 191 31.9C190.9 31.9 190.9 31.9 190.8 31.9C190.7 31.9 190.6 31.8 190.6 31.7V31.6V31.5C190.6 30.7 190.8 29.5 190.8 29.5C190.5 29.6 189 30.2 189 29.8C189.4 26.4 189.9 22.5 191 19.2C191 19.1 191.2 19.1 191.2 19.2C190.9 22.5 190.1 25.8 189.8 29.1C190.3 28.9 191.1 28.7 191.5 28.7C191.6 28.7 191.2 31 191.2 31.4C192.4 31.5 193.4 31.2 194.9 30.5C194.9 30.4 194.8 30.3 194.9 30.5Z" fill="#263238"/>
<path d="M191.6 31.5C191.6 31.5 192.3 32.5 193.2 32.9C193.5 33 193.9 33.1 194.3 33C195.1 32.8 195.2 32.1 195.1 31.4C195 30.9 194.8 30.4 194.8 30.4C194.8 30.4 193.6 31.5 191.6 31.5Z" fill="#263238"/>
<path d="M193.2 32.9C193.5 33 193.9 33.1 194.3 33C195.1 32.8 195.2 32.1 195.1 31.4C194.3 31.5 193.4 32 193.2 32.9Z" fill="#FF6596"/>
<path d="M186.7 14.6C191.8 18.1 198.7 12.8 198.7 12.8C200.3 16.8 204.3 16.3 204.3 16.3C204.3 16.3 205.3 24.9 207.6 24.9C211.1 24.9 212.1 13.1 211 10.8C209.9 8.49998 207 7.89998 207 7.89998C207 7.89998 206.8 6.09998 204.7 4.49998C202.3 2.69998 194.2 5.09998 194.2 5.09998C194.2 5.09998 193.6 3.59998 192.1 2.29998C191.1 1.49998 189.8 1.59998 189 2.59998C189.4 3.19998 189.7 3.89998 189.8 4.69998C190.2 7.19998 188.1 7.19998 188.2 4.89998C188.2 3.89998 188.5 3.09998 189 2.49998C188 0.999981 186.3 0.49998 185.3 1.29998C183.6 2.89998 182.5 11.7 186.7 14.6Z" fill="#263238"/>
<path d="M206.1 26.1C206.1 26.1 209.2 21 211.5 22.1C213.8 23.2 211.6 30.4 209.1 31.6C206.5 32.7 205.5 30.4 205.5 30.4L206.1 26.1Z" fill="#F7A9A0"/>
<path d="M210.8 24.1C210.9 24.1 210.9 24.2 210.8 24.1C209 25 208.2 26.8 207.6 28.6C208.1 27.9 208.8 27.5 209.8 28.1V28.2C209 28.1 208.5 28.2 208 28.9C207.7 29.3 207.5 29.9 207.2 30.4C207.1 30.6 206.8 30.5 206.9 30.3C206.7 27.9 208.3 24.5 210.8 24.1Z" fill="#263238"/>
</svg>
