<svg width="75" height="75" viewBox="0 0 75 75" fill="none" xmlns="http://www.w3.org/2000/svg">
<path d="M54.3 0.5H20.4C9.3543 0.5 0.399994 9.45431 0.399994 20.5V54.4C0.399994 65.4457 9.35431 74.4 20.4 74.4H54.3C65.3457 74.4 74.3 65.4457 74.3 54.4V20.5C74.3 9.45431 65.3457 0.5 54.3 0.5Z" fill="#24CCA7"/>
<path d="M53.7 52.1H19.2L10.7 21.5H59.2L61 14.4H66.5V16.4H62.6L53.7 52.1ZM20.8 50.1H52.2L58.8 23.5H13.5L20.8 50.1Z" fill="white"/>
<path d="M24.1 58.2L22.2 57.4L25.3 50.1H48.8L51.3 57.5L49.4 58.1L47.3 52.1H26.7L24.1 58.2Z" fill="white"/>
<path d="M58.3 28.5H14.3V30.5H58.3V28.5Z" fill="white"/>
<path d="M55.8962 35.914L16.0962 36.0891L16.105 38.0891L55.905 37.914L55.8962 35.914Z" fill="white"/>
<path d="M54.3 43.7001H18.2V45.7001H54.3V43.7001Z" fill="white"/>
<path d="M37.7 22.7001H35.7V51.2001H37.7V22.7001Z" fill="white"/>
<path d="M29.9535 22.5652L27.9599 22.7251L30.2458 51.2336L32.2394 51.0737L29.9535 22.5652Z" fill="white"/>
<path d="M21.3622 22.4512L19.3952 22.813L24.6413 51.3345L26.6083 50.9727L21.3622 22.4512Z" fill="white"/>
<path d="M43.3656 22.5894L41.0742 51.0979L43.0678 51.2581L45.3592 22.7497L43.3656 22.5894Z" fill="white"/>
<path d="M51.9814 22.4129L46.7411 50.9344L48.7081 51.2958L53.9484 22.7743L51.9814 22.4129Z" fill="white"/>
<path d="M23.2 62.1C20.8 62.1 18.9 60.2 18.9 57.8C18.9 55.4 20.8 53.5 23.2 53.5C25.6 53.5 27.5 55.4 27.5 57.8C27.5 60.2 25.5 62.1 23.2 62.1ZM23.2 55.5C21.9 55.5 20.9 56.5 20.9 57.8C20.9 59.1 21.9 60.1 23.2 60.1C24.5 60.1 25.5 59.1 25.5 57.8C25.5 56.5 24.4 55.5 23.2 55.5Z" fill="white"/>
<path d="M50.3 62.1C47.9 62.1 46 60.2 46 57.8C46 55.4 47.9 53.5 50.3 53.5C52.7 53.5 54.6 55.4 54.6 57.8C54.6 60.2 52.7 62.1 50.3 62.1ZM50.3 55.5C49 55.5 48 56.5 48 57.8C48 59.1 49 60.1 50.3 60.1C51.6 60.1 52.6 59.1 52.6 57.8C52.6 56.5 51.5 55.5 50.3 55.5Z" fill="white"/>
</svg>
