<svg width="202" height="357" viewBox="0 0 202 357" fill="none" xmlns="http://www.w3.org/2000/svg">
<path d="M201.2 17.7V339.7C201.2 349.2 193.6 356.9 184.3 356.9H17.8C8.5 356.9 0.899994 349.2 0.899994 339.7V17.7C0.899994 8.2 8.5 0.5 17.8 0.5H184.4C193.6 0.6 201.2 8.3 201.2 17.7Z" fill="#263238"/>
<path d="M190.7 33.8999V329.2C190.7 338.2 183.9 345.5 175.6 345.5H26.6C18.2 345.5 11.5 338.2 11.5 329.2V33.8999C11.5 15.4999 18.3 11.3999 26.6 11.3999H56.4C58.1 11.3999 59.5 13.3999 59.5 15.7999V16.8999C59.5 22.5999 62.6 22.6999 66.5 22.6999H135.5C139.4 22.6999 142.5 22.6999 142.5 16.8999V15.7999C142.5 13.3999 143.9 11.3999 145.6 11.3999H175.5C183.9 11.4999 190.7 17.0999 190.7 33.8999Z" fill="white"/>
<path d="M110.5 15.5001H91.7C91.1 15.5001 90.5 15.0001 90.5 14.3001C90.5 13.7001 91 13.1001 91.7 13.1001H110.5C111.1 13.1001 111.7 13.6001 111.7 14.3001C111.6 15.0001 111.1 15.5001 110.5 15.5001Z" fill="white"/>
<path d="M172.3 142.8L172.5 222.7C172.5 227.2 168.9 230.8 164.4 230.8L37.7 231.1C33.2 231.1 29.6 227.5 29.6 223L29.4 143.1C29.4 138.9 32.7 135.6 36.9 135.6L164.7 135.3C168.9 135.3 172.3 138.7 172.3 142.8Z" fill="#4A56E2"/>
<path d="M151.827 212.563C152.403 208.517 149.59 204.77 145.544 204.194C141.498 203.618 137.751 206.431 137.175 210.477C136.599 214.524 139.412 218.27 143.458 218.846C147.504 219.422 151.251 216.609 151.827 212.563Z" fill="#37474F"/>
<path d="M161.1 211.5C161.1 215.6 157.8 218.9 153.7 219C149.6 219 146.3 215.7 146.2 211.6C146.2 207.5 149.5 204.2 153.6 204.1C157.7 204.1 161.1 207.4 161.1 211.5Z" fill="#FFC727"/>
<path d="M64.1 167.9H45.7C43.4 167.9 41.5 166 41.5 163.7V153.6C41.5 151.3 43.4 149.4 45.7 149.4H64.1C66.4 149.4 68.3 151.3 68.3 153.6V163.7C68.3 166 66.4 167.8 64.1 167.9Z" fill="#FFC727"/>
<path d="M155.8 159.2H143.7C140.9 159.2 138.6 156.9 138.6 154.1C138.6 151.3 140.9 149 143.7 149H155.8C158.6 149 160.9 151.3 160.9 154.1C160.9 157 158.7 159.2 155.8 159.2Z" fill="white"/>
<path d="M40.6 184.8L39.5 185.4H39.4C39.3 185.4 39.2 185.3 39.2 185.3C39.1 185.2 39.2 185 39.3 184.9L40.8 184C40.9 183.9 41.1 184 41.2 184.1C41.2 184.2 41.2 184.2 41.2 184.3V191.4C41.2 191.5 41.1 191.7 40.9 191.7C40.8 191.7 40.6 191.6 40.6 191.4V184.8Z" fill="#F8F8F8"/>
<path d="M43 191.3L46.6 188C47 187.6 47.3 187.1 47.3 186.5C47.3 186 47.1 185.5 46.8 185.2C46.4 184.8 45.9 184.5 45.3 184.5C44.8 184.5 44.3 184.7 43.9 185L43.5 185.3C43.4 185.4 43.2 185.4 43.1 185.3C43 185.2 43 185 43.1 184.9L43.5 184.5C44 184.1 44.6 183.8 45.2 183.8C45.9 183.8 46.6 184.1 47.1 184.6C47.6 185.1 47.8 185.7 47.8 186.3C47.8 187 47.5 187.7 47 188.2L43.9 191H47.6C47.7 191 47.9 191.1 47.9 191.3C47.9 191.4 47.8 191.6 47.6 191.6H43.3C43.2 191.6 43.1 191.6 43.1 191.5C42.9 191.6 42.9 191.4 43 191.3Z" fill="#F8F8F8"/>
<path d="M54.3 184.5L52.3 186.6C52.8 186.7 53.3 186.9 53.6 187.3C54.1 187.8 54.4 188.5 54.4 189.2C54.4 189.9 54.1 190.6 53.6 191.1C53.1 191.6 52.4 191.9 51.7 191.9C51 191.9 50.4 191.6 49.8 191.1C49.7 191 49.7 190.8 49.8 190.7C49.9 190.6 50.1 190.6 50.2 190.7C50.6 191.1 51.1 191.3 51.7 191.3C52.2 191.3 52.8 191.1 53.2 190.7C53.6 190.3 53.8 189.8 53.8 189.2C53.8 188.7 53.6 188.1 53.2 187.7C52.8 187.3 52.3 187.1 51.7 187.1C51.6 187.1 51.5 187.1 51.5 187C51.4 186.9 51.4 186.7 51.5 186.6L53.4 184.6H50.4C50.2 184.6 50.1 184.5 50.1 184.3C50.1 184.1 50.2 184 50.4 184H54C54.2 184 54.3 184.1 54.3 184.3C54.4 184.3 54.3 184.4 54.3 184.5C54.3 184.5 54.3 184.4 54.3 184.5Z" fill="#F8F8F8"/>
<path d="M60.8 190.2H56.6C56.5 190.2 56.5 190.2 56.4 190.1C56.3 190 56.3 189.8 56.4 189.7L60.9 184.1C61 184 61.2 184 61.3 184.1L61.4 184.2V189.5H61.9C62.1 189.5 62.2 189.6 62.2 189.8C62.2 189.9 62.1 190.1 61.9 190.1H61.4V191.4C61.4 191.5 61.3 191.7 61.1 191.7C61 191.7 60.8 191.6 60.8 191.4V190.2ZM60.8 189.6V185L57.1 189.6H60.8Z" fill="#F8F8F8"/>
<path d="M70.6 191C70.5 190.9 70.5 190.7 70.6 190.6C70.7 190.5 70.9 190.5 71 190.6C71.4 191 71.9 191.2 72.5 191.2C73 191.2 73.6 191 74 190.6C74.4 190.2 74.6 189.7 74.6 189.1C74.6 188.6 74.4 188 74 187.6C73.6 187.2 73.1 187 72.5 187C72 187 71.4 187.2 71 187.6C70.9 187.7 70.7 187.7 70.6 187.6L70.5 187.5V187.4C70.5 187.4 70.5 187.4 70.5 187.3L70.9 184.2C70.9 184.1 70.9 184 71 184C71 184 71.1 183.9 71.2 183.9H74.8C75 183.9 75.1 184 75.1 184.2C75.1 184.4 75 184.5 74.8 184.5H71.4L71.1 186.8C71.5 186.6 72 186.4 72.4 186.4C73.1 186.4 73.7 186.6 74.3 187.2C74.8 187.7 75.1 188.4 75.1 189.1C75.1 189.8 74.9 190.5 74.3 191C73.8 191.5 73.1 191.8 72.4 191.8C71.8 191.7 71.1 191.5 70.6 191Z" fill="#F8F8F8"/>
<path d="M78 185.6C78.5 184.7 79.4 184 80.7 183.9C80.8 183.9 81 184 81 184.2C81 184.4 80.9 184.5 80.7 184.5C79.6 184.5 78.9 185.1 78.4 185.9C78.1 186.4 78 186.9 77.8 187.5C78.3 187 79 186.6 79.7 186.6C81.1 186.6 82.3 187.7 82.3 189.2C82.3 190.6 81.2 191.8 79.7 191.8C78.3 191.8 77.2 190.7 77.1 189.3C77.1 189.1 77.1 189 77.1 188.8C77.2 187.7 77.4 186.6 78 185.6ZM77.8 189.2C77.8 189.3 77.8 189.3 77.8 189.3V189.4C77.9 190.4 78.8 191.2 79.8 191.2C80.9 191.2 81.8 190.3 81.8 189.2C81.8 188.1 80.9 187.2 79.7 187.2C78.7 187.1 77.8 188 77.8 189.2Z" fill="#F8F8F8"/>
<path d="M85.2 191.3L88.1 184.5H84.3C84.2 184.5 84 184.4 84 184.2C84 184.1 84.1 183.9 84.3 183.9H88.4C88.5 183.9 88.5 183.9 88.6 183.9C88.7 183.9 88.7 184 88.7 184.1V184.2C88.7 184.3 88.7 184.3 88.7 184.3L85.7 191.5C85.7 191.6 85.6 191.7 85.5 191.7H85.4C85.2 191.6 85.2 191.4 85.2 191.3Z" fill="#F8F8F8"/>
<path d="M92.9 183.9C93.8 183.9 94.5 184.6 94.5 185.5C94.5 186 94.2 186.5 93.8 186.8C94.7 187.2 95.4 188.1 95.4 189.1C95.4 190.5 94.3 191.6 92.9 191.6C91.5 191.6 90.4 190.5 90.4 189.1C90.4 188.1 91 187.1 92 186.8C91.6 186.5 91.4 186 91.4 185.5C91.3 184.6 92 183.9 92.9 183.9ZM92.9 191.1C94 191.1 94.9 190.2 94.9 189.1C94.9 188 94 187.1 92.9 187.1C91.8 187.1 90.9 188 90.9 189.1C90.9 190.3 91.8 191.1 92.9 191.1ZM92.9 186.6C93.5 186.6 94 186.1 94 185.5C94 184.9 93.5 184.4 92.9 184.4C92.3 184.4 91.8 184.9 91.8 185.5C91.8 186.1 92.3 186.6 92.9 186.6Z" fill="#F8F8F8"/>
<path d="M106.7 183.9C108 183.9 109.1 184.9 109.3 186.2C109.3 186.2 109.3 186.2 109.3 186.3C109.3 186.5 109.3 186.7 109.3 187C109.3 188 109.1 189.2 108.6 190.1C108.1 191 107.2 191.7 105.9 191.8C105.7 191.8 105.6 191.7 105.6 191.5C105.6 191.3 105.7 191.2 105.9 191.2C107 191.2 107.7 190.6 108.2 189.8C108.5 189.3 108.7 188.8 108.8 188.2C108.3 188.7 107.6 189.1 106.9 189.1C105.5 189.1 104.3 188 104.3 186.5C104.2 185 105.3 183.9 106.7 183.9ZM108.8 186.4C108.8 185.3 107.9 184.4 106.8 184.4C105.7 184.4 104.8 185.3 104.8 186.4C104.8 187.5 105.7 188.4 106.8 188.4C107.9 188.4 108.8 187.5 108.8 186.4Z" fill="#F8F8F8"/>
<path d="M111.3 187.7C111.3 186.7 111.6 185.7 112 185C112.5 184.3 113.2 183.8 113.9 183.8C114.7 183.8 115.4 184.3 115.8 185C116.3 185.7 116.6 186.7 116.6 187.7C116.6 188.7 116.3 189.7 115.9 190.4C115.4 191.1 114.7 191.6 114 191.6C113.2 191.6 112.5 191.1 112.1 190.4C111.6 189.7 111.3 188.8 111.3 187.7ZM111.8 187.7C111.8 188.7 112.1 189.5 112.5 190.1C112.9 190.7 113.4 191 114 191C114.6 191 115.1 190.7 115.5 190.1C115.9 189.5 116.2 188.6 116.2 187.7C116.2 186.7 115.9 185.9 115.5 185.3C115.1 184.7 114.6 184.4 114 184.4C113.4 184.4 112.9 184.7 112.5 185.3C112.1 185.9 111.8 186.8 111.8 187.7Z" fill="#F8F8F8"/>
<path d="M120.3 184.6L119.2 185.2H119.1C119 185.2 118.9 185.1 118.9 185.1C118.8 185 118.9 184.8 119 184.7L120.5 183.8C120.6 183.7 120.8 183.8 120.9 183.9C120.9 184 120.9 184 120.9 184.1V191.2C120.9 191.3 120.8 191.5 120.6 191.5C120.5 191.5 120.3 191.4 120.3 191.2V184.6Z" fill="#F8F8F8"/>
<path d="M122.7 191.1L126.3 187.8C126.7 187.4 127 186.9 127 186.3C127 185.8 126.8 185.3 126.5 185C126.1 184.6 125.6 184.3 125 184.3C124.5 184.3 124 184.5 123.6 184.8L123.2 185.1C123.1 185.2 122.9 185.2 122.8 185.1C122.7 185 122.7 184.8 122.8 184.7L123.2 184.3C123.7 183.9 124.3 183.6 124.9 183.6C125.6 183.6 126.3 183.9 126.8 184.4C127.3 184.9 127.5 185.5 127.5 186.1C127.5 186.8 127.2 187.5 126.7 188L123.6 190.8H127.3C127.4 190.8 127.6 190.9 127.6 191.1C127.6 191.2 127.5 191.4 127.3 191.4H123C122.9 191.4 122.8 191.4 122.8 191.3C122.6 191.4 122.6 191.2 122.7 191.1Z" fill="#F8F8F8"/>
<path d="M140.6 184.3L138.6 186.4C139.1 186.5 139.6 186.7 139.9 187.1C140.4 187.6 140.7 188.3 140.7 189C140.7 189.7 140.4 190.4 139.9 190.9C139.4 191.4 138.7 191.7 138 191.7C137.3 191.7 136.7 191.4 136.1 190.9C136 190.8 136 190.6 136.1 190.5C136.2 190.4 136.4 190.4 136.5 190.5C136.9 190.9 137.4 191.1 138 191.1C138.5 191.1 139.1 190.9 139.5 190.5C139.9 190.1 140.1 189.6 140.1 189C140.1 188.5 139.9 187.9 139.5 187.5C139.1 187.1 138.6 186.9 138 186.9C137.9 186.9 137.8 186.9 137.8 186.8C137.7 186.7 137.7 186.5 137.8 186.4L139.7 184.4H136.7C136.5 184.4 136.4 184.3 136.4 184.1C136.4 183.9 136.5 183.8 136.7 183.8H140.3C140.5 183.8 140.6 183.9 140.6 184.1C140.7 184.1 140.7 184.1 140.6 184.3C140.7 184.2 140.7 184.2 140.6 184.3Z" fill="#F8F8F8"/>
<path d="M147.2 189.9H143C142.9 189.9 142.9 189.9 142.8 189.8C142.7 189.7 142.7 189.5 142.8 189.4L147.3 183.8C147.4 183.7 147.6 183.7 147.7 183.8L147.8 183.9V189.2H148.3C148.5 189.2 148.6 189.3 148.6 189.5C148.6 189.6 148.5 189.8 148.3 189.8H147.8V191.1C147.8 191.2 147.7 191.4 147.5 191.4C147.4 191.4 147.2 191.3 147.2 191.1V189.9ZM147.2 189.4V184.8L143.5 189.4H147.2Z" fill="#F8F8F8"/>
<path d="M150.3 190.8C150.2 190.7 150.2 190.5 150.3 190.4C150.4 190.3 150.6 190.3 150.7 190.4C151.1 190.8 151.6 191 152.2 191C152.7 191 153.3 190.8 153.7 190.4C154.1 190 154.3 189.5 154.3 188.9C154.3 188.4 154.1 187.8 153.7 187.4C153.3 187 152.8 186.8 152.2 186.8C151.7 186.8 151.1 187 150.7 187.4C150.6 187.5 150.4 187.5 150.3 187.4L150.2 187.3V187.2C150.2 187.2 150.2 187.2 150.2 187.1L150.6 184C150.6 183.9 150.6 183.8 150.7 183.8C150.7 183.8 150.8 183.7 150.9 183.7H154.5C154.7 183.7 154.8 183.8 154.8 184C154.8 184.2 154.7 184.3 154.5 184.3H151.1L150.8 186.6C151.2 186.4 151.7 186.2 152.1 186.2C152.8 186.2 153.4 186.4 154 187C154.5 187.5 154.8 188.2 154.8 188.9C154.8 189.6 154.6 190.3 154 190.8C153.5 191.3 152.8 191.6 152.1 191.6C151.5 191.5 150.8 191.3 150.3 190.8Z" fill="#F8F8F8"/>
<path d="M157.7 185.4C158.2 184.5 159.1 183.8 160.4 183.7C160.5 183.7 160.7 183.8 160.7 184C160.7 184.2 160.6 184.3 160.4 184.3C159.3 184.3 158.6 184.9 158.1 185.7C157.8 186.2 157.7 186.7 157.5 187.3C158 186.8 158.7 186.4 159.4 186.4C160.8 186.4 162 187.5 162 189C162 190.4 160.9 191.6 159.4 191.6C158 191.6 156.9 190.5 156.8 189.1C156.8 188.9 156.8 188.8 156.8 188.6C156.9 187.5 157.1 186.3 157.7 185.4ZM157.5 189C157.5 189.1 157.5 189.1 157.5 189.1V189.2C157.6 190.2 158.5 191 159.5 191C160.6 191 161.5 190.1 161.5 189C161.5 187.9 160.6 187 159.4 187C158.4 186.9 157.5 187.8 157.5 189Z" fill="#F8F8F8"/>
<path d="M109.496 205.012L41.5965 205.189L41.605 208.489L109.505 208.312L109.496 205.012Z" fill="#263238"/>
<path d="M89.5963 212.439L41.5963 212.563L41.6049 215.863L89.6049 215.739L89.5963 212.439Z" fill="#263238"/>
<path d="M133.897 149.157L100.097 149.244L100.105 152.544L133.905 152.457L133.897 149.157Z" fill="#263238"/>
<path d="M30.5 119.4C30.5 119.3 30.6 119.1 30.8 119.1H32.8C33.9 119.1 34.9 120 34.9 121.2C34.9 122.3 34 123.3 32.8 123.3H31V126.2C31 126.3 30.9 126.5 30.7 126.5C30.6 126.5 30.4 126.4 30.4 126.2V119.4H30.5ZM32.8 122.9C33.7 122.9 34.4 122.2 34.4 121.3C34.4 120.4 33.7 119.7 32.8 119.7H31V122.9H32.8V122.9Z" fill="#263238"/>
<path d="M40.8 121.6V126.2C40.8 126.3 40.7 126.5 40.5 126.5C40.4 126.5 40.2 126.4 40.2 126.2V125.4C39.8 126 39.1 126.4 38.3 126.4C37 126.4 35.9 125.2 35.9 123.8C35.9 122.4 37 121.2 38.3 121.2C39.1 121.2 39.8 121.6 40.2 122.2V121.4C40.2 121.3 40.3 121.1 40.5 121.1C40.7 121.4 40.8 121.5 40.8 121.6ZM40.3 123.9C40.3 122.8 39.4 121.8 38.4 121.8C37.4 121.8 36.5 122.7 36.5 123.9C36.5 125 37.4 126 38.4 126C39.4 126 40.3 125.1 40.3 123.9Z" fill="#263238"/>
<path d="M42.9 121.6C42.9 121.5 43 121.4 43.1 121.4C43.2 121.4 43.4 121.5 43.4 121.6V124.4C43.4 125.3 44.1 126 45 126C45.9 126 46.6 125.3 46.6 124.4V121.6V121.5L46.7 121.4C46.7 121.4 46.8 121.4 46.8 121.5L46.9 121.6V121.7V124.5V124.6V126.2C46.9 127.5 45.8 128.6 44.5 128.6C44.1 128.6 43.8 128.5 43.4 128.4C43.3 128.3 43.2 128.2 43.3 128.1C43.4 128 43.5 127.9 43.6 128C43.9 128.1 44.1 128.2 44.4 128.2C45.5 128.2 46.3 127.4 46.3 126.3V126C45.9 126.4 45.4 126.7 44.7 126.7C43.6 126.7 42.6 125.8 42.6 124.6V121.6H42.9Z" fill="#263238"/>
<path d="M56.7 123.5C56.7 122.6 56 121.9 55.1 121.9C54.2 121.9 53.5 122.6 53.5 123.5V126.3C53.5 126.4 53.4 126.4 53.4 126.4H53.3C53.3 126.4 53.3 126.4 53.2 126.4V123.6C53.2 122.7 52.5 122 51.6 122C50.7 122 50 122.7 50 123.6V126.4C50 126.5 50 126.6 49.9 126.6C49.9 126.6 49.9 126.6 49.8 126.6C49.7 126.6 49.6 126.5 49.6 126.4V126.3V123.5V123.4V121.6C49.6 121.5 49.7 121.4 49.8 121.4C49.9 121.4 50.1 121.5 50.1 121.6V122.1C50.5 121.7 51 121.4 51.7 121.4C52.5 121.4 53.2 121.8 53.5 122.5C53.9 121.9 54.6 121.4 55.3 121.4C56.4 121.4 57.4 122.3 57.4 123.5V126.3C57.4 126.4 57.3 126.5 57.1 126.5C57 126.5 56.9 126.4 56.9 126.3V123.5H56.7Z" fill="#263238"/>
<path d="M59 124C59 122.6 60.1 121.4 61.5 121.4C62.8 121.4 63.9 122.4 64 123.8C64 123.9 63.9 124 63.7 124H59.5C59.6 125.1 60.4 126 61.5 126C62.2 126 62.8 125.6 63.1 125.1C63.2 125 63.3 125 63.4 125C63.5 125.1 63.6 125.2 63.5 125.4C63.1 126.1 62.3 126.6 61.4 126.6C60.1 126.5 59 125.4 59 124ZM59.5 123.5H63.4C63.2 122.5 62.4 121.8 61.5 121.8C60.5 121.9 59.7 122.6 59.5 123.5Z" fill="#263238"/>
<path d="M69.4 123.5C69.4 122.6 68.7 121.9 67.8 121.9C66.9 121.9 66.2 122.6 66.2 123.5V126.3C66.2 126.3 66.2 126.4 66.1 126.4C66.1 126.5 66 126.5 65.9 126.5H65.8C65.7 126.5 65.7 126.4 65.6 126.4V126.3V123.5V123.4V121.7C65.6 121.6 65.7 121.4 65.9 121.4C66 121.4 66.1 121.5 66.1 121.7V122.2C66.5 121.8 67 121.5 67.7 121.5C68.8 121.5 69.8 122.4 69.8 123.6V126.4C69.8 126.5 69.7 126.7 69.5 126.7C69.4 126.7 69.2 126.6 69.2 126.4V123.5H69.4Z" fill="#263238"/>
<path d="M73.9 121.6C73.9 121.7 73.8 121.9 73.6 121.9H73V125.6C73 125.9 73.3 126 73.4 126C73.5 126 73.7 126.1 73.7 126.3C73.7 126.4 73.6 126.6 73.4 126.6C72.9 126.6 72.5 126.2 72.5 125.7V122H71.9C71.6 122 71.6 121.9 71.6 121.7C71.6 121.6 71.6 121.4 71.9 121.4H72.5V119.5C72.5 119.4 72.6 119.2 72.8 119.2C72.9 119.2 73.1 119.3 73.1 119.5V121.4H73.8C73.8 121.4 73.9 121.5 73.9 121.6Z" fill="#263238"/>
<path d="M86.7 123.5C86.7 122.6 86 121.9 85.1 121.9C84.2 121.9 83.5 122.6 83.5 123.5V126.3C83.5 126.4 83.4 126.4 83.4 126.4H83.3C83.3 126.4 83.3 126.4 83.2 126.4V123.6C83.2 122.7 82.5 122 81.6 122C80.7 122 80 122.7 80 123.6V126.4C80 126.5 80 126.6 79.9 126.6C79.9 126.6 79.9 126.6 79.8 126.6C79.7 126.6 79.6 126.5 79.6 126.4V126.3V123.5V123.4V121.6C79.6 121.5 79.7 121.4 79.8 121.4C79.9 121.4 80.1 121.5 80.1 121.6V122.1C80.5 121.7 81 121.4 81.7 121.4C82.5 121.4 83.2 121.8 83.5 122.5C83.9 121.9 84.6 121.4 85.3 121.4C86.4 121.4 87.4 122.3 87.4 123.5V126.3C87.4 126.4 87.3 126.5 87.1 126.5C87 126.5 86.9 126.4 86.9 126.3V123.5H86.7Z" fill="#263238"/>
<path d="M89 124C89 122.6 90.1 121.4 91.5 121.4C92.8 121.4 93.9 122.4 94 123.8C94 123.9 93.9 124 93.7 124H89.5C89.6 125.1 90.4 126 91.5 126C92.2 126 92.8 125.6 93.1 125.1C93.2 125 93.3 125 93.4 125C93.5 125.1 93.6 125.2 93.5 125.4C93.1 126.1 92.3 126.6 91.4 126.6C90.1 126.5 89 125.4 89 124ZM89.5 123.5H93.4C93.2 122.5 92.4 121.8 91.5 121.8C90.5 121.9 89.7 122.6 89.5 123.5Z" fill="#263238"/>
<path d="M97.1 121.6C97.1 121.7 97 121.9 96.8 121.9H96.1V125.6C96.1 125.9 96.4 126 96.5 126C96.6 126 96.8 126.1 96.8 126.3C96.8 126.4 96.7 126.6 96.5 126.6C96 126.6 95.6 126.2 95.6 125.7V122H95C94.7 122 94.7 121.9 94.7 121.7C94.7 121.6 94.7 121.4 95 121.4H95.6V119.5C95.6 119.4 95.7 119.2 95.9 119.2C96 119.2 96.2 119.3 96.2 119.5V121.4H96.9C97 121.4 97.1 121.5 97.1 121.6Z" fill="#263238"/>
<path d="M103 123.4C103 122.5 102.3 121.9 101.4 121.9C100.5 121.9 99.8 122.5 99.8 123.4V126.2C99.8 126.3 99.7 126.3 99.6 126.3C99.5 126.3 99.5 126.3 99.4 126.2V126.1V126V123.2V123.1V119.2C99.4 119.1 99.5 118.9 99.7 118.9C99.8 118.9 100 119 100 119.2V121.9C100.4 121.4 101 121.1 101.6 121.1C102.8 121.1 103.7 121.9 103.7 123.1V125.9C103.7 126 103.6 126.2 103.4 126.2C103.3 126.2 103.2 126.1 103.2 125.9V123.4H103Z" fill="#263238"/>
<path d="M107.9 121.4C109.2 121.4 110.3 122.6 110.3 124C110.3 125.4 109.2 126.6 107.9 126.6C106.6 126.6 105.5 125.4 105.5 124C105.4 122.6 106.5 121.4 107.9 121.4ZM107.9 126C108.9 126 109.8 125.1 109.8 123.9C109.8 122.8 108.9 121.8 107.9 121.8C106.9 121.8 106 122.7 106 123.9C105.9 125.1 106.8 126 107.9 126Z" fill="#263238"/>
<path d="M116.3 125.5C115.9 126.1 115.1 126.5 114.3 126.5C112.9 126.5 111.8 125.4 111.8 124C111.8 122.6 112.9 121.4 114.3 121.4C115.1 121.4 115.8 121.8 116.3 122.4V119.5C116.3 119.4 116.4 119.2 116.6 119.2C116.7 119.2 116.8 119.3 116.8 119.5V123.9V124V126.3C116.8 126.4 116.7 126.6 116.6 126.6C116.5 126.6 116.3 126.5 116.3 126.3V125.5ZM116.3 124V123.8C116.3 122.7 115.4 121.8 114.3 121.8C113.2 121.8 112.3 122.7 112.3 123.9C112.3 125 113.2 125.9 114.3 125.9C115.4 126 116.3 125.1 116.3 124Z" fill="#263238"/>
<path d="M32.4 70.4999H30.2C30.1 70.4999 29.9 70.3999 29.9 70.1999C29.9 70.0999 30 69.8999 30.2 69.8999H35.1C35.2 69.8999 35.4 69.9999 35.4 70.1999C35.4 70.2999 35.3 70.4999 35.1 70.4999H32.9V76.9999C32.9 77.0999 32.8 77.2999 32.6 77.2999C32.5 77.2999 32.3 77.1999 32.3 76.9999V70.4999H32.4Z" fill="#263238"/>
<path d="M37.9 72.2C39.2 72.2 40.3 73.4 40.3 74.8C40.3 76.2 39.2 77.4 37.9 77.4C36.6 77.4 35.5 76.2 35.5 74.8C35.5 73.4 36.6 72.2 37.9 72.2ZM37.9 76.8C38.9 76.8 39.8 75.9 39.8 74.7C39.8 73.6 38.9 72.6 37.9 72.6C36.9 72.6 36 73.5 36 74.7C36 75.9 36.9 76.8 37.9 76.8Z" fill="#263238"/>
<path d="M43.9 72.4999C43.9 72.5999 43.8 72.7999 43.6 72.7999H43V76.4999C43 76.7999 43.3 76.8999 43.4 76.8999C43.5 76.8999 43.7 76.9999 43.7 77.1999C43.7 77.2999 43.6 77.4999 43.4 77.4999C42.9 77.4999 42.5 77.0999 42.5 76.5999V72.8999H41.9C41.6 72.8999 41.6 72.7999 41.6 72.5999C41.6 72.4999 41.6 72.2999 41.9 72.2999H42.5V70.3999C42.5 70.2999 42.6 70.0999 42.8 70.0999C42.9 70.0999 43.1 70.1999 43.1 70.3999V72.2999H43.8C43.7 72.1999 43.9 72.3999 43.9 72.4999Z" fill="#263238"/>
<path d="M50.2 72.5V77.1C50.2 77.2 50.1 77.4 49.9 77.4C49.8 77.4 49.6 77.3 49.6 77.1V76.3C49.2 76.9 48.5 77.3 47.7 77.3C46.4 77.3 45.3 76.1 45.3 74.7C45.3 73.3 46.4 72.1 47.7 72.1C48.5 72.1 49.2 72.5 49.6 73.1V72.3C49.6 72.2 49.7 72 49.9 72C50.1 72.2 50.2 72.3 50.2 72.5ZM49.7 74.8C49.7 73.7 48.8 72.7 47.8 72.7C46.8 72.7 45.9 73.6 45.9 74.8C45.9 75.9 46.8 76.9 47.8 76.9C48.9 76.8 49.7 75.9 49.7 74.8Z" fill="#263238"/>
<path d="M52.6 70.3C52.6 70.2 52.7 70 52.9 70C53 70 53.2 70.1 53.2 70.3V77.1C53.2 77.2 53.1 77.4 52.9 77.4C52.8 77.4 52.6 77.3 52.6 77.1V70.3Z" fill="#263238"/>
<path d="M58.3 74.9V74.8V74.7V72.5C58.3 72.4 58.4 72.2 58.6 72.2C58.7 72.2 58.9 72.3 58.9 72.5V73.2C59.3 72.6 60 72.2 60.8 72.2C62.2 72.2 63.3 73.3 63.3 74.7C63.3 76.1 62.2 77.2 60.8 77.2C60 77.2 59.3 76.8 58.9 76.2V79.1C58.9 79.2 58.8 79.4 58.6 79.4C58.5 79.4 58.3 79.3 58.3 79.1V74.9ZM58.8 74.8C58.8 75.9 59.7 76.8 60.7 76.8C61.8 76.8 62.7 75.9 62.7 74.8C62.7 73.7 61.8 72.8 60.7 72.8C59.7 72.7 58.9 73.6 58.8 74.8Z" fill="#263238"/>
<path d="M65.2 72.5C65.2 72.4 65.3 72.2 65.5 72.2C65.6 72.2 65.7 72.3 65.7 72.5V73.6C65.7 73.6 65.7 73.5 65.8 73.5C66.2 72.9 66.9 72.2 67.8 72.2C67.9 72.2 68.1 72.3 68.1 72.5C68.1 72.6 68 72.8 67.8 72.8C67.1 72.8 66.7 73.2 66.3 73.6C66 74.1 65.8 74.6 65.7 74.8V74.9V77.1C65.7 77.2 65.6 77.4 65.5 77.4C65.4 77.4 65.2 77.3 65.2 77.1V72.5Z" fill="#263238"/>
<path d="M69.8 70.8C69.8 70.7 69.9 70.5 70.1 70.5C70.2 70.5 70.4 70.6 70.4 70.8V71C70.4 71.1 70.3 71.3 70.1 71.3C70 71.3 69.8 71.2 69.8 71V70.8ZM69.8 72.5C69.8 72.4 69.9 72.2 70.1 72.2C70.2 72.2 70.4 72.3 70.4 72.5V77.1C70.4 77.2 70.3 77.4 70.1 77.4C70 77.4 69.8 77.3 69.8 77.1V72.5Z" fill="#263238"/>
<path d="M72.3 74.7998C72.3 73.3998 73.5 72.2998 74.9 72.2998C75.5 72.2998 76.1 72.4998 76.5 72.8998C76.6 72.9998 76.6 73.0998 76.5 73.1998C76.4 73.2998 76.3 73.2998 76.2 73.1998C75.8 72.8998 75.4 72.6998 74.9 72.6998C73.7 72.6998 72.8 73.5998 72.8 74.7998C72.8 75.8998 73.7 76.8998 74.9 76.8998C75.4 76.8998 75.9 76.6998 76.2 76.4998C76.3 76.3998 76.5 76.3998 76.5 76.4998C76.6 76.5998 76.6 76.7998 76.4 76.8998C76 77.1998 75.4 77.3998 74.8 77.3998C73.5 77.2998 72.3 76.1998 72.3 74.7998Z" fill="#263238"/>
<path d="M78.2 74.8C78.2 73.4 79.3 72.2 80.7 72.2C82 72.2 83.1 73.2 83.2 74.6C83.2 74.7 83.1 74.8 82.9 74.8H78.7C78.8 75.9 79.6 76.8 80.7 76.8C81.4 76.8 82 76.4 82.3 75.9C82.4 75.8 82.5 75.8 82.6 75.8C82.7 75.9 82.8 76 82.7 76.2C82.3 76.9 81.5 77.4 80.6 77.4C79.3 77.3 78.2 76.2 78.2 74.8ZM78.7 74.4H82.6C82.4 73.4 81.6 72.7 80.7 72.7C79.7 72.7 78.9 73.4 78.7 74.4Z" fill="#263238"/>
<path d="M36.5 84.1001C37 84.1001 37.4 84.5001 37.4 85.0001V85.5001C38.6 85.6001 39.7 86.0001 40.6 86.6001C40.9 86.8001 41.2 87.1001 41.2 87.6001C41.2 88.2001 40.7 88.7001 40 88.7001C39.8 88.7001 39.6 88.6001 39.4 88.5001C38.7 88.1001 38 87.7001 37.2 87.6001V91.6001C40.4 92.4001 41.7 93.7001 41.7 95.9001C41.7 98.2001 39.9 99.7001 37.2 100V101.3C37.2 101.8 36.8 102.2 36.3 102.2C35.8 102.2 35.4 101.8 35.4 101.3V100C33.8 99.8001 32.4 99.3001 31.1 98.4001C30.7 98.2001 30.5 97.8001 30.5 97.4001C30.5 96.8001 31 96.3001 31.6 96.3001C31.9 96.3001 32.1 96.4001 32.3 96.5001C33.3 97.2001 34.2 97.7001 35.4 97.9001V93.8001C32.3 93.0001 30.9 91.9001 30.9 89.5001C30.9 87.3001 32.7 85.7001 35.3 85.5001V85.0001C35.6 84.5001 36 84.1001 36.5 84.1001ZM35.6 91.2001V87.5001C34.3 87.6001 33.6 88.3001 33.6 89.3001C33.6 90.2001 34 90.7001 35.6 91.2001ZM37.3 94.1001V97.9001C38.6 97.8001 39.4 97.1001 39.4 96.1001C39.4 95.2001 38.9 94.6001 37.3 94.1001Z" fill="#24CCA7"/>
<path d="M53.8 95.1001C53.8 97.8001 51.6 100.1 48.8 100.1C46 100.1 43.8 97.9001 43.8 95.1001C43.8 93.4001 44.7 91.8001 46 90.9001C45.6 90.3001 45.3 89.6001 45.3 88.8001C45.3 86.9001 46.8 85.4001 48.8 85.4001C50.7 85.4001 52.2 86.9001 52.2 88.8001C52.2 89.6001 51.9 90.3001 51.5 90.9001C52.9 91.8001 53.8 93.3001 53.8 95.1001ZM51.5 95.1001C51.5 93.6001 50.3 92.4001 48.8 92.4001C47.3 92.4001 46.1 93.6001 46.1 95.1001C46.1 96.6001 47.3 97.8001 48.8 97.8001C50.3 97.8001 51.5 96.5001 51.5 95.1001ZM47.6 88.8001C47.6 89.4001 48.1 90.0001 48.8 90.0001C49.4 90.0001 49.9 89.5001 49.9 88.8001C49.9 88.2001 49.4 87.7001 48.8 87.7001C48.1 87.7001 47.6 88.2001 47.6 88.8001Z" fill="#24CCA7"/>
<path d="M57.1 90.5001C57.1 87.7001 59.4 85.4001 62.2 85.4001C64.8 85.4001 67 87.4001 67.2 89.9001C67.2 90.3001 67.2 90.7001 67.2 91.1001C67.2 92.5001 67 94.0001 66.5 95.4001C66 96.8001 65.1 98.1001 63.8 99.0001C62.9 99.6001 61.9 99.9001 60.7 100C60.1 100 59.5 99.5001 59.5 98.9001C59.5 98.3001 60 97.8001 60.6 97.7001C61.4 97.7001 62 97.4001 62.6 97.1001C63.1 96.7001 63.6 96.3001 63.9 95.6001C64 95.4001 64.1 95.2001 64.2 95.1001C63.6 95.4001 62.9 95.5001 62.2 95.5001C59.3 95.5001 57.1 93.3001 57.1 90.5001ZM59.4 90.5001C59.4 92.0001 60.6 93.3001 62.2 93.3001C63.7 93.3001 64.9 92.0001 64.9 90.5001C64.9 89.0001 63.7 87.8001 62.2 87.8001C60.6 87.7001 59.4 88.9001 59.4 90.5001Z" fill="#24CCA7"/>
<path d="M70.5 101.9C71.5 101.6 72 100.9 71.9 100C71.3 99.8 70.7 99.3 70.7 98.6V98.4C70.7 97.6 71.3 97 72.1 97C73 97 73.6 97.7 73.6 98.8V99C73.6 100.4 73.2 101.4 72.6 102.1C72 102.6 71.2 103 70.6 103C70.2 103 70 102.7 70 102.4C70 102.2 70.2 102 70.5 101.9Z" fill="#24CCA7"/>
<path d="M75.1 90.5001C75.1 87.7001 77.4 85.4001 80.2 85.4001C82.8 85.4001 85 87.4001 85.2 89.9001C85.2 90.3001 85.2 90.7001 85.2 91.1001C85.2 92.5001 85 94.0001 84.5 95.4001C84 96.8001 83.1 98.1001 81.8 99.0001C80.9 99.6001 79.9 99.9001 78.7 100C78.1 100 77.5 99.5001 77.5 98.9001C77.5 98.3001 78 97.8001 78.6 97.7001C79.4 97.7001 80 97.4001 80.6 97.1001C81.1 96.7001 81.6 96.3001 81.9 95.6001C82 95.4001 82.1 95.2001 82.2 95.1001C81.6 95.4001 80.9 95.5001 80.2 95.5001C77.4 95.5001 75.1 93.3001 75.1 90.5001ZM77.4 90.5001C77.4 92.0001 78.6 93.3001 80.2 93.3001C81.7 93.3001 82.9 92.0001 82.9 90.5001C82.9 89.0001 81.7 87.8001 80.2 87.8001C78.6 87.7001 77.4 88.9001 77.4 90.5001Z" fill="#24CCA7"/>
<path d="M88.5 90.5001C88.5 87.7001 90.8 85.4001 93.6 85.4001C96.2 85.4001 98.4 87.4001 98.6 89.9001C98.6 90.3001 98.6 90.7001 98.6 91.1001C98.6 92.5001 98.4 94.0001 97.9 95.4001C97.4 96.8001 96.5 98.1001 95.2 99.0001C94.3 99.6001 93.3 99.9001 92.1 100C91.5 100 90.9 99.5001 90.9 98.9001C90.9 98.3001 91.4 97.8001 92 97.7001C92.8 97.7001 93.4 97.4001 94 97.1001C94.5 96.7001 95 96.3001 95.3 95.6001C95.4 95.4001 95.5 95.2001 95.6 95.1001C95 95.4001 94.3 95.5001 93.6 95.5001C90.8 95.5001 88.5 93.3001 88.5 90.5001ZM90.8 90.5001C90.8 92.0001 92 93.3001 93.6 93.3001C95.1 93.3001 96.3 92.0001 96.3 90.5001C96.3 89.0001 95.1 87.8001 93.6 87.8001C92 87.7001 90.8 88.9001 90.8 90.5001Z" fill="#24CCA7"/>
<path d="M65.9 42.4001C65.9 42.3001 66 42.1001 66.2 42.1001H68.2C69.3 42.1001 70.3 43.0001 70.3 44.2001C70.3 45.3001 69.4 46.3001 68.2 46.3001H66.4V49.2001C66.4 49.3001 66.3 49.5001 66.1 49.5001C66 49.5001 65.8 49.4001 65.8 49.2001V42.4001H65.9ZM68.2 45.9001C69.1 45.9001 69.8 45.2001 69.8 44.3001C69.8 43.4001 69.1 42.7001 68.2 42.7001H66.4V45.9001H68.2Z" fill="#263238"/>
<path d="M76.1 44.6001V49.2001C76.1 49.3001 76 49.5001 75.8 49.5001C75.7 49.5001 75.5 49.4001 75.5 49.2001V48.4001C75.1 49.0001 74.4 49.4001 73.6 49.4001C72.3 49.4001 71.2 48.2001 71.2 46.8001C71.2 45.4001 72.3 44.2001 73.6 44.2001C74.4 44.2001 75.1 44.6001 75.5 45.2001V44.4001C75.5 44.3001 75.6 44.1001 75.8 44.1001C76 44.4001 76.1 44.5001 76.1 44.6001ZM75.6 46.9001C75.6 45.8001 74.7 44.8001 73.7 44.8001C72.7 44.8001 71.8 45.7001 71.8 46.9001C71.8 48.0001 72.7 49.0001 73.7 49.0001C74.8 49.0001 75.6 48.1001 75.6 46.9001Z" fill="#263238"/>
<path d="M78.2 44.6001C78.2 44.5001 78.3 44.4001 78.4 44.4001C78.5 44.4001 78.7 44.5001 78.7 44.6001V47.4001C78.7 48.3001 79.4 49.0001 80.3 49.0001C81.2 49.0001 81.9 48.3001 81.9 47.4001V44.6001V44.5001L82 44.4001C82 44.4001 82.1 44.4001 82.1 44.5001L82.2 44.6001V44.7001V47.5001V47.6001V49.2001C82.2 50.5001 81.1 51.6001 79.8 51.6001C79.4 51.6001 79.1 51.5001 78.7 51.4001C78.6 51.3001 78.5 51.2001 78.6 51.1001C78.7 51.0001 78.8 50.9001 78.9 51.0001C79.2 51.1001 79.4 51.2001 79.7 51.2001C80.8 51.2001 81.6 50.4001 81.6 49.3001V49.0001C81.2 49.4001 80.7 49.7001 80 49.7001C78.9 49.7001 77.9 48.8001 77.9 47.6001V44.6001H78.2Z" fill="#263238"/>
<path d="M92.1 46.5001C92.1 45.6001 91.4 44.9001 90.5 44.9001C89.6 44.9001 88.9 45.6001 88.9 46.5001V49.3001C88.9 49.4001 88.8 49.4001 88.8 49.4001H88.7C88.7 49.4001 88.7 49.4001 88.6 49.4001V46.6001C88.6 45.7001 87.9 45.0001 87 45.0001C86.1 45.0001 85.4 45.7001 85.4 46.6001V49.4001C85.4 49.5001 85.4 49.6001 85.3 49.6001C85.3 49.6001 85.3 49.6001 85.2 49.6001C85.1 49.6001 85 49.5001 85 49.4001V49.3001V46.5001V46.4001V44.6001C85 44.5001 85.1 44.4001 85.2 44.4001C85.3 44.4001 85.5 44.5001 85.5 44.6001V45.1001C85.9 44.7001 86.4 44.4001 87.1 44.4001C87.9 44.4001 88.6 44.8001 88.9 45.5001C89.3 44.9001 90 44.4001 90.7 44.4001C91.8 44.4001 92.8 45.3001 92.8 46.5001V49.3001C92.8 49.4001 92.7 49.5001 92.5 49.5001C92.4 49.5001 92.3 49.4001 92.3 49.3001V46.5001H92.1Z" fill="#263238"/>
<path d="M94.3 46.9001C94.3 45.5001 95.4 44.3 96.8 44.3C98.1 44.3 99.2 45.3001 99.3 46.7001C99.3 46.8001 99.2 46.9001 99 46.9001H94.8C94.9 48.0001 95.7 48.9001 96.8 48.9001C97.5 48.9001 98.1 48.5 98.4 48C98.5 47.9 98.6 47.9001 98.7 47.9001C98.8 48.0001 98.9 48.1 98.8 48.3C98.4 49 97.6 49.5 96.7 49.5C95.4 49.5 94.3 48.3001 94.3 46.9001ZM94.9 46.5H98.8C98.6 45.5 97.8 44.8 96.9 44.8C95.9 44.9 95.1 45.6 94.9 46.5Z" fill="#263238"/>
<path d="M104.7 46.5001C104.7 45.6001 104 44.9001 103.1 44.9001C102.2 44.9001 101.5 45.6001 101.5 46.5001V49.3001C101.5 49.3001 101.5 49.4001 101.4 49.4001C101.4 49.5001 101.3 49.5001 101.2 49.5001H101.1C101 49.5001 101 49.4001 100.9 49.4001V49.3001V46.5001V46.4001V44.7001C100.9 44.6001 101 44.4001 101.2 44.4001C101.3 44.4001 101.4 44.5001 101.4 44.7001V45.2001C101.8 44.8001 102.3 44.5001 103 44.5001C104.1 44.5001 105.1 45.4001 105.1 46.6001V49.4001C105.1 49.5001 105 49.7001 104.8 49.7001C104.7 49.7001 104.6 49.6001 104.6 49.4001V46.5001H104.7Z" fill="#263238"/>
<path d="M109.3 44.6002C109.3 44.7002 109.2 44.9002 109 44.9002H108.3V48.6002C108.3 48.9002 108.6 49.0002 108.7 49.0002C108.8 49.0002 109 49.1002 109 49.3002C109 49.4002 108.9 49.6002 108.7 49.6002C108.2 49.6002 107.8 49.2002 107.8 48.7002V45.0002H107.2C107 45.0002 107 44.9002 107 44.7002C107 44.6002 107 44.4002 107.2 44.4002H107.8V42.5002C107.8 42.4002 107.9 42.2002 108 42.2002C108.1 42.2002 108.3 42.3002 108.3 42.5002V44.4002H109C109.1 44.4002 109.3 44.5002 109.3 44.6002Z" fill="#263238"/>
<path d="M115.2 49.5001C115 49.5001 114.9 49.4001 114.9 49.2001V42.4001C114.9 42.3001 115 42.1001 115.2 42.1001H116.5C118.5 42.1001 120.2 43.7001 120.2 45.8001C120.2 47.8001 118.6 49.4001 116.5 49.4001H115.2V49.5001ZM116.5 49.0001C118.2 49.0001 119.6 47.6001 119.6 45.9001C119.6 44.2001 118.2 42.8001 116.5 42.7001H115.4V49.0001H116.5Z" fill="#263238"/>
<path d="M125.6 44.6001V49.2001C125.6 49.3001 125.5 49.5001 125.4 49.5001C125.3 49.5001 125.1 49.4001 125.1 49.2001V48.4001C124.7 49.0001 124 49.4001 123.2 49.4001C121.9 49.4001 120.8 48.2001 120.8 46.8001C120.8 45.4001 121.9 44.2001 123.2 44.2001C124 44.2001 124.7 44.6001 125.1 45.2001V44.4001C125.1 44.3001 125.2 44.1001 125.4 44.1001C125.5 44.4001 125.6 44.5001 125.6 44.6001ZM125.1 46.9001C125.1 45.8001 124.2 44.8001 123.2 44.8001C122.2 44.8001 121.3 45.7001 121.3 46.9001C121.3 48.0001 122.2 49.0001 123.2 49.0001C124.3 49.0001 125.1 48.1001 125.1 46.9001Z" fill="#263238"/>
<path d="M129.6 44.6002C129.6 44.7002 129.5 44.9002 129.3 44.9002H128.6V48.6002C128.6 48.9002 128.9 49.0002 129 49.0002C129.1 49.0002 129.3 49.1002 129.3 49.3002C129.3 49.4002 129.2 49.6002 129 49.6002C128.5 49.6002 128.1 49.2002 128.1 48.7002V45.0002H127.5C127.3 45.0002 127.3 44.9002 127.3 44.7002C127.3 44.6002 127.3 44.4002 127.5 44.4002H128.1V42.5002C128.1 42.4002 128.2 42.2002 128.3 42.2002C128.4 42.2002 128.6 42.3002 128.6 42.5002V44.4002H129.3C129.5 44.4002 129.6 44.5002 129.6 44.6002Z" fill="#263238"/>
<path d="M136 44.6001V49.2001C136 49.3001 135.9 49.5001 135.7 49.5001C135.6 49.5001 135.5 49.4001 135.5 49.2001V48.4001C135.1 49.0001 134.4 49.4001 133.6 49.4001C132.3 49.4001 131.2 48.2001 131.2 46.8001C131.2 45.4001 132.3 44.2001 133.6 44.2001C134.4 44.2001 135.1 44.6001 135.5 45.2001V44.4001C135.5 44.3001 135.6 44.1001 135.7 44.1001C135.9 44.4001 136 44.5001 136 44.6001ZM135.5 46.9001C135.5 45.8001 134.6 44.8001 133.6 44.8001C132.6 44.8001 131.7 45.7001 131.7 46.9001C131.7 48.0001 132.6 49.0001 133.6 49.0001C134.6 49.0001 135.5 48.1001 135.5 46.9001Z" fill="#263238"/>
<path d="M35.1 48.7999L31.6 45.5999L35.1 42.3999L35.8 43.0999L33.2 45.5999L35.8 48.0999L35.1 48.7999Z" fill="#4A56E2"/>
<path d="M34.5 51.2C31.4 51.2 28.9 48.7 28.9 45.6C28.9 42.5 31.4 40 34.5 40C37.6 40 40.1 42.5 40.1 45.6C40.1 48.7 37.6 51.2 34.5 51.2ZM34.5 41C32 41 29.9 43 29.9 45.6C29.9 48.1 31.9 50.2 34.5 50.2C37 50.2 39.1 48.2 39.1 45.6C39.1 43.1 37 41 34.5 41Z" fill="#4A56E2"/>
<path d="M167.6 241.5C173.841 241.5 178.9 236.441 178.9 230.2C178.9 223.959 173.841 218.9 167.6 218.9C161.359 218.9 156.3 223.959 156.3 230.2C156.3 236.441 161.359 241.5 167.6 241.5Z" fill="#FFC727"/>
<path d="M164.3 237.4L160.1 230.9L161.9 229.7L164.5 233.9L172.8 223.5L174.4 224.8L164.3 237.4Z" fill="white"/>
<path d="M104.3 242C104.3 243.8 102.8 245.3 101 245.3C99.2 245.3 97.7 243.8 97.7 242C97.7 240.2 99.2 238.7 101 238.7C102.8 238.7 104.3 240.2 104.3 242Z" fill="#4A56E2"/>
<path d="M85.7 242C85.7 243.3 84.6 244.4 83.3 244.4C82 244.4 80.9 243.3 80.9 242C80.9 240.7 82 239.6 83.3 239.6C84.6 239.6 85.7 240.7 85.7 242Z" fill="#EBEBEB"/>
<path d="M121.2 242C121.2 243.3 120.1 244.4 118.8 244.4C117.5 244.4 116.4 243.3 116.4 242C116.4 240.7 117.5 239.6 118.8 239.6C120.1 239.6 121.2 240.7 121.2 242Z" fill="#EBEBEB"/>
<path d="M30.2 265.2C30.3 265.1 30.4 265.1 30.5 265.2C31 265.6 32 266.2 32.9 266.1C33.5 266.1 34.1 265.9 34.5 265.6C34.9 265.3 35.1 264.9 35.1 264.5C35.1 264.1 34.9 263.8 34.5 263.5C34.1 263.2 33.5 263 32.8 262.9C32.1 262.8 31.5 262.6 31.1 262.3C30.7 262 30.3 261.6 30.3 261C30.3 260.4 30.6 260 31.1 259.6C31.6 259.3 32.2 259.1 32.9 259.1C33.9 259.1 34.6 259.6 35.2 259.9C35.3 260 35.3 260.1 35.3 260.2C35.2 260.3 35.1 260.3 35 260.3C34.4 259.9 33.8 259.5 33 259.5C32.4 259.5 31.9 259.7 31.5 259.9C31.1 260.2 30.9 260.5 30.9 260.9C30.9 261.3 31.1 261.5 31.4 261.8C31.8 262.1 32.3 262.2 33 262.4C33.7 262.5 34.4 262.7 34.9 263.1C35.4 263.4 35.7 263.9 35.7 264.5C35.7 265.1 35.4 265.6 34.9 266C34.4 266.4 33.8 266.6 33 266.6C31.9 266.6 30.9 266 30.3 265.5C30.1 265.5 30.1 265.3 30.2 265.2Z" fill="#263238"/>
<path d="M41.7 261.8V266.4C41.7 266.5 41.6 266.7 41.4 266.7C41.3 266.7 41.1 266.6 41.1 266.4V265.6C40.7 266.2 40 266.6 39.2 266.6C37.9 266.6 36.8 265.4 36.8 264C36.8 262.6 37.9 261.4 39.2 261.4C40 261.4 40.7 261.8 41.1 262.4V261.6C41.1 261.5 41.2 261.3 41.4 261.3C41.5 261.5 41.7 261.6 41.7 261.8ZM41.2 264.1C41.2 263 40.3 262 39.3 262C38.3 262 37.4 262.9 37.4 264.1C37.4 265.2 38.3 266.2 39.3 266.2C40.3 266.1 41.2 265.2 41.2 264.1Z" fill="#263238"/>
<path d="M45.3 266.6L45.2 266.5L43.3 261.9C43.2 261.8 43.3 261.6 43.4 261.6C43.5 261.5 43.7 261.6 43.7 261.7L45.4 265.7L47.1 261.7C47.1 261.6 47.3 261.5 47.4 261.6C47.5 261.7 47.6 261.8 47.5 261.9L45.6 266.4C45.6 266.4 45.6 266.5 45.5 266.5C45.5 266.6 45.4 266.6 45.3 266.6C45.4 266.6 45.4 266.6 45.3 266.6Z" fill="#263238"/>
<path d="M49 264.1C49 262.7 50.1 261.5 51.5 261.5C52.8 261.5 53.9 262.5 54 263.9C54 264 53.9 264.1 53.7 264.1H49.5C49.6 265.2 50.4 266.1 51.5 266.1C52.2 266.1 52.8 265.7 53.1 265.2C53.2 265.1 53.3 265.1 53.4 265.1C53.5 265.2 53.6 265.3 53.5 265.5C53.1 266.2 52.3 266.7 51.4 266.7C50.1 266.6 49 265.5 49 264.1ZM49.6 263.7H53.5C53.3 262.7 52.5 262 51.6 262C50.5 262 49.7 262.7 49.6 263.7Z" fill="#263238"/>
<path d="M58.5 264C58.5 262.6 59.7 261.5 61.1 261.5C61.7 261.5 62.3 261.7 62.7 262.1C62.8 262.2 62.8 262.3 62.7 262.4C62.6 262.5 62.5 262.5 62.4 262.4C62 262.1 61.6 261.9 61.1 261.9C59.9 261.9 59 262.8 59 264C59 265.1 59.9 266.1 61.1 266.1C61.6 266.1 62.1 265.9 62.4 265.7C62.5 265.6 62.7 265.6 62.7 265.7C62.8 265.8 62.8 266 62.6 266.1C62.2 266.4 61.6 266.6 61 266.6C59.7 266.6 58.5 265.5 58.5 264Z" fill="#263238"/>
<path d="M69.1 261.8V266.4C69.1 266.5 69 266.7 68.8 266.7C68.7 266.7 68.5 266.6 68.5 266.4V265.6C68.1 266.2 67.4 266.6 66.6 266.6C65.3 266.6 64.2 265.4 64.2 264C64.2 262.6 65.3 261.4 66.6 261.4C67.4 261.4 68.1 261.8 68.5 262.4V261.6C68.5 261.5 68.6 261.3 68.8 261.3C69 261.5 69.1 261.6 69.1 261.8ZM68.6 264.1C68.6 263 67.7 262 66.7 262C65.7 262 64.8 262.9 64.8 264.1C64.8 265.2 65.7 266.2 66.7 266.2C67.8 266.1 68.6 265.2 68.6 264.1Z" fill="#263238"/>
<path d="M71.3 261.8C71.3 261.7 71.4 261.5 71.6 261.5C71.7 261.5 71.8 261.6 71.8 261.8V262.9C71.8 262.9 71.8 262.8 71.9 262.8C72.3 262.2 73 261.5 73.9 261.5C74 261.5 74.2 261.6 74.2 261.8C74.2 261.9 74.1 262 73.9 262C73.2 262 72.8 262.4 72.4 262.8C72.1 263.3 71.9 263.8 71.8 264V264.1V266.3C71.8 266.4 71.7 266.6 71.6 266.6C71.5 266.6 71.3 266.5 71.3 266.3V261.8Z" fill="#263238"/>
<path d="M79.7 265.6C79.3 266.2 78.5 266.6 77.7 266.6C76.3 266.6 75.2 265.5 75.2 264.1C75.2 262.7 76.3 261.5 77.7 261.5C78.5 261.5 79.2 261.9 79.7 262.5V259.6C79.7 259.5 79.8 259.4 80 259.4C80.1 259.4 80.3 259.5 80.3 259.6V264V264.1V266.4C80.3 266.5 80.2 266.7 80 266.7C79.9 266.7 79.7 266.6 79.7 266.4V265.6ZM79.7 264.2V264C79.7 262.9 78.8 262 77.7 262C76.6 262 75.7 262.9 75.7 264.1C75.7 265.2 76.6 266.1 77.7 266.1C78.8 266.1 79.7 265.2 79.7 264.2Z" fill="#263238"/>
<path d="M89.3 263.6C89.3 262.7 88.6 262 87.7 262C86.8 262 86.1 262.7 86.1 263.6V266.4C86.1 266.4 86.1 266.5 86 266.5C86 266.6 85.9 266.6 85.8 266.6H85.7C85.6 266.6 85.6 266.5 85.5 266.5V266.4V263.6V263.5V261.8C85.5 261.7 85.6 261.5 85.8 261.5C85.9 261.5 86 261.6 86 261.8V262.3C86.4 261.9 86.9 261.6 87.6 261.6C88.7 261.6 89.7 262.5 89.7 263.7V266.5C89.7 266.6 89.6 266.8 89.4 266.8C89.3 266.8 89.1 266.7 89.1 266.5V263.6H89.3Z" fill="#263238"/>
<path d="M92 261.7C92 261.6 92.1 261.5 92.3 261.5C92.4 261.5 92.6 261.6 92.6 261.7V264.5C92.6 265.4 93.3 266.1 94.2 266.1C95.1 266.1 95.8 265.4 95.8 264.5V261.7C95.8 261.6 95.9 261.5 96.1 261.5C96.2 261.5 96.4 261.6 96.4 261.7V264.5C96.4 265.6 95.5 266.6 94.3 266.6C93.2 266.6 92.2 265.7 92.2 264.5V261.7H92Z" fill="#263238"/>
<path d="M105.8 263.6C105.8 262.7 105.1 262 104.2 262C103.3 262 102.6 262.7 102.6 263.6V266.4C102.6 266.5 102.5 266.5 102.5 266.5H102.4C102.4 266.5 102.4 266.5 102.3 266.5V263.7C102.3 262.8 101.6 262.1 100.7 262.1C99.8 262.1 99.1 262.8 99.1 263.7V266.5C99.1 266.6 99.1 266.7 99 266.7C99 266.7 99 266.7 98.9 266.7C98.8 266.7 98.7 266.6 98.7 266.5V266.4V263.6V263.5V261.7C98.7 261.6 98.8 261.5 98.9 261.5C99 261.5 99.2 261.6 99.2 261.7V262.2C99.6 261.8 100.1 261.5 100.8 261.5C101.6 261.5 102.3 261.9 102.6 262.6C103 262 103.7 261.5 104.4 261.5C105.5 261.5 106.5 262.4 106.5 263.6V266.4C106.5 266.5 106.4 266.6 106.2 266.6C106.1 266.6 106 266.5 106 266.4V263.6H105.8Z" fill="#263238"/>
<path d="M108.4 264.2V264.1V264V259.6C108.4 259.5 108.5 259.4 108.6 259.4C108.7 259.4 108.9 259.5 108.9 259.6V262.5C109.3 261.9 110.1 261.5 110.9 261.5C112.3 261.5 113.4 262.6 113.4 264.1C113.4 265.5 112.3 266.6 110.9 266.6C110.1 266.6 109.4 266.2 108.9 265.6V266.3C108.9 266.4 108.8 266.6 108.6 266.6C108.5 266.6 108.4 266.5 108.4 266.3V264.2ZM108.9 264.1C108.9 265.2 109.8 266.1 110.9 266.1C112 266.1 112.9 265.2 112.9 264.1C112.9 263 112 262 110.9 262C109.8 262 109 262.9 108.9 264.1Z" fill="#263238"/>
<path d="M114.9 264.1C114.9 262.7 116 261.5 117.4 261.5C118.7 261.5 119.8 262.5 119.9 263.9C119.9 264 119.8 264.1 119.6 264.1H115.4C115.5 265.2 116.3 266.1 117.4 266.1C118.1 266.1 118.7 265.7 119 265.2C119.1 265.1 119.2 265.1 119.3 265.1C119.4 265.2 119.5 265.3 119.4 265.5C119 266.2 118.2 266.7 117.3 266.7C116 266.6 114.9 265.5 114.9 264.1ZM115.5 263.7H119.4C119.2 262.7 118.4 262 117.5 262C116.5 262 115.7 262.7 115.5 263.7Z" fill="#263238"/>
<path d="M121.4 261.8C121.4 261.7 121.5 261.5 121.7 261.5C121.8 261.5 121.9 261.6 121.9 261.8V262.9C121.9 262.9 121.9 262.8 122 262.8C122.4 262.2 123.1 261.5 124 261.5C124.1 261.5 124.2 261.6 124.2 261.8C124.2 261.9 124.1 262 124 262C123.3 262 122.9 262.4 122.5 262.8C122.2 263.3 122 263.8 121.9 264V264.1V266.3C121.9 266.4 121.8 266.6 121.7 266.6C121.6 266.6 121.4 266.5 121.4 266.3V261.8Z" fill="#263238"/>
<path opacity="0.5" d="M165.4 268.5H151.4C148.6 268.5 146.2 266.2 146.2 263.3V262.8C146.2 260 148.5 257.6 151.4 257.6H165.4C168.2 257.6 170.6 259.9 170.6 262.8V263.3C170.5 266.2 168.2 268.5 165.4 268.5Z" fill="#4A56E2"/>
<path d="M169.6 263.1C169.6 265.6 167.6 267.7 165 267.7C162.5 267.7 160.4 265.7 160.4 263.1C160.4 260.6 162.4 258.5 165 258.5C167.6 258.5 169.6 260.6 169.6 263.1Z" fill="#4A56E2"/>
<path d="M153.6 293.7H48.4C45.0863 293.7 42.4 296.386 42.4 299.7V310.2C42.4 313.514 45.0863 316.2 48.4 316.2H153.6C156.914 316.2 159.6 313.514 159.6 310.2V299.7C159.6 296.386 156.914 293.7 153.6 293.7Z" fill="#24CCA7"/>
<path d="M52.5 300.7C52.5 300.6 52.6 300.4 52.8 300.4H54.8C55.9 300.4 56.9 301.3 56.9 302.5C56.9 303.7 56 304.6 54.8 304.6H53V307.5C53 307.6 52.9 307.7 52.7 307.7C52.6 307.7 52.4 307.6 52.4 307.5V300.7H52.5ZM54.8 304.1C55.7 304.1 56.4 303.4 56.4 302.5C56.4 301.6 55.7 300.9 54.8 300.9H53V304.1H54.8V304.1Z" fill="white"/>
<path d="M58.5 302.9C58.5 302.8 58.6 302.7 58.8 302.7C58.9 302.7 59 302.8 59 302.9V304C59 304 59 303.9 59.1 303.9C59.5 303.3 60.2 302.6 61.1 302.6C61.2 302.6 61.4 302.7 61.4 302.8C61.4 302.9 61.3 303.1 61.1 303.1C60.4 303.1 60 303.5 59.6 303.9C59.3 304.4 59.1 304.9 59 305.1V305.2V307.4C59 307.5 58.9 307.6 58.8 307.6C58.7 307.6 58.5 307.5 58.5 307.4V302.9Z" fill="white"/>
<path d="M65 302.6C66.3 302.6 67.4 303.8 67.4 305.2C67.4 306.6 66.3 307.8 65 307.8C63.7 307.8 62.6 306.6 62.6 305.2C62.5 303.8 63.6 302.6 65 302.6ZM65 307.2C66 307.2 66.9 306.3 66.9 305.1C66.9 304 66 303 65 303C64 303 63.1 303.9 63.1 305.1C63.1 306.3 63.9 307.2 65 307.2Z" fill="white"/>
<path d="M69 305.2C69 303.8 70.2 302.7 71.6 302.7C72.2 302.7 72.8 302.9 73.2 303.3C73.3 303.4 73.3 303.5 73.2 303.6C73.1 303.7 73 303.7 72.9 303.6C72.5 303.3 72.1 303.1 71.6 303.1C70.4 303.1 69.5 304 69.5 305.2C69.5 306.3 70.4 307.3 71.6 307.3C72.1 307.3 72.6 307.1 72.9 306.9C73 306.8 73.2 306.8 73.2 306.9C73.3 307 73.3 307.2 73.1 307.3C72.7 307.6 72.1 307.8 71.5 307.8C70.1 307.7 69 306.6 69 305.2Z" fill="white"/>
<path d="M74.8 305.2C74.8 303.8 75.9 302.6 77.3 302.6C78.6 302.6 79.7 303.6 79.8 305C79.8 305.1 79.7 305.2 79.5 305.2H75.3C75.4 306.3 76.2 307.2 77.3 307.2C78 307.2 78.6 306.8 78.9 306.3C79 306.2 79.1 306.2 79.2 306.2C79.3 306.3 79.4 306.4 79.3 306.6C78.9 307.3 78.1 307.8 77.2 307.8C75.9 307.7 74.8 306.6 74.8 305.2ZM75.3 304.8H79.2C79 303.8 78.2 303.1 77.3 303.1C76.3 303.1 75.5 303.8 75.3 304.8Z" fill="white"/>
<path d="M81.1 305.2C81.1 303.8 82.2 302.6 83.6 302.6C84.9 302.6 86 303.6 86.1 305C86.1 305.1 86 305.2 85.8 305.2H81.6C81.7 306.3 82.5 307.2 83.6 307.2C84.3 307.2 84.9 306.8 85.2 306.3C85.3 306.2 85.4 306.2 85.5 306.2C85.6 306.3 85.7 306.4 85.6 306.6C85.2 307.3 84.4 307.8 83.5 307.8C82.2 307.7 81.1 306.6 81.1 305.2ZM81.7 304.8H85.6C85.4 303.8 84.6 303.1 83.7 303.1C82.6 303.1 81.8 303.8 81.7 304.8Z" fill="white"/>
<path d="M91.9 306.7C91.5 307.3 90.7 307.7 89.9 307.7C88.5 307.7 87.4 306.6 87.4 305.2C87.4 303.8 88.5 302.6 89.9 302.6C90.7 302.6 91.4 303 91.9 303.6V300.7C91.9 300.6 92 300.4 92.2 300.4C92.3 300.4 92.5 300.5 92.5 300.7V305.1V305.2V307.5C92.5 307.6 92.4 307.7 92.2 307.7C92.1 307.7 91.9 307.6 91.9 307.5V306.7ZM91.9 305.3V305.1C91.9 304 91 303.1 89.9 303.1C88.8 303.1 87.9 304 87.9 305.2C87.9 306.3 88.8 307.2 89.9 307.2C91 307.2 91.9 306.3 91.9 305.3Z" fill="white"/>
<path d="M99.7 302.9C99.7 303 99.6 303.2 99.4 303.2H98.7V306.9C98.7 307.2 99 307.3 99.1 307.3C99.2 307.3 99.4 307.4 99.4 307.6C99.4 307.7 99.3 307.8 99.1 307.8C98.6 307.8 98.2 307.4 98.2 306.9V303.2H97.6C97.3 303.2 97.3 303.1 97.3 302.9C97.3 302.8 97.3 302.6 97.6 302.6H98.2V300.7C98.2 300.6 98.3 300.4 98.5 300.4C98.6 300.4 98.8 300.5 98.8 300.7V302.6H99.5C99.5 302.6 99.7 302.7 99.7 302.9Z" fill="white"/>
<path d="M104.1 302.6C105.4 302.6 106.5 303.8 106.5 305.2C106.5 306.6 105.4 307.8 104.1 307.8C102.8 307.8 101.7 306.6 101.7 305.2C101.7 303.8 102.7 302.6 104.1 302.6ZM104.1 307.2C105.1 307.2 106 306.3 106 305.1C106 304 105.1 303 104.1 303C103.1 303 102.2 303.9 102.2 305.1C102.2 306.3 103 307.2 104.1 307.2Z" fill="white"/>
<path d="M111.2 305.2C111.2 303.8 112.4 302.7 113.8 302.7C114.4 302.7 115 302.9 115.4 303.3C115.5 303.4 115.5 303.5 115.4 303.6C115.3 303.7 115.2 303.7 115.1 303.6C114.7 303.3 114.3 303.1 113.8 303.1C112.6 303.1 111.7 304 111.7 305.2C111.7 306.3 112.6 307.3 113.8 307.3C114.3 307.3 114.8 307.1 115.1 306.9C115.2 306.8 115.4 306.8 115.4 306.9C115.5 307 115.5 307.2 115.3 307.3C114.9 307.6 114.3 307.8 113.7 307.8C112.4 307.7 111.2 306.6 111.2 305.2Z" fill="white"/>
<path d="M119.5 302.6C120.8 302.6 121.9 303.8 121.9 305.2C121.9 306.6 120.8 307.8 119.5 307.8C118.2 307.8 117.1 306.6 117.1 305.2C117.1 303.8 118.2 302.6 119.5 302.6ZM119.5 307.2C120.5 307.2 121.4 306.3 121.4 305.1C121.4 304 120.5 303 119.5 303C118.5 303 117.6 303.9 117.6 305.1C117.6 306.3 118.5 307.2 119.5 307.2Z" fill="white"/>
<path d="M127.5 304.7C127.5 303.8 126.8 303.1 125.9 303.1C125 303.1 124.3 303.8 124.3 304.7V307.5C124.3 307.5 124.3 307.6 124.2 307.6C124.2 307.7 124.1 307.7 124 307.7H123.9C123.8 307.7 123.8 307.6 123.7 307.6V307.5V304.7V304.6V302.9C123.7 302.8 123.8 302.7 123.9 302.7C124 302.7 124.1 302.8 124.1 302.9V303.4C124.5 303 125 302.7 125.7 302.7C126.8 302.7 127.8 303.6 127.8 304.8V307.6C127.8 307.7 127.7 307.8 127.5 307.8C127.4 307.8 127.3 307.7 127.3 307.6V304.7H127.5Z" fill="white"/>
<path d="M132.5 300.7C132.5 300.8 132.4 301 132.3 301C131.9 301 131.8 301.1 131.7 301.2C131.6 301.3 131.5 301.6 131.5 302V302.5H132.2C132.3 302.5 132.5 302.6 132.5 302.7C132.5 302.8 132.4 303 132.2 303H131.5V307.4C131.5 307.5 131.4 307.6 131.2 307.6C131.1 307.6 130.9 307.5 130.9 307.4V303H130.2C130.1 303 129.9 302.9 129.9 302.7C129.9 302.6 130 302.5 130.2 302.5H130.9V302C130.9 301.5 131 301.1 131.2 300.8C131.4 300.5 131.8 300.4 132.2 300.4C132.4 300.4 132.5 300.5 132.5 300.7Z" fill="white"/>
<path d="M134.1 301.2C134.1 301.1 134.2 300.9 134.4 300.9C134.5 300.9 134.7 301 134.7 301.2V301.4C134.7 301.5 134.6 301.7 134.4 301.7C134.3 301.7 134.1 301.6 134.1 301.4V301.2ZM134.1 302.9C134.1 302.8 134.2 302.6 134.4 302.6C134.5 302.6 134.7 302.7 134.7 302.9V307.5C134.7 307.6 134.6 307.7 134.4 307.7C134.3 307.7 134.1 307.6 134.1 307.5V302.9Z" fill="white"/>
<path d="M137 302.9C137 302.8 137.1 302.7 137.3 302.7C137.4 302.7 137.5 302.8 137.5 302.9V304C137.5 304 137.5 303.9 137.6 303.9C138 303.3 138.7 302.6 139.6 302.6C139.7 302.6 139.8 302.7 139.8 302.8C139.8 302.9 139.7 303.1 139.6 303.1C138.9 303.1 138.5 303.5 138.1 303.9C137.8 304.4 137.6 304.9 137.5 305.1V305.2V307.4C137.5 307.5 137.4 307.6 137.3 307.6C137.2 307.6 137 307.5 137 307.4V302.9Z" fill="white"/>
<path d="M148.9 304.7C148.9 303.8 148.2 303.1 147.3 303.1C146.4 303.1 145.7 303.8 145.7 304.7V307.5C145.7 307.6 145.6 307.6 145.6 307.6H145.5C145.5 307.6 145.5 307.6 145.4 307.6V304.8C145.4 303.9 144.7 303.2 143.8 303.2C142.9 303.2 142.2 303.9 142.2 304.8V307.6C142.2 307.7 142.2 307.8 142.1 307.8C142.1 307.8 142.1 307.8 142 307.8C141.9 307.8 141.8 307.7 141.8 307.6V307.5V304.7V304.6V302.8C141.8 302.7 141.9 302.6 142 302.6C142.1 302.6 142.3 302.7 142.3 302.8V303.3C142.7 302.9 143.2 302.6 143.9 302.6C144.7 302.6 145.4 303 145.7 303.7C146.1 303.1 146.8 302.6 147.5 302.6C148.6 302.6 149.6 303.5 149.6 304.7V307.5C149.6 307.6 149.5 307.7 149.3 307.7C149.2 307.7 149.1 307.6 149.1 307.5V304.7H148.9Z" fill="white"/>
</svg>
