<svg width="75" height="74" viewBox="0 0 75 74" fill="none" xmlns="http://www.w3.org/2000/svg">
<path d="M54.5 0H20.6C9.55433 0 0.600021 8.95431 0.600021 20V53.9C0.600021 64.9457 9.55433 73.9 20.6 73.9H54.5C65.5457 73.9 74.5 64.9457 74.5 53.9V20C74.5 8.95431 65.5457 0 54.5 0Z" fill="#24CCA7"/>
<path d="M38.7 11.8999C40.1 11.8999 41.2 12.9999 41.2 14.3999V15.6999C44.6 16.0999 47.6 17.1999 50.3 18.8999C51.2 19.3999 52.1 20.2999 52.1 21.6999C52.1 23.4999 50.6 24.8999 48.8 24.8999C48.2 24.8999 47.6 24.6999 47 24.3999C45 23.1999 43 22.2999 41 21.7999V32.9999C49.9 35.1999 53.7 38.7999 53.7 44.9999C53.7 51.3999 48.7 55.6999 41.3 56.3999V59.8999C41.3 61.2999 40.2 62.3999 38.8 62.3999C37.4 62.3999 36.2 61.2999 36.2 59.8999V56.2999C31.8 55.7999 27.8 54.2999 24.2 51.6999C23.2 51.0999 22.6 50.0999 22.6 48.8999C22.6 47.0999 24 45.6999 25.8 45.6999C26.5 45.6999 27.2 45.8999 27.7 46.2999C30.4 48.2999 33.1 49.5999 36.3 50.1999V38.7999C27.8 36.5999 23.8 33.3999 23.8 26.7999C23.8 20.4999 28.8 16.1999 36.1 15.5999V14.3999C36.2 12.9999 37.3 11.8999 38.7 11.8999ZM36.4 31.7999V21.3999C32.7 21.7999 30.8 23.6999 30.8 26.2999C30.8 28.7999 31.9 30.2999 36.4 31.7999ZM41 39.8999V50.4999C44.7 50.0999 46.8 48.1999 46.8 45.3999C46.8 42.8999 45.5 41.2999 41 39.8999Z" fill="white"/>
</svg>
