<svg width="123" height="242" viewBox="0 0 123 242" fill="none" xmlns="http://www.w3.org/2000/svg">
<path d="M70 156.5C70.5 144 70.3 131.5 69.5 119C67.8 93.3 63.6 67.7 57.8 42.6C54.5 28.5 50.5 14.5999 46.3 0.69995C46.2 0.29995 45.5 0.399956 45.6 0.799956C58.6 49.7 69.2 100.2 68.5 151C68.3 165.2 66.6 179.2 65.3 193.3C65.3 193.7 65.9 193.8 66 193.4C68.7 181.6 69.5 168.9 70 156.5Z" fill="#FFD8D0"/>
<path d="M45.6 0.899902C45.6 0.899902 25.9 50.8999 30.3 62.5999C34.7 74.2999 43.8 76.7999 43.8 76.7999C43.8 76.7999 31.8 93.9999 40.2 110.1C48.6 126.2 67.3 125.5 68.6 143.7C68.5 143.8 69.6 67.3999 45.6 0.899902Z" fill="#FFD8D0"/>
<path d="M66.4 112.3C66.4 112.2 66.4 112.1 66.4 112C63.6 78 57.6 44.2 47.3 11.5C47.3 11.4 47.1 11.4 47.1 11.5C51 26.1 54.5 40.8001 57.4 55.6001C54.8 53.0001 51.5 51.5 48 50.4C47.9 50.4 47.9 50.5 48 50.5C51.6 52.1 55.1 53.9 57.7 57C58.3 59.9 58.8 62.8 59.4 65.7C55 60.8 48.9 58.3 42.8 56C42.7 56 42.7 56.1001 42.8 56.1001C49.2 58.7001 55.5 62 59.8 67.5C61.3 75.8 62.6 84.1 63.8 92.5C60.6 89.1 56.6 86.9 52.1 85.8C52 85.8 51.9 86 52 86C56.7 87.3 60.7 90.0001 63.9 93.6001C63.9 93.6001 63.9 93.6 64 93.7C64.4 96.6 64.8 99.6 65.1 102.5C62.6 100.4 59.9 98.8 56.9 97.5C56.8 97.5 56.8 97.6001 56.9 97.6001C60 98.9001 62.7 100.8 65.1 103.1H65.2C65.5 105.9 65.9 108.7 66.1 111.5C61.6 106.1 56 102.1 49.4 99.6001C49.3 99.6001 49.2 99.7 49.3 99.8C55.7 102.6 61.4 107 65.7 112.5C65.8 112.6 66 112.7 66.1 112.6C66.5 116.9 66.9 121.2 67.2 125.5C67.2 125.6 67.3 125.6 67.3 125.5C67.1 121.1 66.8 116.7 66.4 112.3Z" fill="#263238"/>
<path d="M50.6 45.3999C47.2 43.0999 42.8 42.1 38.8 41.7C38.7 41.7 38.7 41.7999 38.8 41.8999C43 42.4999 46.6 44.1 50.5 45.7C50.6 45.8 50.7 45.4999 50.6 45.3999Z" fill="#263238"/>
<path d="M53 98.3C50.3 96.7 47.2 95.8 44.1 95.3C44 95.3 44 95.4 44.1 95.5C47.2 96.1 50 97.2001 52.9 98.6001C53 98.6001 53.1 98.4 53 98.3Z" fill="#263238"/>
<path d="M121.8 63.3999C113.6 69.1999 105.7 75.7999 99 83.2999C91.9 91.2999 86.7 100.3 83 110.4C75.6 131 71.5 153.3 71.1 175.2C70.9 187.5 72 199.6 74.6 211.6C74.7 212 75.3 211.9 75.3 211.5C72.1 190.4 72.2 168.9 75.7 147.8C79.1 127.1 84.4 104.7 97.5 87.8999C104.7 78.7999 113.6 71.5999 122.4 64.0999C122.9 63.6999 122.3 63.0999 121.8 63.3999Z" fill="#FFD8D0"/>
<path d="M74 160.3C74 160.3 80.8 148.9 90.6 139.1C100.4 129.3 108.7 122.3 110 115.8C111.3 109.3 100.1 104.5 100.1 104.5C100.1 104.5 113.7 106.9 117.5 101.2C121.2 95.4999 123 62.3999 123 62.3999C123 62.3999 98.2 80.0999 86.7 104.9C75.2 129.7 74 160.3 74 160.3Z" fill="#FFD8D0"/>
<path d="M114.5 70.8999C104.1 81.0999 93.6 92.0999 87.4 105.5C85.3 110.1 83.5 114.9 81.9 119.8C81.6 120.8 81.3 121.8 81 122.7C81 122.7 81 122.8 80.9 122.9C77.9 132.9 75.7 143.3 73.9 153.5C73.9 153.6 74 153.6 74 153.5C75.1 148.3 76.2 143.1 77.6 137.9H77.7C79.8 137 81.9 136.5 84.2 136.2C84.3 136.2 84.3 135.9 84.2 135.9C82 136 79.9 136.4 77.8 137.1C79 132.4 80.3 127.7 81.8 123.1C86.6 121.9 91.6 121.3 96.5 121.2C96.6 121.2 96.6 121.1 96.5 121.1C91.5 120.9 86.9 121.3 82 122.3C82.3 121.5 82.5 120.7 82.8 119.9C86 119.2 89.3 118.5 92.6 118.2C92.7 118.2 92.7 118.1 92.6 118.1C89.4 118.2 86.2 118.5 83 119.3C84.3 115.3 85.8 111.4 87.4 107.5C88.7 104.3 90.3 101.3 92.1 98.3999C94.7 97.7999 97.3 97.1999 100 96.9999C100.1 96.9999 100.1 96.8999 100 96.8999C97.5 96.6999 95 96.8999 92.6 97.5999C93.9 95.4999 95.3 93.3999 96.7 91.3999C102.3 90.1999 107.9 88.9999 113.6 90.0999C113.7 90.0999 113.7 89.9999 113.6 89.8999C108.2 88.4999 102.8 89.2999 97.4 90.3999C98 89.5999 98.6 88.7999 99.2 88.0999C102.6 86.9999 106 86.4999 109.6 86.4999C109.7 86.4999 109.7 86.3999 109.6 86.3999C106.3 86.0999 103.1 86.3999 99.9 87.2999C104.5 81.5999 109.6 76.1999 114.6 70.8999C114.9 70.7999 114.7 70.5999 114.5 70.8999Z" fill="#263238"/>
<path d="M114.2 93.4C112.6 93.2 110.9 93 109.3 93.2C109.1 93.2 109.1 93.5 109.3 93.6C110.9 93.6 112.6 93.5 114.2 93.6C114.3 93.6 114.3 93.4 114.2 93.4Z" fill="#263238"/>
<path d="M96.4 125.6C93.8 125.6 91.2 126.3 88.8 127.1C88.7 127.1 88.8 127.2 88.8 127.2C91.3 126.6 93.9 126.4 96.4 125.9C96.6 125.9 96.6 125.6 96.4 125.6Z" fill="#263238"/>
<path d="M91 114.5C89.9 114.4 88.8 114.6 87.8 114.8C87.7 114.8 87.7 115 87.8 115C88.9 115 90 115 91.1 114.8C91.2 114.8 91.2 114.5 91 114.5Z" fill="#263238"/>
<path d="M1.39999 98.6C9.39999 101.4 17.3 104.9 24.4 109.4C32 114.2 38.3 120.3 43.6 127.6C54.4 142.5 62.8 159.7 68.2 177.3C71.2 187.2 73.1 197.3 73.8 207.6C73.8 208 73.3 208 73.2 207.7C70.9 189.9 65.8 172.5 58.2 156.2C50.7 140.3 41.2 123.3 26.7 112.7C18.8 107 9.89999 103.2 1.09999 99.1999C0.599991 99.0999 0.89999 98.4 1.39999 98.6Z" fill="#FFD8D0"/>
<path d="M62.4 166C62.4 166 54.3 158.4 44.1 152.7C33.9 147 25.5 143.3 23 138.3C20.5 133.3 28.4 126.9 28.4 126.9C28.4 126.9 17.9 132 13.6 128.3C9.29999 124.5 0.199997 98.2 0.199997 98.2C0.199997 98.2 24.3 106.8 39.4 124.2C54.4 141.4 62.4 166 62.4 166Z" fill="#FFD8D0"/>
<path d="M61.2 160.5C49.1 137.8 33 117.3 10.9 103.8C16.7 107.5 22.1 111.8 27.1 116.4C22.6 116.3 18.1 117 14.1 119.1C14 119.1 14.1 119.3 14.2 119.2C18.6 117.7 22.9 116.7 27.6 116.9C27.7 116.9 27.7 116.9 27.8 116.8C28.6 117.5 29.4 118.3 30.1 119.1C27.8 119.2 25.4 119.5 23.2 120C23.1 120 23.2 120.1 23.2 120.1C25.7 119.6 28 119.5 30.5 119.5C34.5 123.6 38.3 127.9 41.9 132.4C40.3 132.2 38.6 132.3 37 132.8C36.9 132.8 36.9 133 37 133C38.8 132.8 40.4 132.8 42.2 132.9C42.9 133.7 43.5 134.6 44.2 135.4C39.2 135.1 34.4 135.6 29.5 136.8C29.4 136.8 29.4 136.9 29.5 136.9C34.5 135.9 39.5 135.6 44.6 135.9C45.2 136.7 45.8 137.6 46.4 138.4C43.4 138.3 40.6 138.7 37.7 139.4C37.6 139.4 37.6 139.6 37.7 139.6C40.7 138.9 43.7 138.8 46.7 138.9C49.3 142.5 51.8 146.1 54.2 149.8C52.9 149.5 51.6 149.7 50.4 150C50.3 150 50.4 150.1 50.4 150.1C51.8 149.9 53.1 150.1 54.5 150.3C56.7 153.6 58.7 157 60.7 160.4C60.9 161 61.3 160.8 61.2 160.5Z" fill="#263238"/>
<path d="M42.4 141.7C40 141.5 37.6 141.9 35.4 142.6C35.3 142.6 35.4 142.7 35.4 142.7C37.7 142.3 40 142.1 42.4 142C42.5 142 42.5 141.7 42.4 141.7Z" fill="#263238"/>
<path d="M21.3 114.1C20.2 114 19.1 114.1 18.1 114.3C18 114.3 18 114.5 18.1 114.5C19.2 114.4 20.2 114.4 21.3 114.4C21.5 114.4 21.5 114.1 21.3 114.1Z" fill="#263238"/>
<path d="M93.6 241.3H39.1L46.8 184.4L48.8 169.8H83.8L85.8 184.4L93.6 241.3Z" fill="#455A64"/>
<path d="M85.8 184.4H46.8L48.8 169.8H83.8L85.8 184.4Z" fill="#263238"/>
<path d="M88.8 164.7H43.8V177.1H88.8V164.7Z" fill="#455A64"/>
</svg>
