<svg width="135" height="180" viewBox="0 0 135 180" fill="none" xmlns="http://www.w3.org/2000/svg">
<path d="M58.7 104.2H102.8C108.6 104.2 113.3 99.5 113.3 93.7V11.1C113.3 8.10001 115.4 0.5 124.5 0.5H69.1C63.3 0.5 58.6 5.2 58.6 11V104.2H58.7Z" fill="#FFC727"/>
<path opacity="0.1" d="M58.7 104.2H102.8C108.6 104.2 113.3 99.5 113.3 93.7V11.1C113.3 8.10001 115.4 0.5 124.5 0.5H69.1C63.3 0.5 58.6 5.2 58.6 11V104.2H58.7Z" fill="black"/>
<g opacity="0.1">
<path opacity="0.1" d="M106.3 11.1001H66.7V12.9001H106.3V11.1001Z" fill="black"/>
<path opacity="0.1" d="M106.3 16.2002H66.7V18.0002H106.3V16.2002Z" fill="black"/>
<path opacity="0.1" d="M106.3 21.3H66.7V23.1001H106.3V21.3Z" fill="black"/>
<path opacity="0.1" d="M106.3 26.4001H66.7V28.2001H106.3V26.4001Z" fill="black"/>
<path opacity="0.1" d="M106.3 31.5H66.7V33.3H106.3V31.5Z" fill="black"/>
<path opacity="0.1" d="M106.3 36.6001H66.7V38.4001H106.3V36.6001Z" fill="black"/>
<path opacity="0.1" d="M106.3 41.7002H66.7V43.5002H106.3V41.7002Z" fill="black"/>
<path opacity="0.1" d="M106.3 46.8H66.7V48.6001H106.3V46.8Z" fill="black"/>
<path opacity="0.1" d="M106.3 52H66.7V53.8H106.3V52Z" fill="black"/>
<path opacity="0.1" d="M106.3 57.1001H66.7V58.9001H106.3V57.1001Z" fill="black"/>
<path opacity="0.1" d="M106.3 62.2002H66.7V64.0002H106.3V62.2002Z" fill="black"/>
<path opacity="0.1" d="M106.3 67.3H66.7V69.1001H106.3V67.3Z" fill="black"/>
<path opacity="0.1" d="M106.3 72.4001H66.7V74.2002H106.3V72.4001Z" fill="black"/>
<path opacity="0.1" d="M106.3 77.5H66.7V79.3H106.3V77.5Z" fill="black"/>
<path opacity="0.1" d="M106.3 82.6001H66.7V84.4001H106.3V82.6001Z" fill="black"/>
<path opacity="0.1" d="M106.3 87.7002H66.7V89.5002H106.3V87.7002Z" fill="black"/>
</g>
<path d="M16.1 69.3001V169H49.5V169.1C49.5 174.9 54.1 179.6 59.9 179.7H60.3C60.7 179.7 61 179.7 61.4 179.6L63.4 179.2C63.9 179 64.4 178.8 64.8 178.6C65 178.5 65.3 178.4 65.5 178.2C65.6 178.1 65.7 178.1 65.8 178C66.1 177.8 66.4 177.6 66.7 177.4L66.8 177.3C67 177.1 67.2 177 67.4 176.8C67.5 176.7 67.6 176.6 67.7 176.5C68.9 175.3 69.8 173.8 70.3 172.2V172.1C70.4 171.8 70.4 171.6 70.5 171.3C70.6 171 70.6 170.6 70.7 170.3C70.7 170.1 70.7 170 70.7 169.8C70.7 169.7 70.7 169.7 70.7 169.6C70.7 169.4 70.7 169.2 70.7 169V69.2001C70.7 66.2001 72.8 58.6001 81.9 58.6001H26.6C20.8 58.8001 16.1 63.5001 16.1 69.3001Z" fill="#FFC727"/>
<g opacity="0.1">
<path opacity="0.1" d="M63 65.3999H23.4V67.1999H63V65.3999Z" fill="black"/>
<path opacity="0.1" d="M66.7 60.7H27.1V62.4999H66.7V60.7Z" fill="black"/>
<path opacity="0.1" d="M63 70.5H23.4V72.3H63V70.5Z" fill="black"/>
<path opacity="0.1" d="M63 75.5999H23.4V77.3998H63V75.5999Z" fill="black"/>
<path opacity="0.1" d="M63 80.7998H23.4V82.5998H63V80.7998Z" fill="black"/>
<path opacity="0.1" d="M63 85.8999H23.4V87.6999H63V85.8999Z" fill="black"/>
<path opacity="0.1" d="M63 91H23.4V92.8H63V91Z" fill="black"/>
<path opacity="0.1" d="M63 96.0999H23.4V97.8998H63V96.0999Z" fill="black"/>
<path opacity="0.1" d="M63 101.2H23.4V103H63V101.2Z" fill="black"/>
<path opacity="0.1" d="M63 106.3H23.4V108.1H63V106.3Z" fill="black"/>
<path opacity="0.1" d="M63 111.4H23.4V113.2H63V111.4Z" fill="black"/>
<path opacity="0.1" d="M63 116.5H23.4V118.3H63V116.5Z" fill="black"/>
<path opacity="0.1" d="M63 121.7H23.4V123.5H63V121.7Z" fill="black"/>
<path opacity="0.1" d="M63 126.8H23.4V128.6H63V126.8Z" fill="black"/>
<path opacity="0.1" d="M63 131.9H23.4V133.7H63V131.9Z" fill="black"/>
<path opacity="0.1" d="M63 137H23.4V138.8H63V137Z" fill="black"/>
<path opacity="0.1" d="M63 142.1H23.4V143.9H63V142.1Z" fill="black"/>
<path opacity="0.1" d="M63 147.2H23.4V149H63V147.2Z" fill="black"/>
<path opacity="0.1" d="M63 152.3H23.4V154.1H63V152.3Z" fill="black"/>
<path opacity="0.1" d="M63 159.7H43.2V163.9H63V159.7Z" fill="black"/>
</g>
<path d="M102.5 104.2C102.6 104.2 102.7 104.2 102.8 104.2C103.2 104.2 103.6 104.2 104 104.1C103.6 104.1 103.3 104.2 102.9 104.2H102.5Z" fill="#FFC727"/>
<path d="M124 0.5C118.1 0.5 113.4 5.30001 113.4 11.1V31.1H134.6V11.1C134.6 5.30001 129.8 0.5 124 0.5Z" fill="#FFC727"/>
<path opacity="0.2" d="M124 0.5C118.1 0.5 113.4 5.30001 113.4 11.1V31.1H134.6V11.1C134.6 5.30001 129.8 0.5 124 0.5Z" fill="black"/>
<path d="M70.7 69.4001V104.3H91.9H102.3C96.6 104.2 91.9 99.5001 91.9 93.7001V69.4001C91.9 63.5001 87.1 58.8 81.3 58.8C78.4 58.8 75.7 60.0001 73.8 61.9001C71.9 63.8001 70.7 66.4001 70.7 69.4001Z" fill="#FFC727"/>
<path opacity="0.2" d="M70.7 69.4001V104.3H91.9H102.3C96.6 104.2 91.9 99.5001 91.9 93.7001V69.4001C91.9 63.5001 87.1 58.8 81.3 58.8C78.4 58.8 75.7 60.0001 73.8 61.9001C71.9 63.8001 70.7 66.4001 70.7 69.4001Z" fill="black"/>
<path d="M0.599991 169V169.1C0.599991 174.9 5.19999 179.6 11 179.7H59.9C54.2 179.6 49.5 174.9 49.5 169.1V169H0.599991Z" fill="#FFC727"/>
<path opacity="0.2" d="M0.599991 169V169.1C0.599991 174.9 5.19999 179.6 11 179.7H59.9C54.2 179.6 49.5 174.9 49.5 169.1V169H0.599991Z" fill="black"/>
</svg>
