<svg width="144" height="360" viewBox="0 0 144 360" fill="none" xmlns="http://www.w3.org/2000/svg">
<path d="M15.6 348.1C18 348.5 82.7 339.2 84.9 337.3C85.8 336.6 85 327.1 83.6 315.6C83.6 315.5 83.6 315.4 83.6 315.2C83.3 312.8 75.1 273.7 75.1 273.7L31.8 279.8L41.8 320.7L41.9 321.4C41.9 321.4 18.7 336 16.5 338.4C14.3 340.9 13.2 347.7 15.6 348.1Z" fill="#F7A9A0"/>
<path d="M84.9 337.3C82.7 339.2 18 348.6 15.6 348.1C13.2 347.7 14.3 340.9 16.5 338.5C18.7 336.1 41.9 321.5 41.9 321.5L41.8 320.8L40.7 316.1L82.6 309.8C82.9 311.5 83.6 314.9 83.6 315.3C83.6 315.4 83.6 315.5 83.6 315.7C85 327.1 85.8 336.6 84.9 337.3Z" fill="#FFC727"/>
<path d="M15.6 348.1C16.8 348.3 34.4 346 51.6 343.4C55.1 342.9 58.5 342.3 61.8 341.8C74 339.9 84.1 338 85 337.3C85.9 336.6 85.1 327.3 83.8 316.1C83.8 315.9 83.8 315.8 83.7 315.6C83.7 315.5 83.7 315.4 83.7 315.2L41.9 320.7L42 321.4C42 321.4 18.8 336 16.6 338.4C14.3 340.9 13.2 347.7 15.6 348.1Z" fill="#A6A6A6"/>
<path d="M16 345.5C26.9 343.7 70.9 337.3 81.8 336.3C81.9 336.3 81.9 336.4 81.8 336.4C71.1 338.5 27 344.5 16.1 345.7C15.8 345.7 15.7 345.6 16 345.5Z" fill="#263238"/>
<path d="M37.2 321.6C41.4 320.2 46.7 320.1 50.4 322.7C50.5 322.8 50.4 323 50.3 323C45.9 322.3 41.8 322 37.3 322.2C36.9 322.2 36.9 321.7 37.2 321.6Z" fill="#263238"/>
<path d="M34.3 323.9C38.5 322.5 43.8 322.4 47.5 325C47.6 325.1 47.5 325.3 47.4 325.3C43 324.6 38.9 324.3 34.4 324.5C34.1 324.5 34 324 34.3 323.9Z" fill="#263238"/>
<path d="M31.5 326.3C35.7 324.9 41 324.8 44.7 327.4C44.8 327.5 44.7 327.7 44.6 327.7C40.2 327 36.1 326.7 31.6 326.9C31.3 326.8 31.2 326.4 31.5 326.3Z" fill="#263238"/>
<path d="M35.6 313.6L84.3 306.9C84.3 306.9 72.2 223.9 72.6 222C73.1 219.5 101.6 103.1 101.6 103.1H61.7C61.7 103.1 28.9 211.1 27.6 221.5C25.4 238.3 35.6 313.6 35.6 313.6Z" fill="#37474F"/>
<path d="M37.8 303.7C46.1 302 76.4 298.4 79.7 298.5C79.8 298.5 79.8 298.6 79.7 298.6C76.5 299.5 50.5 303.1 37.8 303.9C37.7 303.9 37.7 303.7 37.8 303.7Z" fill="#263238"/>
<path d="M92.4 112C91.4 114.9 90.6 117.8 89.7 120.6C88.8 123.5 88 126.4 87.2 129.3C85.5 135 83.9 140.8 82.3 146.5C79 158.1 75.9 169.7 72.8 181.4C71.3 187.2 69.8 192.9 68.3 198.7C66.8 204.5 65.2 210.3 63.9 216.1C63.3 218.9 62.9 221.6 63 224.5C63.2 227.4 63.7 230.2 64.2 233.1C65.2 239 66.1 245 67.1 250.9C69 262.9 71.1 274.9 73.1 286.9C73.4 288.4 73.6 289.8 73.9 291.3C73.9 291.4 74.1 291.4 74.1 291.3C72.5 279.4 70.5 267.5 68.6 255.6C67.7 249.7 66.7 243.9 65.8 238C65.3 234.9 64.8 231.9 64.3 228.8C63.9 225.9 63.6 222.9 64 220C64.4 217.1 65.2 214.3 65.9 211.5C66.6 208.6 67.3 205.8 68.1 202.9C69.6 197.1 71.1 191.3 72.6 185.6C75.6 174 78.8 162.4 81.9 150.9C85.1 139.4 88.3 127.9 91.5 116.4C91.9 115 92.3 113.6 92.7 112.1C92.5 112 92.4 111.9 92.4 112Z" fill="#263238"/>
<path d="M57.3 359C59.6 359.7 125 358.5 127.4 356.9C128.3 356.3 128.7 346.8 128.9 335.2C128.9 335.1 128.9 335 128.9 334.8C128.9 332.4 127.6 292.6 127.6 292.6L84.9 293.3L86.8 335.2V335.9C86.8 335.9 62 347.6 59.5 349.6C56.9 351.7 55 358.3 57.3 359Z" fill="#F7A9A0"/>
<path d="M129 330.3C129 331.8 129 333.4 129 334.9V335.3C128.9 346.8 128.5 356.4 127.5 357C125.1 358.6 59.7 359.8 57.4 359.1C55.1 358.4 57 351.8 59.5 349.7C62 347.6 86.8 336 86.8 336V335.3L86.6 330.8C94.1 330.6 115.7 330.4 129 330.3Z" fill="#FFC727"/>
<path d="M57.3 359C59.6 359.7 125 358.5 127.4 356.9C128.3 356.3 128.7 346.8 128.9 335.2C128.9 335.1 128.9 335 128.9 334.8L86.7 335.1V335.8C86.7 335.8 61.9 347.5 59.4 349.5C56.9 351.7 55 358.3 57.3 359Z" fill="#A6A6A6"/>
<path d="M58 356.4C69 355.9 113.5 355.1 124.4 355.4C124.5 355.4 124.5 355.5 124.4 355.5C113.5 356.2 69 356.7 58 356.6C57.8 356.6 57.8 356.4 58 356.4Z" fill="#263238"/>
<path d="M82 335.4C86.3 334.5 91.6 335.1 95 338.1C95.1 338.2 95 338.4 94.8 338.4C90.5 337.1 86.5 336.3 82 336C81.8 335.9 81.7 335.4 82 335.4Z" fill="#263238"/>
<path d="M79 337.3C83.3 336.4 88.6 337 92 340C92.1 340.1 92 340.3 91.8 340.3C87.5 339 83.5 338.2 79 337.9C78.7 337.8 78.6 337.4 79 337.3Z" fill="#263238"/>
<path d="M75.9 339.2C80.2 338.3 85.5 338.9 88.9 341.9C89 342 88.9 342.2 88.7 342.2C84.4 340.9 80.4 340.1 75.9 339.8C75.6 339.8 75.5 339.3 75.9 339.2Z" fill="#263238"/>
<path d="M62.8 103.1C62.8 103.1 63.7 122.2 68.1 137.3C68.4 138.6 68.8 139.8 69.2 141C69.2 141 70.9 141 77.9 145.2L83.7 328.1L130.8 327.6C130.8 327.6 123.3 230.7 123.3 224.5C123.4 214.5 117.9 146.9 118.5 145.2C124.3 127.7 114.7 103.1 114.7 103.1H62.8Z" fill="#37474F"/>
<path d="M85.3 319.3C98.6 318.5 124.3 318.3 127.5 318.8C127.6 318.8 127.6 318.9 127.5 318.9C124.2 319.5 93 320.1 85.3 319.5C85.2 319.5 85.2 319.4 85.3 319.3Z" fill="#263238"/>
<path d="M82.4 242.9C81.8 221.9 81.1 201 80.3 180C79.8 168.2 79.3 156.4 78.6 144.5C78.6 144.1 77.9 144.1 78 144.5C78.5 165.6 79.3 186.6 80 207.7C80.7 228.7 81.4 249.6 82.1 270.6C82.5 282.4 82.9 294.2 83.4 306.1C83.4 306.3 83.7 306.3 83.7 306.1C83.5 285 83 264 82.4 242.9Z" fill="#263238"/>
<path d="M119.2 272.2C118.2 258.5 117.2 244.7 116.1 231C115.1 217.3 114.1 203.5 113 189.8C112.5 182.9 112 176.1 111.5 169.2C111.2 165.8 111 162.3 110.7 158.9C110.4 155.5 110 152.1 110.1 148.7C110.2 145 111.8 141.7 112.7 138.1C113.5 134.7 113.8 131.2 113.8 127.8C113.7 120.6 112.1 113.6 110.6 106.6C110.5 106.2 109.9 106.4 110 106.8C111.5 113.2 112.9 119.7 113.2 126.3C113.3 129.6 113.2 132.9 112.5 136.1C111.9 139.2 110.6 142.1 109.9 145.2C109.1 148.4 109.6 151.6 109.8 154.9C110.1 158.3 110.3 161.8 110.5 165.2C111 171.9 111.5 178.7 112 185.4C114 212.8 116 240.1 118.2 267.5C119.4 282.9 120.4 298.3 121.9 313.7C121.9 313.8 122.1 313.8 122.1 313.7C121.3 299.7 120.2 285.9 119.2 272.2Z" fill="#263238"/>
<path d="M109.6 123.8C108.8 123.5 107.9 123.4 107.1 123.2C106.2 123 105.4 122.7 104.6 122.3C103.1 121.6 101.5 120.7 100.2 119.7C98.8 118.6 98 117.2 97.4 115.6C97 114.8 96.7 113.9 96.4 113C96.2 112.6 96.1 112.2 95.9 111.7C95.8 111.5 95.4 110.6 95.3 110.4H95.4V110.3C95.3 110.2 95.3 110.2 95.2 110.2C95.2 110.2 95.1 110.2 95.1 110.3C94.9 110.6 95.1 110.9 95.2 111.2C95.3 111.8 95.5 112.3 95.6 112.9C95.9 113.9 96.1 114.9 96.4 115.8C97 117.6 97.8 119.3 99.2 120.5C100.6 121.7 102.3 122.7 104.1 123.3C105 123.6 105.9 123.9 106.9 124.1C107.8 124.2 108.7 124.4 109.6 124.3C109.7 124.1 109.7 123.9 109.6 123.8Z" fill="#263238"/>
<path d="M71.7 134.4C71.6 132.8 71.5 131.1 71.3 129.5C71 125.8 70.6 122 69.9 118.3C69.8 118 69.4 118.1 69.5 118.4C69.8 121.3 70.1 124.2 70.4 127.1C70.7 130 71 132.9 71.1 135.8C71.1 136.7 71.1 138.2 70 138.4C68.6 138.7 67.9 136.8 67.5 135.8C66.6 133.2 66.1 130.5 65.7 127.9C65.2 124.8 65 121.7 64.7 118.7C64.7 118.6 64.5 118.6 64.5 118.7C64.5 124.8 64.6 131.2 66.8 137C67.2 138.1 68 139.3 69.3 139.4C69.3 139.4 69.3 139.4 69.4 139.4V139.5C69.4 139.7 69.5 139.8 69.5 140C69.5 140.1 69.6 140.3 69.6 140.4C69.7 140.7 69.7 141 69.8 141.3C69.9 141.6 70.2 141.5 70.2 141.2C70.3 141.2 70.3 141.1 70.3 141C70.3 140.4 70.1 139.8 69.9 139.3C70.6 139.2 71.2 138.7 71.5 138C72 136.8 71.8 135.5 71.7 134.4Z" fill="#263238"/>
<path d="M67.3 139.8C72 141.7 76.5 144.2 80.8 146.8C81 146.9 80.8 147.2 80.7 147.1C76.2 144.9 71.5 142.8 67.1 140.3C66.7 140.1 66.9 139.7 67.3 139.8Z" fill="#263238"/>
<path d="M66.8 78.2999C69.6 80.4999 72.3 82.0999 75 83.3999C70.6 75.8999 71.2 58.9999 71.8 61.3999C74.4 72.8999 81.6 85.4999 84.4 86.1999C91.8 87.1999 98.5 85.1999 104.1 81.9999C98.4 73.4999 98.6 56.3999 99 57.3999C103.2 68.5999 111.9 75.0999 113.4 75.0999C119 69.7999 121.9 64.4999 121.1 63.8999C115.3 59.9999 110.4 49.8999 106 39.1999C101.6 28.6999 99.4 18.5999 93.2 9.19993C87.6 0.599933 76.3 -1.00007 69.9 3.39993C53.2 14.9999 63.2 75.5999 66.8 78.2999Z" fill="#263238"/>
<path d="M84.2 4.00004C88.8 5.10004 92.7 9.30004 95.1 13.3C98.3 18.5 100.5 24.4 103.1 30C108.4 40.9 115 50.9 123.3 59.7C123.5 59.9 123.2 60.2 123 60C114 53.2 107.8 43.5 102.8 33.5C100.2 28.4 98.2 23 95.7 17.9C94.4 15.1 92.8 12.3 90.8 9.90004C88.8 7.60004 86.5 6.20004 83.9 4.90004C83.5 4.50004 83.7 3.80004 84.2 4.00004Z" fill="#263238"/>
<path d="M143.8 221.7L78.1 233.4L75.7 164.8L122.3 156.4L143.8 221.7Z" fill="#EBEBEB"/>
<path d="M122.3 156.4L126.9 224.7L143.8 221.7L122.3 156.4Z" fill="#4A56E2"/>
<path d="M88.7 167.5H86.3C86.3 167.4 86.3 160.8 86.3 154.1C86.4 146.8 92.5 142.2 98.3 141.9C102.7 141.7 108.1 144 109 151.2C109.9 159 110.1 162.7 110.1 162.8L107.7 162.9C107.7 162.9 107.5 159.1 106.6 151.4C106 145.8 102 144 98.5 144.2C93.7 144.5 88.8 148.2 88.7 154C88.7 160.8 88.7 167.4 88.7 167.5Z" fill="#263238"/>
<path d="M127.7 224C128.9 222.8 130.1 221.7 131.4 220.5C132.6 219.4 133.9 218.3 135.2 217.2L135.4 217.1L135.6 217.2C136.9 217.8 138.1 218.5 139.4 219.2C140.6 219.9 141.9 220.6 143.1 221.3C141.8 220.8 140.5 220.2 139.2 219.7C137.9 219.1 136.6 218.5 135.4 217.9H135.8C134.5 219 133.2 220.1 131.9 221.1C130.4 222 129.1 223 127.7 224Z" fill="white"/>
<path d="M135.4 217.5C134.3 213.3 133.4 209.1 132.4 204.8C131.4 200.6 130.5 196.3 129.6 192.1C128.7 187.8 127.8 183.6 127 179.3L125.7 172.9C125.3 170.8 124.9 168.6 124.5 166.5C125 168.6 125.5 170.7 126 172.8L127.5 179.1C128.5 183.3 129.4 187.6 130.3 191.8C131.2 196.1 132.1 200.3 132.9 204.6C133.8 209 134.7 213.2 135.4 217.5Z" fill="white"/>
<path d="M90.7 166.8C91.1 168.5 90 170.2 88.2 170.6C86.5 171 84.8 169.9 84.4 168.1C84 166.4 85.1 164.7 86.9 164.3C88.6 163.9 90.3 165 90.7 166.8Z" fill="#263238"/>
<path d="M111.8 162.2C112.2 163.9 111.1 165.6 109.3 166C107.6 166.4 105.9 165.3 105.5 163.5C105.1 161.8 106.2 160.1 108 159.7C109.7 159.4 111.5 160.5 111.8 162.2Z" fill="#263238"/>
<path d="M136.2 241.3H59.1L70.3 162.8H124.9L136.2 241.3Z" fill="#FFC727"/>
<path opacity="0.1" d="M124.9 162.8L116.4 241.3H136.2L124.9 162.8Z" fill="black"/>
<path d="M85.7 168.2L83.3 167.7C83.3 167.6 84.7 161 86.2 154.4C87.8 147.2 94.9 143.9 100.8 144.8C105.2 145.5 110.1 149 109.4 156.4C108.6 164.3 108 168 108 168.2L105.6 167.8C105.6 167.8 106.2 164 107 156.2C107.6 150.5 104 147.9 100.5 147.3C95.7 146.5 90 149.2 88.7 155C87.1 161.6 85.7 168.1 85.7 168.2Z" fill="#263238"/>
<path d="M117.4 240.7C119 239.6 120.6 238.5 122.3 237.5C123.9 236.5 125.6 235.5 127.3 234.5L127.5 234.4L127.7 234.6C129 235.6 130.3 236.6 131.6 237.6C132.9 238.6 134.1 239.6 135.4 240.7C134 239.9 132.6 239 131.3 238C129.9 237.1 128.6 236.1 127.3 235.2H127.7C126 236.2 124.3 237.1 122.6 238C120.9 239 119.2 239.9 117.4 240.7Z" fill="white"/>
<path d="M127.5 234.9C127.2 229.9 126.9 224.9 126.7 219.9C126.5 214.9 126.3 209.9 126.1 204.9C126 199.9 125.8 194.9 125.7 189.9L125.6 182.4C125.6 179.9 125.5 177.4 125.5 174.9C125.7 177.4 125.8 179.9 126 182.4L126.4 189.9C126.6 194.9 126.8 199.9 127 204.9C127.1 209.9 127.3 214.9 127.4 219.9C127.4 224.9 127.5 229.9 127.5 234.9Z" fill="white"/>
<path d="M84.5 171.3C86.3225 171.3 87.8 169.822 87.8 168C87.8 166.177 86.3225 164.7 84.5 164.7C82.6775 164.7 81.2 166.177 81.2 168C81.2 169.822 82.6775 171.3 84.5 171.3Z" fill="#263238"/>
<path d="M106.5 171.3C108.323 171.3 109.8 169.822 109.8 168C109.8 166.177 108.323 164.7 106.5 164.7C104.677 164.7 103.2 166.177 103.2 168C103.2 169.822 104.677 171.3 106.5 171.3Z" fill="#263238"/>
<path d="M24.6 20.0999L33.9 49C34.3 49.8 33.9 50.5999 33 50.5999L17.9 51.5999C17.1 51.6999 16.1 50.9999 15.7 50.1999L6.39999 21.2999C5.99999 20.4999 6.39998 19.7 7.29998 19.7L22.4 18.7C23.2 18.7 24.2 19.2999 24.6 20.0999Z" fill="#A6A6A6"/>
<path d="M22.8 20.1998L32.1 49.0998C32.5 49.8998 32.1 50.6998 31.2 50.6998L16.1 51.6998C15.3 51.7998 14.3 51.0998 13.9 50.2998L4.6 21.3998C4.2 20.5998 4.59999 19.7998 5.49999 19.7998L20.6 18.7998C21.4 18.6998 22.4 19.3998 22.8 20.1998Z" fill="#DBDBDB"/>
<path d="M18.7 21.7999C18.8 22.4999 19.4 22.9999 20.1 22.9999C20.8 22.8999 21.3 22.2999 21.3 21.5999C21.2 20.8999 20.6 20.3999 19.9 20.3999C19.2 20.4999 18.7 21.0999 18.7 21.7999Z" fill="#455A64"/>
<path d="M76.3 61.4999C69.1 80.3999 51.5 105.5 43.6 106.1C39.8 106.4 33.1 107.8 27.8 103.8C16.3 95.0999 5.9 77.5999 3.3 67.2999C2.4 63.6999 19.8 54.2999 22.7 57.0999C29.4 63.6999 37.7 76.9999 38.8 76.7999C42.9 76.1999 57.8 61.7999 68.3 51.5999C80.8 39.4999 79.1 53.8999 76.3 61.4999Z" fill="#F7A9A0"/>
<path d="M1.39999 48.3C2.79999 40.7 4.3 38.9 2 31.8C0.5 27.2 2.79999 24.2 6.39999 27.8C12.3 33.6 12.6 43.8 11.7 47.4L1.39999 48.3Z" fill="#F7A9A0"/>
<path d="M4.4 70.4999C4.4 70.4999 0.299996 60.2999 0.899996 51.9999C1.3 46.2999 3.70001 33.8999 19.1 26.2999C22.8 24.4999 29.2 24.4999 24.3 29.5999C20.8 33.1999 17.5 34.4999 15.9 36.8999C15.9 36.8999 24.1 37.8999 25.8 41.6999C26.5 43.3999 28.4 47.9999 29.4 51.7999C29.4 51.7999 28.6 52.1999 27.6 52.5999C27.6 52.5999 28.8 56.1999 26.5 61.5999L4.4 70.4999Z" fill="#F7A9A0"/>
<path d="M2.20001 46.5999C4.40001 44.4999 9 40.0999 14 37.7999C19.6 35.2999 31.1 31.8999 32.9 36.0999C34.2 39.0999 30 40.7999 30 40.7999C30 40.7999 35 40.3999 35.6 43.3999C36.2 46.0999 32.8 47.1999 32.8 47.1999C32.8 47.1999 35.9 47.4999 35.9 50.1999C35.9 53.4999 29.4 52.3999 26.6 55.6999C26 56.5999 2.20001 46.5999 2.20001 46.5999Z" fill="#F7A9A0"/>
<path d="M15.7 44.2C18 42.5 24.3 40.2 29.9 40.7C30 40.7 30.1 40.8 30 40.8C23.7 41.5 18.1 43.3 15.7 44.2C15.7 44.2 15.7 44.3 15.7 44.2Z" fill="#263238"/>
<path d="M18.4 49.7998C20.6 48.5998 27.2 46.3998 32.8 47.1998C32.9 47.1998 33 47.2998 32.9 47.2998C26.3 47.6998 20.9 49.0998 18.4 49.7998Z" fill="#263238"/>
<path d="M28.7 63.4999L7.79999 87.6999C7.79999 87.6999 25.7 105.2 31.5 106.6C37.3 108 41.7 107.1 45.8 106C49.9 104.8 69.9 81.5999 76.5 62.6999C83.1 43.6999 76 42.7999 64.8 54.2999C53.6 65.7999 39.7 77.0999 39 76.2999C38.3 75.3999 28.7 63.4999 28.7 63.4999Z" fill="#FFC727"/>
<path opacity="0.1" d="M28.7 63.4999L7.79999 87.6999C7.79999 87.6999 25.7 105.2 31.5 106.6C37.3 108 41.7 107.1 45.8 106C49.9 104.8 69.9 81.5999 76.5 62.6999C83.1 43.6999 76 42.7999 64.8 54.2999C53.6 65.7999 39.7 77.0999 39 76.2999C38.3 75.3999 28.7 63.4999 28.7 63.4999Z" fill="black"/>
<path d="M32.5 70.1999C31.6 70.9999 24.7 78.7999 23.1 80.5999C21.6 82.2999 15.6 89.5999 14.1 91.3999C14 91.4999 14.1 91.5999 14.2 91.4999C15 90.5999 15.9 89.7999 16.7 88.8999C17.5 87.9999 22.2 82.6999 23.7 80.9999C25.2 79.1999 32 71.1999 32.6 70.2999C32.7 70.1999 32.6 70.0999 32.5 70.1999Z" fill="#263238"/>
<path d="M57.2 94.7L53.3 128.3C53.3 128.3 107.8 127.5 121.3 126.1C121.3 126.1 108.4 63.9 93.4 48.5C85.9 40.8 77.4 41.7 72.1 47.3C70.8 48.7 55 71 53.5 79.3C52.2 86.8 57.2 94.7 57.2 94.7Z" fill="#FFC727"/>
<path d="M55 89.3001C54.4 87.4001 54 85.4001 54 83.4001C54 79.3001 55.2 75.3 57 71.7C58 69.6 59.2 67.6 60.2 65.5C60.2 65.4 60.1 65.4 60.1 65.5C59.1 66.9 58.3 68.4001 57.5 69.8001C57.5 69.7001 57.5 69.7 57.6 69.6C57.8 68.8 58.1 68 58.4 67.2C58.4 67.1 58.3 67.1 58.3 67.1C58 67.9 57.7 68.6001 57.4 69.4001C57.2 69.9001 57.1 70.4001 57 70.9001C56 72.7001 55.2 74.6 54.5 76.6C53.2 80.5 53 84.7 54.2 88.7C54.5 89.7 55 90.7 55.4 91.7C55.9 92.8 56.6 93.8001 57.2 94.8001C57.2 94.9001 57.4 94.8 57.3 94.7C56.3 93.1 55.6 91.2001 55 89.3001Z" fill="#263238"/>
<path d="M84.5 47.5998C84.1 48.5998 77.7 54.4998 73 53.3998C71.4 52.9998 73.1 44.4998 73.1 44.4998V43.7998L72.8 34.5998L84.5 29.8998L86.2 29.2998C86.2 29.2998 86.1 31.7998 86 34.9998C86 35.0998 86 35.2998 86 35.3998C86 35.5998 86 35.6998 86 35.8998C86 36.3998 86 36.8998 85.9 37.2998C85.9 37.6998 85.9 37.9998 85.8 38.3998C85.8 38.7998 85.7 39.1998 85.7 39.4998C85.4 43.3998 84.7 47.1998 84.5 47.5998Z" fill="#F7A9A0"/>
<path d="M85.9 34.8999C82 41.4999 75.8 43.2999 73.1 43.7999L72.8 34.5999L84.5 29.8999L86.2 29.2999C86.1 29.1999 86.1 31.7999 85.9 34.8999Z" fill="#263238"/>
<path d="M61.9 20.3C59.7 36.4 69.1 39.5 72.5 40C75.6 40.4 86.4 41.5001 90.3 25.7001C94.2 9.90005 87.4 3.80005 80.2 2.40005C73.1 1.10005 64.1 4.20005 61.9 20.3Z" fill="#F7A9A0"/>
<path d="M66.2 17.0001C66.6 17.0001 66.9 17.0001 67.3 16.9001C67.7 16.9001 68.1 16.9001 68.4 16.6001C68.6 16.5001 68.6 16.1001 68.5 15.9001C68.2 15.4001 67.7 15.4001 67.1 15.4001C66.5 15.4001 66.1 15.6001 65.7 16.0001C65.4 16.3001 65.7 17.0001 66.2 17.0001Z" fill="#263238"/>
<path d="M76.8 18.6002C76.4 18.5002 76.1 18.4002 75.7 18.2002C75.3 18.0002 75 18.0002 74.7 17.6002C74.6 17.4002 74.6 17.1002 74.8 16.9002C75.2 16.5002 75.8 16.6002 76.2 16.8002C76.7 17.0002 77.1 17.2002 77.4 17.7002C77.8 18.1002 77.3 18.7002 76.8 18.6002Z" fill="#263238"/>
<path d="M74.1 22.3L74.2 22.4001C74 23.5001 73.9 24.8 74.9 25.3V25.4001C73.6 25.0001 73.7 23.3 74.1 22.3Z" fill="#263238"/>
<path d="M75.3 21.4001C77.1 21.6001 76.6 25.1001 75 25.0001C73.3 24.8001 73.8 21.2001 75.3 21.4001Z" fill="#263238"/>
<path d="M75.9 21.6C76.2 21.8 76.4 22.2 76.8 22.3C77.2 22.4 77.6 22.1 77.9 21.7H78C77.9 22.4 77.6 23 76.8 23.1C76.1 23.1 75.7 22.5 75.6 21.7C75.7 21.7 75.8 21.5 75.9 21.6Z" fill="#263238"/>
<path d="M67.8 21.3C67.8 21.3 67.7 21.3 67.8 21.3C67.6 22.5 67.3 23.7 66.3 24V24.1C67.5 24 67.9 22.4 67.8 21.3Z" fill="#263238"/>
<path d="M66.9 20.0002C65.1 19.7002 64.6 23.2002 66.2 23.5002C67.9 23.8002 68.4 20.3002 66.9 20.0002Z" fill="#263238"/>
<path d="M66.2 20.2002C65.9 20.3002 65.6 20.6002 65.2 20.6002C64.8 20.6002 64.6 20.1002 64.4 19.7002H64.3C64.2 20.4002 64.3 21.1002 64.9 21.3002C65.5 21.5002 66 21.0002 66.3 20.4002C66.4 20.3002 66.3 20.1002 66.2 20.2002Z" fill="#263238"/>
<path d="M72.7 31.1003C72.4 31.3003 72.1 31.7003 71.7 31.7003C71.3 31.7003 70.9 31.5003 70.5 31.3003C70.5 31.3003 70.4 31.3003 70.4 31.4003C70.7 31.8003 71.2 32.2003 71.8 32.1003C72.3 32.1003 72.6 31.6003 72.7 31.2003C72.8 31.1003 72.7 31.0003 72.7 31.1003Z" fill="#263238"/>
<path d="M68.6 26.5001C68.6 26.5001 68.2 28.1001 68 28.9001C68 29.0001 68.2 29.0001 68.4 29.1001C69.7 29.5001 71.2 29.2001 72.1 28.2001C72.2 28.1001 72.1 28.0001 72 28.1001C70.9 28.7001 69.7 28.8001 68.5 28.6001C68.5 28.4001 69.4 25.9001 69.2 25.8001C68.8 25.7001 67.9 25.9001 67.4 26.0001C68.2 22.6001 69.6 19.4001 70.4 16.0001C70.4 15.9001 70.3 15.8001 70.2 15.9001C68.5 19.2001 67.5 23.0001 66.5 26.5001C66.6 27.0001 68.3 26.6001 68.6 26.5001Z" fill="#263238"/>
<path d="M88.9 25.8C84.9 25.5 84.2 13.2 84.2 11.7C84.2 12.7 84.1 17.7 83.7 17.9C83.6 17.9 83.2 17.8 82.5 17.6C82.5 17 82.5 16.4 82.4 15.8C82.4 15.5 82.3 16.4 82.1 17.5C81.9 17.4 81.6 17.3 81.4 17.3C81.5 16.2 81.5 14.9 81.2 13.5C81.1 13 80.9 15.2 80.4 17C77.7 16.2 73.8 15 70.1 14.8C69.1 14.7 68.3 14.7 67.5 14.7C67.6 13.2 67.8 11.6 67.7 12C67.3 13 67.1 13.9 67 14.7C66.6 14.7 66.2 14.7 65.9 14.7C65.9 12.6 67 9.30003 66.6 9.80003C65.2 11.7 64.6 13.8 64.4 14.9C63 15.1 62.6 15.4 62.5 15C62.5 14.3 63.5 8.50003 68.2 4.40003C73.3 -0.0999711 83.3 -0.899972 88.6 6.50003C88.6 6.50003 93.1 9.70003 93.6 14.5C94 19.4 91.2 26 88.9 25.8Z" fill="#263238"/>
<path d="M87.6 26.6C87.6 26.6 91.4 21.7 93.6 23.1C95.8 24.5 92.8 31.7 90.1 32.5C87.4 33.4 86.5 30.8 86.5 30.8L87.6 26.6Z" fill="#F7A9A0"/>
<path d="M92.7 25.2C90.8 25.9 89.7 27.6 88.9 29.4C89.5 28.7 90.3 28.3999 91.2 29.0999C91.2 29.0999 91.2 29.2 91.1 29.2C90.3 29 89.8 29.1 89.2 29.7C88.8 30.1 88.5 30.6999 88.2 31.1999C88.1 31.3999 87.8 31.2999 87.9 31.0999C88 28.5999 90.1 25.3 92.7 25.2Z" fill="#263238"/>
<path d="M96.3 48.4999C115 63.7999 130.1 87.1999 130.9 93.0999C131.8 99.5999 129.5 123.3 123.3 135.3C121.7 138.5 97.5 124 99.1 120.6C102.2 113.9 106.7 95.6999 106.1 92.0999C105.5 88.6999 96 68.4999 89.4 57.8999C83.5 48.0999 87.6 41.3999 96.3 48.4999Z" fill="#F7A9A0"/>
<path d="M80.6 149.4C82.2 151.9 85.2 151.1 85.2 151.1C85.2 151.1 85.2 153.5 86.7 155.1C88.5 157 92.2 155 92.2 155C92.2 155 92.7 157.4 94.5 159C96.4 160.6 100.4 159.2 100.4 159.2C100.4 159.2 102.1 161.2 104.6 161.4C109 161.8 113 156.4 115.6 153.1C118.2 149.7 122.4 137.7 123.4 135.5L101.9 118.7C101.9 118.7 86 130.5 83.5 134.9C81.5 138.5 78.8 146.6 80.6 149.4Z" fill="#F7A9A0"/>
<path d="M84.9 150.6C86.2 146.1 88.7 142.3 91 138.3C91.1 138.2 91.2 138.3 91.1 138.4C88.8 142.3 87.2 146.7 85.1 150.7C85 150.8 84.9 150.7 84.9 150.6Z" fill="#263238"/>
<path d="M92 154.6C92.3 153.6 93 152.7 93.5 151.8C94.1 150.9 94.7 149.9 95.4 149C96.7 147.2 98 145.3 99.4 143.6C99.5 143.5 99.6 143.6 99.5 143.7C98.2 145.5 97 147.4 95.8 149.3C95.2 150.2 94.6 151.2 94 152.2C93.5 153.1 93 154.1 92.2 154.8C92.1 154.9 91.9 154.8 92 154.6Z" fill="#263238"/>
<path d="M100.5 159C100.7 158.1 101.5 157.3 102 156.6C102.6 155.8 103.2 154.9 103.8 154.1C105 152.4 106.2 150.8 107.3 149C107.4 148.9 107.5 149 107.4 149.1C106.3 150.8 105.2 152.6 104 154.3C103.4 155.2 102.9 156 102.3 156.8C101.8 157.6 101.3 158.5 100.5 159Z" fill="#263238"/>
<path d="M87.3 55.8999C90.9 66.0999 105.5 90.2999 105.4 92.5999C105.3 94.8999 98.2 119.2 98.2 119.2L127.1 136.7C127.1 136.7 133.5 103.6 131.1 92.0999C129.3 83.2999 108.9 57.5999 99 49.6999C89.1 41.8999 82.7 42.8999 87.3 55.8999Z" fill="#FFC727"/>
<path opacity="0.1" d="M87.3 55.8999C90.9 66.0999 105.5 90.2999 105.4 92.5999C105.3 94.8999 98.2 119.2 98.2 119.2L127.1 136.7C127.1 136.7 133.5 103.6 131.1 92.0999C129.3 83.2999 108.9 57.5999 99 49.6999C89.1 41.8999 82.7 42.8999 87.3 55.8999Z" fill="black"/>
<path d="M105.5 91.1999C105.2 89.4999 104.2 87.8999 103.4 86.3999C101.6 82.9999 99.8 79.5999 97.8 76.2999C96.7 74.4999 92.4 67.3999 91.2 65.0999C91.1 64.8999 90.8 65.0999 90.9 65.2999C91.6 66.6999 93.6 70.2999 95.1 72.8999C94.9 72.5999 94.7 72.3999 94.4 72.0999C94 71.5999 93.5 71.0999 93.1 70.6999C92.6 70.1999 92 69.7999 91.6 69.1999C91.5 69.0999 91.4 69.1999 91.5 69.2999C92.3 70.3999 93.2 71.2999 94.1 72.2999C94.5 72.7999 95 73.2999 95.4 73.7999C95.7 74.0999 96 74.4999 96.3 74.7999C96.4 74.8999 96.4 74.9999 96.5 75.0999C98.4 78.3999 100.1 81.6999 101.9 84.9999C102.8 86.5999 103.8 88.1999 104.4 89.8999C104.7 90.6999 104.9 91.4999 104.9 92.3999C104.8 93.3999 104.5 94.3999 104.3 95.2999C103.3 98.8999 102.4 102.5 101.4 106.2C100.9 108.3 100.3 110.4 99.8 112.5C99.3 114.6 98.7 116.7 98.4 118.8C98.4 118.9 98.6 119.1 98.7 118.9C99.4 117.1 99.9 115.2 100.4 113.4C100.9 111.5 101.5 109.6 102 107.8C103 104 104 100.2 105 96.2999C105.2 94.6999 105.8 92.9999 105.5 91.1999Z" fill="#263238"/>
<path d="M126.8 129.2C119 123.7 110.8 118.6 102.4 113.9C102.3 113.9 102.2 114 102.3 114C110.1 119.5 118.2 124.7 126.6 129.3C126.8 129.5 126.9 129.3 126.8 129.2Z" fill="#263238"/>
</svg>
